<svg width="48" height="48" viewBox="0 0 48 48" fill="none" xmlns="http://www.w3.org/2000/svg">
<rect width="48" height="48" rx="4" fill="white"/>
<g clip-path="url(#clip0_2537_1062)">
<mask id="mask0_2537_1062" style="mask-type:luminance" maskUnits="userSpaceOnUse" x="4" y="9" width="40" height="30">
<path d="M4 9.00171H44V38.5029H4V9.00171Z" fill="white"/>
</mask>
<g mask="url(#mask0_2537_1062)">
<path d="M44 23.0939V24.4108C43.9875 24.4822 43.9717 24.5523 43.9635 24.6234C43.8953 25.1963 43.8512 25.7727 43.757 26.3413C43.4496 28.1892 42.7849 29.9067 41.7972 31.4949C40.2973 33.9061 38.2696 35.7448 35.7215 37.0004C34.2508 37.7285 32.6651 38.1965 31.0347 38.3834C30.6726 38.4253 30.3108 38.4628 29.9486 38.5026H15.8963C15.8255 38.4895 15.7551 38.4684 15.6836 38.4641C14.2667 38.3749 12.9034 38.0519 11.604 37.4834C8.77498 36.2455 6.66568 34.2393 5.28494 31.4778C4.67481 30.2597 4.27997 28.9453 4.11786 27.5927C4.07802 27.2638 4.03918 26.9352 4 26.6067V25.329C4.0135 25.2582 4.03424 25.1874 4.03852 25.1163C4.11193 23.8886 4.36379 22.6965 4.80724 21.5509C6.00066 18.4681 8.08099 16.1816 11.0374 14.7018C12.5712 13.9337 14.2061 13.5301 15.916 13.4406C16.7533 13.3971 17.5898 13.4439 18.4221 13.5555C18.4974 13.5657 18.6061 13.5321 18.6584 13.4784C19.8551 12.256 21.2178 11.2631 22.7542 10.5105C24.2446 9.78065 25.813 9.3102 27.464 9.12188C27.8525 9.07744 28.242 9.0409 28.6311 9.00073H29.8291C29.9075 9.01291 29.9862 9.02674 30.0645 9.03596C30.6581 9.10509 31.255 9.14855 31.843 9.24699C33.6774 9.55481 35.385 10.2132 36.9653 11.1913C39.3883 12.6913 41.2349 14.7216 42.4965 17.2776C43.2261 18.749 43.6945 20.3359 43.8808 21.9676C43.9236 22.3433 43.9602 22.7189 44 23.0939ZM21.6346 14.5727C21.6586 14.6044 21.6645 14.6192 21.6747 14.6241C22.4974 15.0296 23.2838 15.5051 24.025 16.0453C24.0718 16.0793 24.1877 16.0651 24.2443 16.0295C26.2815 14.7387 28.4899 14.2932 30.8622 14.714C33.1868 15.1262 35.0785 16.2876 36.5238 18.1428C38.1603 20.2422 38.7842 22.6162 38.3325 25.2575C38.0296 27.0277 37.3205 28.6159 36.1152 29.9462C33.9161 32.3716 31.1621 33.3747 27.9203 32.95C25.9246 32.6886 24.2018 31.8277 22.776 30.3867C20.9458 28.5382 19.1039 26.7018 17.2685 24.8582C17.0239 24.6126 16.7516 24.4151 16.3993 24.3719C15.784 24.2965 15.2257 24.6037 14.96 25.1565C14.723 25.6499 14.7536 26.2063 15.2678 26.712C17.3139 28.7206 19.3419 30.7476 21.3857 32.7581C21.7355 33.104 22.1106 33.4232 22.508 33.7132C24.001 34.7973 25.6843 35.3968 27.5072 35.6381C28.9379 35.8271 30.3575 35.7866 31.7663 35.4699C34.4533 34.8664 36.6792 33.4949 38.4323 31.3787C39.8798 29.6299 40.7552 27.6203 41.0604 25.3642C41.2373 24.0776 41.2003 22.7707 40.9511 21.4962C40.5445 19.4123 39.6629 17.5476 38.2502 15.9604C35.5549 12.9339 32.164 11.5828 28.1287 11.8844C26.5765 12.0002 25.1081 12.4562 23.7264 13.1795C22.9808 13.5669 22.2794 14.034 21.6346 14.5727ZM20.6472 35.7006C20.5917 35.6492 20.5364 35.5975 20.4813 35.5456C19.6448 34.7558 18.8036 33.9709 17.977 33.1709C17.817 33.0162 17.6698 32.9408 17.4433 32.9461C16.6061 32.9665 15.7682 32.9701 14.9432 32.7838C10.8412 31.856 8.45926 27.3961 9.97103 23.4718C11.1635 20.3775 14.4645 18.4931 17.7198 19.0741C19.1789 19.3346 20.4596 19.9522 21.5108 21.0363C22.7928 22.3597 24.1129 23.6453 25.4087 24.9553C25.7037 25.2536 26.0425 25.3895 26.451 25.3313C26.9791 25.2559 27.3995 25.0044 27.5905 24.4865C27.7774 23.9769 27.6869 23.4942 27.3011 23.1034C25.9411 21.7257 24.6133 20.3133 23.1984 18.9941C20.454 16.4345 17.2178 15.6733 13.6385 16.7617C8.82436 18.2244 6.00691 23.1956 7.10683 28.101C8.1093 32.5704 12.0181 35.7072 16.5919 35.7112C17.869 35.7125 19.1463 35.7118 20.4234 35.7112C20.4866 35.7112 20.5498 35.7056 20.6472 35.7006Z" fill="#DA1F26"/>
</g>
</g>
<defs>
<clipPath id="clip0_2537_1062">
<rect width="40" height="29.504" fill="white" transform="translate(4 9)"/>
</clipPath>
</defs>
</svg>
