<svg width="48" height="48" viewBox="0 0 48 48" fill="none" xmlns="http://www.w3.org/2000/svg">
<rect width="48" height="48" rx="4" fill="url(#paint0_linear_2486_704)" fill-opacity="0.85"/>
<path d="M43 21.8889V17.6667H38.7778V13.4444C38.7744 12.3257 38.3285 11.2537 37.5374 10.4626C36.7463 9.67148 35.6743 9.22556 34.5556 9.22222H30.3333V5H26.1111V9.22222H21.8889V5H17.6667V9.22222H13.4444C12.3257 9.22556 11.2537 9.67148 10.4626 10.4626C9.67148 11.2537 9.22556 12.3257 9.22222 13.4444V17.6667H5V21.8889H9.22222V26.1111H5V30.3333H9.22222V34.5556C9.22556 35.6743 9.67148 36.7463 10.4626 37.5374C11.2537 38.3285 12.3257 38.7744 13.4444 38.7778H17.6667V43H21.8889V38.7778H26.1111V43H30.3333V38.7778H34.5556C35.6743 38.7744 36.7463 38.3285 37.5374 37.5374C38.3285 36.7463 38.7744 35.6743 38.7778 34.5556V30.3333H43V26.1111H38.7778V21.8889H43ZM34.5556 34.5556H13.4444V13.4444H34.5556V34.5556Z" fill="white"/>
<path d="M23.0258 17H20.6101L17 31H18.8446L19.6779 27.7188H23.8377L24.6495 31H26.5569L23.0258 17ZM19.9204 26.317L21.7488 18.6625H21.8314L23.597 26.317H19.9204ZM28.2039 17H30V31H28.2039V17Z" fill="white"/>
<defs>
<linearGradient id="paint0_linear_2486_704" x1="-4.69387e-07" y1="-3" x2="48" y2="48" gradientUnits="userSpaceOnUse">
<stop stop-color="#50129E"/>
<stop offset="1" stop-color="#D921BB"/>
</linearGradient>
</defs>
</svg>
