<svg width="48" height="48" viewBox="0 0 48 48" fill="none" xmlns="http://www.w3.org/2000/svg">
<rect width="48" height="48" rx="4" fill="#9B5DE5"/>
<path fill-rule="evenodd" clip-rule="evenodd" d="M8 8H40C40.5523 8 41 8.44772 41 9V27C42.1947 27 43.2671 27.5238 44 28.3542V9C44 6.79086 42.2091 5 40 5H8C5.79086 5 4 6.79086 4 9V30C4 32.2091 5.79086 34 8 34H21V31H8C7.44772 31 7 30.5523 7 30V9C7 8.44772 7.44772 8 8 8Z" fill="white"/>
<path d="M21 24.191V15.809C21 15.4373 21.3912 15.1956 21.7236 15.3618L30.1056 19.5528C30.4741 19.737 30.4741 20.263 30.1056 20.4472L21.7236 24.6382C21.3912 24.8044 21 24.5627 21 24.191Z" fill="white"/>
<rect x="22" y="28" width="22" height="16" rx="4" fill="white"/>
<path d="M25.1185 36.877C24.748 36.4674 24.1156 36.4357 23.7061 36.8063C23.2965 37.1768 23.2649 37.8091 23.6354 38.2187L25.1185 36.877ZM31 34.5L31.8 33.9L30.8613 32.6484L30.1195 34.0259L31 34.5ZM35.3279 40.2705L36.1279 39.6705L35.3279 40.2705ZM35.6558 40.2592L36.4954 40.8024L35.6558 40.2592ZM27.3099 40.7899L26.5683 41.4608L27.3099 40.7899ZM27.6343 40.7505L26.7539 40.2764L27.6343 40.7505ZM23.6354 38.2187L26.5683 41.4608L28.0515 40.119L25.1185 36.877L23.6354 38.2187ZM28.5148 41.2246L31.8805 34.9741L30.1195 34.0259L26.7539 40.2764L28.5148 41.2246ZM30.2 35.1L34.5279 40.8705L36.1279 39.6705L31.8 33.9L30.2 35.1ZM36.4954 40.8024L41.8396 32.5433L40.1604 31.4567L34.8162 39.7159L36.4954 40.8024ZM34.5279 40.8705C35.0288 41.5385 36.0418 41.5034 36.4954 40.8024L34.8162 39.7159C35.1186 39.2486 35.7939 39.2253 36.1279 39.6705L34.5279 40.8705ZM26.5683 41.4608C27.1245 42.0756 28.1217 41.9546 28.5148 41.2246L26.7539 40.2764C27.0159 39.7898 27.6807 39.7091 28.0515 40.119L26.5683 41.4608Z" fill="#9B5DE5"/>
<path d="M37.8955 31.3814L42.2425 30.0772C42.3709 30.0387 42.5 30.1348 42.5 30.2688V34.6159C42.5 34.7777 42.3179 34.8725 42.1853 34.7797L37.8382 31.7368C37.7013 31.6409 37.7354 31.4294 37.8955 31.3814Z" fill="#9B5DE5"/>
</svg>
