<svg width="48" height="48" viewBox="0 0 48 48" fill="none" xmlns="http://www.w3.org/2000/svg">
<rect width="48" height="48" rx="4" fill="white"/>
<path d="M7.75634 35.3216C6.43819 35.3216 5.36963 34.2439 5.36963 32.9142C5.36963 31.5848 6.43819 30.5069 7.75634 30.5069C9.07455 30.5069 10.1429 31.5848 10.1429 32.9142C10.1429 34.2439 9.07455 35.3216 7.75634 35.3216ZM10.1505 35.627C10.1505 35.8473 10.5333 36.4666 11.0023 36.4666H11.3061C11.4239 36.4666 11.5203 36.3714 11.5203 36.2552V29.6675H11.519C11.5129 29.5566 11.4198 29.4677 11.3061 29.4677H10.3648C10.251 29.4677 10.158 29.5566 10.1516 29.6675H10.1505V30.2028C9.57377 29.5018 8.66451 29.2109 7.75263 29.2109C5.68001 29.2109 4 30.8688 4 32.9142C4 34.9596 5.68001 36.6178 7.75263 36.6178C8.66451 36.6178 9.65822 36.2687 10.1504 35.626L10.1505 35.627ZM13.7692 34.6835C14.3975 35.1129 15.0834 35.3216 15.7425 35.3216C16.3705 35.3216 17.0196 35.0003 17.0196 34.4413C17.0196 33.6947 15.6051 33.5785 14.7164 33.2805C13.8275 32.9825 13.0618 32.3661 13.0618 31.3682C13.0618 29.8414 14.4405 29.2107 15.7272 29.2107C16.5426 29.2107 17.3838 29.4761 17.9292 29.8562C18.1171 29.9965 18.0026 30.1578 18.0026 30.1578L17.482 30.8916C17.4235 30.9742 17.3022 31.0402 17.1744 30.9561C16.8237 30.7273 16.433 30.5069 15.7272 30.5069C14.8536 30.5069 14.4692 30.8648 14.4692 31.3081C14.4692 31.84 15.0839 32.0073 15.8038 32.1886C17.0586 32.5222 18.4271 32.9235 18.4271 34.4413C18.4271 35.7865 17.1519 36.618 15.7425 36.618C14.6745 36.618 13.7652 36.3175 13.0025 35.7652C12.8437 35.6084 12.9546 35.4627 12.9546 35.4627L13.4727 34.7327C13.5781 34.5961 13.711 34.6438 13.7692 34.6835ZM25.4863 35.627C25.4863 35.8473 25.8691 36.4666 26.3381 36.4666H26.6418C26.7597 36.4666 26.8561 36.3714 26.8561 36.2552V29.6675H26.8549C26.8486 29.5566 26.7556 29.4677 26.6418 29.4677H25.7006C25.5867 29.4677 25.4937 29.5566 25.4875 29.6675H25.4863V30.2028C24.9096 29.5018 24.0003 29.2109 23.0886 29.2109C21.0159 29.2109 19.3357 30.8688 19.3357 32.9142C19.3357 34.9596 21.0159 36.6178 23.0886 36.6178C24.0003 36.6178 24.994 36.2687 25.4862 35.626L25.4863 35.627ZM23.0921 35.3216C21.7739 35.3216 20.7054 34.2439 20.7054 32.9142C20.7054 31.5848 21.7739 30.5069 23.0921 30.5069C24.4102 30.5069 25.4787 31.5848 25.4787 32.9142C25.4787 34.2439 24.4102 35.3216 23.0921 35.3216ZM35.2896 35.8534L35.2892 32.4446C35.2892 30.523 34.0608 29.2267 32.1018 29.2267C31.1667 29.2267 30.4016 29.7603 30.1309 30.2186V30.2122L30.1293 30.2175C30.1287 29.7536 29.7475 29.4835 29.2775 29.4835H28.9753C28.8574 29.4835 28.761 29.5787 28.761 29.695V35.6434V35.6445V36.2832H28.7623C28.7684 36.3941 28.8616 36.4831 28.9753 36.4831H29.9166C29.931 36.4831 29.9451 36.4814 29.9589 36.4789C29.9651 36.4776 29.9708 36.4752 29.9769 36.4734C29.984 36.4714 29.9913 36.4697 29.9978 36.4669C30.0063 36.4635 30.0139 36.4589 30.0217 36.4546C30.0255 36.4523 30.0295 36.4507 30.0333 36.4484C30.0425 36.4424 30.0512 36.4352 30.0595 36.4278C30.0609 36.4264 30.0626 36.4255 30.0639 36.4242C30.0733 36.4153 30.0818 36.4056 30.0894 36.3953L30.0895 36.3951C30.113 36.3632 30.1273 36.3248 30.1297 36.2832H30.1309V32.3917C30.1309 31.3597 30.9787 30.523 32.0246 30.523C33.0705 30.523 33.9184 31.3597 33.9184 32.3917L33.9191 35.6446L33.9194 35.6434C33.9194 35.6463 33.9199 35.6493 33.9199 35.6523V36.2832H33.9212C33.9274 36.3941 34.0204 36.4831 34.1343 36.4831H35.0755C35.09 36.4831 35.104 36.4814 35.1177 36.4789C35.1233 36.4776 35.1284 36.4754 35.1337 36.4741C35.1416 36.4719 35.1495 36.4699 35.1569 36.4669C35.1645 36.4637 35.1716 36.4594 35.1788 36.4554C35.1832 36.453 35.1879 36.4511 35.1921 36.4484C35.201 36.4426 35.2089 36.4359 35.2167 36.4292C35.2187 36.4274 35.2209 36.4259 35.2228 36.4241C35.2318 36.4157 35.2396 36.4065 35.2469 36.3969C35.2474 36.396 35.248 36.3955 35.2487 36.3948C35.2719 36.3632 35.286 36.3251 35.2885 36.2837C35.2885 36.2835 35.2886 36.2832 35.2886 36.2832H35.2897V35.8535L35.2896 35.8534ZM42.6304 35.627C42.6304 35.8473 43.0126 36.4666 43.4817 36.4666H43.7857C43.9034 36.4666 44 36.3714 44 36.2552V29.6675H43.9989C43.9926 29.5566 43.8994 29.4677 43.7857 29.4677H42.8446C42.7304 29.4677 42.6378 29.5566 42.6315 29.6675H42.6304V30.2028C42.0533 29.5018 41.1442 29.2109 40.2322 29.2109C38.1598 29.2109 36.4795 30.8688 36.4795 32.9142C36.4795 34.9596 38.1598 36.6178 40.2322 36.6178C41.1442 36.6178 42.1378 36.2687 42.6298 35.626L42.6304 35.627ZM40.2362 35.3216C38.918 35.3216 37.8495 34.2439 37.8495 32.9142C37.8495 31.5848 38.918 30.5069 40.2362 30.5069C41.5539 30.5069 42.6224 31.5848 42.6224 32.9142C42.6224 34.2439 41.5539 35.3216 40.2362 35.3216Z" fill="#283343"/>
<path d="M28.3332 18.0098C26.5167 18.0098 25.0444 19.4628 25.0444 21.2552C25.0444 23.0477 26.5167 24.5008 28.3332 24.5008C30.1495 24.5008 31.6219 23.0477 31.6219 21.2552C31.6219 19.4628 30.1495 18.0098 28.3332 18.0098ZM19.7887 18.01C17.9725 18.01 16.5 19.4628 16.5 21.2554C16.5 23.0477 17.9725 24.5008 19.7887 24.5008C21.6051 24.5008 23.0776 23.0477 23.0776 21.2554C23.0776 19.4628 21.6051 18.01 19.7887 18.01ZM27.3496 13.9529C27.3496 15.7453 25.8773 17.1987 24.061 17.1987C22.2446 17.1987 20.7722 15.7453 20.7722 13.9529C20.7722 12.1606 22.2446 10.7075 24.061 10.7075C25.8773 10.7075 27.3496 12.1606 27.3496 13.9529Z" fill="url(#paint0_radial_2537_1104)"/>
<defs>
<radialGradient id="paint0_radial_2537_1104" cx="0" cy="0" r="1" gradientUnits="userSpaceOnUse" gradientTransform="translate(772.594 764.543) scale(1002.03 913.991)">
<stop stop-color="#FFB900"/>
<stop offset="0.6" stop-color="#F95D8F"/>
<stop offset="0.9991" stop-color="#F95353"/>
</radialGradient>
</defs>
</svg>
