<svg width="48" height="48" viewBox="0 0 48 48" fill="none" xmlns="http://www.w3.org/2000/svg">
<rect width="48" height="48" rx="4" fill="#E63946"/>
<path fill-rule="evenodd" clip-rule="evenodd" d="M4 8V44L12 36H40C41.1013 36.0013 42.0433 35.61 42.826 34.826C43.6087 34.042 44 33.1 44 32V8C44.0013 6.90133 43.61 5.96 42.826 5.176C42.042 4.392 41.1 4 40 4H8C6.90133 4.00133 5.96 4.39333 5.176 5.176C4.392 5.95867 4 6.9 4 8ZM28.7453 17.8967C28.7453 19.9682 27.0158 21.6467 24.8817 21.6467C22.7476 21.6467 21.018 19.9682 21.018 17.8967V12.8967C21.018 10.8253 22.7476 9.14673 24.8817 9.14673C27.0158 9.14673 28.7453 10.8253 28.7453 12.8967V17.8967ZM32.1998 17.6735C32.2998 17.6735 32.3817 17.7539 32.3817 17.8521C32.3817 21.649 29.4567 24.774 25.6998 25.1757V27.4503H29.093C29.4044 27.4503 29.6544 27.7695 29.6544 28.1646V28.9682C29.6544 29.0664 29.5908 29.1467 29.5135 29.1467H20.2498C20.1726 29.1467 20.1089 29.0664 20.1089 28.9682V28.1646C20.1089 27.7695 20.3589 27.4503 20.6703 27.4503H23.9726V25.1646C20.2589 24.7249 17.3817 21.6177 17.3817 17.8521C17.3817 17.7539 17.4635 17.6735 17.5635 17.6735H18.9271C19.0271 17.6735 19.1089 17.7539 19.1089 17.8521C19.1089 20.9838 21.693 23.5217 24.8817 23.5217C28.0703 23.5217 30.6544 20.9838 30.6544 17.8521C30.6544 17.7539 30.7362 17.6735 30.8362 17.6735H32.1998Z" fill="white"/>
</svg>
