<svg width="48" height="48" viewBox="0 0 48 48" fill="none" xmlns="http://www.w3.org/2000/svg">
<rect width="48" height="48" rx="4" fill="#E63946"/>
<path d="M28.5378 33.9991C28.5362 35.356 28.1806 36.689 27.5061 37.8664C26.8316 39.0437 25.8615 40.0247 24.6918 40.7123C24.3415 40.8868 23.9379 40.9211 23.5632 40.8085C23.1884 40.6958 22.8707 40.4446 22.6747 40.1059C22.4786 39.7673 22.419 39.3666 22.5079 38.9856C22.5969 38.6045 22.8277 38.2716 23.1534 38.0547C23.8586 37.6384 24.4432 37.0454 24.8493 36.3342C25.2553 35.6229 25.4689 34.8181 25.4689 33.9991C25.4689 33.1801 25.2553 32.3753 24.8493 31.664C24.4432 30.9528 23.8586 30.3598 23.1534 29.9434C22.8277 29.7265 22.5969 29.3937 22.5079 29.0126C22.419 28.6316 22.4786 28.2309 22.6747 27.8923C22.8707 27.5536 23.1884 27.3024 23.5632 27.1897C23.9379 27.0771 24.3415 27.1114 24.6918 27.2858C25.8615 27.9735 26.8316 28.9545 27.5061 30.1318C28.1806 31.3092 28.5362 32.6422 28.5378 33.9991ZM18.3573 24.1167C18.0763 24.0001 17.7669 23.9695 17.4684 24.0287C17.17 24.0879 16.8957 24.2343 16.6805 24.4494L12.5171 28.6146H8.53841C8.1304 28.6146 7.7391 28.7767 7.45059 29.0652C7.16208 29.3537 7 29.745 7 30.1531V37.8451C7 38.2531 7.16208 38.6444 7.45059 38.933C7.7391 39.2215 8.1304 39.3835 8.53841 39.3835H12.5171L16.6805 43.5488C16.8956 43.7642 17.1699 43.9109 17.4684 43.9704C17.767 44.0298 18.0765 43.9994 18.3578 43.8828C18.6391 43.7663 18.8794 43.5689 19.0484 43.3157C19.2175 43.0625 19.3076 42.7648 19.3073 42.4604V25.5378C19.3073 25.2335 19.217 24.9361 19.0479 24.6832C18.8788 24.4302 18.6385 24.2331 18.3573 24.1167ZM40.8451 16.3073V40.922C40.8451 41.738 40.521 42.5206 39.9439 43.0976C39.3669 43.6746 38.5843 43.9988 37.7683 43.9988H31.6146C31.2066 43.9988 30.8153 43.8367 30.5268 43.5482C30.2383 43.2597 30.0762 42.8684 30.0762 42.4604C30.0762 42.0524 30.2383 41.6611 30.5268 41.3726C30.8153 41.084 31.2066 40.922 31.6146 40.922H37.7683V17.8457H28.5378C28.1298 17.8457 27.7385 17.6837 27.45 17.3951C27.1615 17.1066 26.9994 16.7153 26.9994 16.3073V7.07683H10.0768V22.461C10.0768 22.869 9.91475 23.2603 9.62624 23.5488C9.33773 23.8373 8.94643 23.9994 8.53841 23.9994C8.1304 23.9994 7.7391 23.8373 7.45059 23.5488C7.16208 23.2603 7 22.869 7 22.461V7.07683C7 6.2608 7.32416 5.4782 7.90118 4.90118C8.4782 4.32417 9.2608 4 10.0768 4H28.5378C28.7399 3.99984 28.94 4.0395 29.1268 4.11671C29.3135 4.19392 29.4833 4.30717 29.6262 4.44999L40.3951 15.2189C40.538 15.3619 40.6512 15.5316 40.7284 15.7183C40.8056 15.9051 40.8453 16.1052 40.8451 16.3073ZM30.0762 14.7689H35.5934L30.0762 9.25176V14.7689Z" fill="white"/>
</svg>
