<svg width="48" height="48" viewBox="0 0 48 48" fill="none" xmlns="http://www.w3.org/2000/svg">
<rect width="48" height="48" rx="4" fill="white"/>
<g clip-path="url(#clip0_2537_948)">
<path d="M15.4021 20.513C15.4021 20.9953 15.4542 21.3864 15.5455 21.6732C15.6498 21.96 15.7802 22.2729 15.9627 22.6119C16.0279 22.7162 16.0539 22.8205 16.0539 22.9117C16.0539 23.0421 15.9757 23.1725 15.8062 23.3028L14.9849 23.8504C14.8676 23.9286 14.7503 23.9677 14.646 23.9677C14.5156 23.9677 14.3852 23.9025 14.2549 23.7852C14.0724 23.5896 13.9159 23.381 13.7856 23.1725C13.6552 22.9508 13.5248 22.7031 13.3814 22.4033C12.3645 23.6027 11.087 24.2024 9.54862 24.2024C8.45354 24.2024 7.58008 23.8895 6.94128 23.2637C6.30248 22.638 5.97656 21.8036 5.97656 20.7607C5.97656 19.6525 6.36766 18.753 7.1629 18.0751C7.95814 17.3972 9.01412 17.0582 10.3569 17.0582C10.8001 17.0582 11.2564 17.0974 11.7388 17.1625C12.2211 17.2277 12.7165 17.332 13.238 17.4493V16.4977C13.238 15.5069 13.0294 14.8159 12.6253 14.4118C12.2081 14.0077 11.5041 13.8121 10.5003 13.8121C10.044 13.8121 9.57469 13.8642 9.09234 13.9816C8.60998 14.0989 8.14066 14.2423 7.68437 14.4248C7.47578 14.5161 7.31934 14.5682 7.22809 14.5943C7.13683 14.6204 7.07165 14.6334 7.0195 14.6334C6.83699 14.6334 6.74573 14.503 6.74573 14.2293V13.5905C6.74573 13.3819 6.7718 13.2255 6.83699 13.1342C6.90217 13.0429 7.0195 12.9517 7.20201 12.8604C7.6583 12.6258 8.20584 12.4302 8.84464 12.2738C9.48344 12.1043 10.1613 12.0261 10.8784 12.0261C12.4297 12.0261 13.5639 12.3781 14.294 13.082C15.011 13.786 15.376 14.855 15.376 16.2891V20.513H15.4021ZM10.1092 22.4946C10.5394 22.4946 10.9827 22.4163 11.452 22.2599C11.9213 22.1034 12.3385 21.8166 12.6905 21.4255C12.8991 21.1778 13.0555 20.9041 13.1337 20.5912C13.2119 20.2783 13.2641 19.9002 13.2641 19.457V18.9095C12.886 18.8182 12.4819 18.74 12.0647 18.6878C11.6475 18.6357 11.2434 18.6096 10.8393 18.6096C9.9658 18.6096 9.327 18.7791 8.89678 19.1311C8.46657 19.4831 8.25799 19.9785 8.25799 20.6303C8.25799 21.243 8.41443 21.6993 8.74034 22.0122C9.05323 22.3381 9.50951 22.4946 10.1092 22.4946ZM20.5777 23.9025C20.343 23.9025 20.1866 23.8634 20.0823 23.7721C19.978 23.6939 19.8867 23.5114 19.8085 23.2637L16.7449 13.1863C16.6667 12.9256 16.6276 12.7561 16.6276 12.6649C16.6276 12.4563 16.7318 12.339 16.9404 12.339H18.218C18.4657 12.339 18.6352 12.3781 18.7265 12.4693C18.8308 12.5475 18.909 12.7301 18.9872 12.9778L21.1774 21.6081L23.2111 12.9778C23.2763 12.717 23.3545 12.5475 23.4588 12.4693C23.5631 12.3911 23.7456 12.339 23.9803 12.339H25.0232C25.2709 12.339 25.4404 12.3781 25.5447 12.4693C25.649 12.5475 25.7402 12.7301 25.7924 12.9778L27.8522 21.7123L30.1075 12.9778C30.1857 12.717 30.277 12.5475 30.3682 12.4693C30.4725 12.3911 30.642 12.339 30.8767 12.339H32.0891C32.2977 12.339 32.415 12.4432 32.415 12.6649C32.415 12.7301 32.402 12.7952 32.3889 12.8735C32.3759 12.9517 32.3498 13.056 32.2977 13.1994L29.1558 23.2768C29.0776 23.5375 28.9863 23.707 28.8821 23.7852C28.7778 23.8634 28.6083 23.9156 28.3867 23.9156H27.2655C27.0178 23.9156 26.8483 23.8764 26.744 23.7852C26.6397 23.6939 26.5485 23.5245 26.4963 23.2637L24.4756 14.855L22.468 23.2507C22.4028 23.5114 22.3246 23.6809 22.2203 23.7721C22.116 23.8634 21.9335 23.9025 21.6988 23.9025H20.5777ZM37.3298 24.2545C36.6519 24.2545 35.974 24.1763 35.3222 24.0198C34.6704 23.8634 34.1619 23.6939 33.823 23.4984C33.6144 23.381 33.471 23.2507 33.4188 23.1333C33.3667 23.016 33.3406 22.8857 33.3406 22.7683V22.1034C33.3406 21.8297 33.4449 21.6993 33.6405 21.6993C33.7187 21.6993 33.7969 21.7123 33.8751 21.7384C33.9533 21.7645 34.0707 21.8166 34.201 21.8688C34.6443 22.0643 35.1266 22.2208 35.6351 22.3251C36.1565 22.4294 36.665 22.4815 37.1864 22.4815C38.0078 22.4815 38.6465 22.3381 39.0898 22.0513C39.533 21.7645 39.7677 21.3473 39.7677 20.8128C39.7677 20.4478 39.6504 20.1479 39.4157 19.9002C39.1811 19.6525 38.7378 19.4309 38.099 19.2223L36.2087 18.6357C35.257 18.3358 34.553 17.8926 34.1228 17.3059C33.6926 16.7323 33.471 16.0935 33.471 15.4156C33.471 14.8681 33.5883 14.3857 33.823 13.9685C34.0576 13.5514 34.3705 13.1863 34.7616 12.8995C35.1527 12.5997 35.596 12.3781 36.1174 12.2216C36.6389 12.0652 37.1864 12 37.7601 12C38.0469 12 38.3467 12.013 38.6335 12.0521C38.9334 12.0913 39.2071 12.1434 39.4809 12.1956C39.7416 12.2607 39.9893 12.3259 40.224 12.4041C40.4586 12.4824 40.6412 12.5606 40.7715 12.6388C40.954 12.7431 41.0844 12.8474 41.1626 12.9647C41.2409 13.069 41.28 13.2124 41.28 13.3949V14.0077C41.28 14.2814 41.1757 14.4248 40.9801 14.4248C40.8758 14.4248 40.7063 14.3727 40.4847 14.2684C39.7416 13.9294 38.9073 13.76 37.9817 13.76C37.2386 13.76 36.6519 13.8773 36.2478 14.125C35.8437 14.3727 35.6351 14.7507 35.6351 15.2853C35.6351 15.6503 35.7654 15.9632 36.0262 16.2109C36.2869 16.4586 36.7693 16.7063 37.4602 16.9279L39.3114 17.5145C40.2501 17.8144 40.928 18.2315 41.3321 18.7661C41.7362 19.3006 41.9318 19.9133 41.9318 20.5912C41.9318 21.1518 41.8145 21.6602 41.5928 22.1034C41.3582 22.5467 41.0453 22.9378 40.6412 23.2507C40.237 23.5766 39.7547 23.8113 39.1941 23.9807C38.6074 24.1632 37.9947 24.2545 37.3298 24.2545Z" fill="#252F3E"/>
<path fill-rule="evenodd" clip-rule="evenodd" d="M39.7939 30.5903C35.5048 33.7583 29.2733 35.44 23.9152 35.44C16.406 35.44 9.64 32.6632 4.52961 28.0482C4.12547 27.6832 4.4905 27.1878 4.97286 27.4746C10.5004 30.6816 17.3186 32.6241 24.3715 32.6241C29.1299 32.6241 34.3576 31.6333 39.1681 29.5996C39.8852 29.2736 40.4979 30.0689 39.7939 30.5903Z" fill="#FF9900"/>
<path fill-rule="evenodd" clip-rule="evenodd" d="M41.5799 28.5565C41.0324 27.8525 37.9557 28.2176 36.5608 28.387C36.1436 28.4392 36.0784 28.0742 36.4565 27.8004C38.9074 26.0795 42.9357 26.5749 43.405 27.1486C43.8744 27.7352 43.2747 31.7635 40.9802 33.693C40.6282 33.9928 40.2893 33.8364 40.4457 33.4453C40.9672 32.1546 42.1274 29.2475 41.5799 28.5565Z" fill="#FF9900"/>
</g>
<defs>
<clipPath id="clip0_2537_948">
<rect width="40" height="23.44" fill="white" transform="translate(4 12)"/>
</clipPath>
</defs>
</svg>
