<svg width="48" height="48" viewBox="0 0 48 48" fill="none" xmlns="http://www.w3.org/2000/svg">
<rect width="48" height="48" rx="4" fill="white"/>
<path d="M32.9009 36.6567C28.7549 36.6567 25.2185 33.3642 25.2185 28.9742C25.2185 24.5843 28.2671 20.926 33.0229 20.926C37.9006 20.926 40.7053 24.8282 40.7053 28.8523C40.7053 33.2423 37.6567 36.6567 32.9009 36.6567ZM33.2668 17.7555C29.3646 17.7555 27.2915 19.0968 25.8282 20.5601L25.4624 20.926V8H22.1699V29.0962C22.1699 35.5592 27.1696 39.7052 32.9009 39.7052C39.242 39.7052 43.9978 34.8275 43.9978 28.6084C44.1197 22.7551 38.9981 17.7555 33.2668 17.7555Z" fill="#73C41D"/>
<path d="M20.5843 22.0233C20.5843 22.0233 19.121 21.7795 17.9015 21.5356C16.5601 21.2917 15.9504 21.1697 14.1213 20.4381C12.4141 19.7064 10.7069 17.9992 9.24356 16.0481C7.6583 14.097 4 11.0484 4 11.0484C4 11.0484 5.09748 11.1704 6.31691 11.4143C7.29246 11.6581 9.73133 12.3898 12.1702 13.7312C12.7799 13.9751 13.0238 14.219 13.6335 14.5848C14.4871 15.0726 15.3407 15.9262 16.1943 16.7798C17.1699 17.7553 18.0235 18.6089 18.7551 19.4625C17.9015 17.9992 15.8285 12.6337 11.8044 8.24376C11.4385 7.75599 14.6091 9.82902 15.4627 10.6826C17.9015 13.3654 18.2673 14.8287 19.121 17.2676L20.5843 22.0233Z" fill="#73C41D"/>
</svg>
