<svg width="48" height="48" viewBox="0 0 48 48" fill="none" xmlns="http://www.w3.org/2000/svg">
<rect width="48" height="48" rx="4" fill="white"/>
<path d="M5.43831 6.23961C5.25265 6.23721 5.06872 6.27548 4.89944 6.35174C4.73015 6.428 4.57961 6.54039 4.45839 6.68103C4.33718 6.82167 4.24822 6.98714 4.19776 7.16583C4.14731 7.34451 4.13659 7.53207 4.16635 7.71534L9.56605 40.4949C9.63331 40.896 9.83977 41.2607 10.1492 41.5247C10.4585 41.7887 10.8511 41.9353 11.2578 41.9387H37.1622C37.4671 41.9426 37.7632 41.8368 37.9966 41.6407C38.2301 41.4446 38.3853 41.1711 38.434 40.8702L43.8339 7.7217C43.8636 7.53844 43.8528 7.3509 43.8024 7.17224C43.7519 6.99359 43.6629 6.82815 43.5417 6.68754C43.4204 6.54694 43.2699 6.43457 43.1006 6.35834C42.9313 6.28211 42.7474 6.24386 42.5618 6.24628L5.43831 6.23961ZM28.1754 29.9307H19.9073L17.6686 18.2347H30.1789L28.1754 29.9307Z" fill="#2684FF"/>
<path d="M42.0838 18.2183H30.1558L28.1539 29.905H19.8925L10.1377 41.4837C10.4469 41.751 10.8411 41.8996 11.2498 41.903H37.1399C37.4446 41.907 37.7405 41.8013 37.9738 41.6054C38.2071 41.4094 38.3622 41.1362 38.4109 40.8355L42.0838 18.2183Z" fill="url(#paint0_linear_2537_1008)"/>
<defs>
<linearGradient id="paint0_linear_2537_1008" x1="8961.45" y1="773.681" x2="5290.9" y2="5437.86" gradientUnits="userSpaceOnUse">
<stop offset="0.18" stop-color="#0052CC"/>
<stop offset="1" stop-color="#2684FF"/>
</linearGradient>
</defs>
</svg>
