<svg width="48" height="48" viewBox="0 0 48 48" fill="none" xmlns="http://www.w3.org/2000/svg">
<rect width="48" height="48" rx="4" fill="#52796F"/>
<path d="M36 5C38.1217 5 40.1566 5.84285 41.6569 7.34315C43.1571 8.84344 44 10.8783 44 13V29C44 31.1217 43.1571 33.1566 41.6569 34.6569C40.1566 36.1571 38.1217 37 36 37H26.552L17.028 42.714C16.7412 42.8861 16.4158 42.9836 16.0815 42.9974C15.7473 43.0112 15.415 42.941 15.1149 42.7932C14.8149 42.6453 14.5567 42.4246 14.364 42.1511C14.1713 41.8777 14.0503 41.5603 14.012 41.228L14 41V37H12C9.94752 37 7.97354 36.2111 6.48638 34.7966C4.99921 33.382 4.11262 31.4499 4.01 29.4L4 29V13C4 10.8783 4.84285 8.84344 6.34315 7.34315C7.84344 5.84285 9.87827 5 12 5H36ZM30.4 23.572C30.0212 23.2007 29.5105 22.9951 28.9802 23.0004C28.4499 23.0056 27.9433 23.2213 27.572 23.6C27.1064 24.0753 26.5507 24.4529 25.9373 24.7107C25.324 24.9685 24.6653 25.1013 24 25.1013C23.3347 25.1013 22.676 24.9685 22.0627 24.7107C21.4493 24.4529 20.8936 24.0753 20.428 23.6C20.0548 23.2301 19.551 23.0219 19.0255 23.0204C18.5 23.019 17.9951 23.2244 17.6199 23.5923C17.2446 23.9601 17.0292 24.4609 17.0203 24.9863C17.0113 25.5117 17.2095 26.0195 17.572 26.4C18.41 27.2551 19.4101 27.9344 20.5138 28.3981C21.6176 28.8619 22.8028 29.1007 24 29.1007C25.1972 29.1007 26.3824 28.8619 27.4862 28.3981C28.5899 27.9344 29.59 27.2551 30.428 26.4C30.7993 26.0212 31.0049 25.5105 30.9996 24.9802C30.9944 24.4499 30.7787 23.9433 30.4 23.572ZM19.02 15H19C18.4696 15 17.9609 15.2107 17.5858 15.5858C17.2107 15.9609 17 16.4696 17 17C17 17.5304 17.2107 18.0391 17.5858 18.4142C17.9609 18.7893 18.4696 19 19 19H19.02C19.5504 19 20.0591 18.7893 20.4342 18.4142C20.8093 18.0391 21.02 17.5304 21.02 17C21.02 16.4696 20.8093 15.9609 20.4342 15.5858C20.0591 15.2107 19.5504 15 19.02 15ZM29.02 15H29C28.4696 15 27.9609 15.2107 27.5858 15.5858C27.2107 15.9609 27 16.4696 27 17C27 17.5304 27.2107 18.0391 27.5858 18.4142C27.9609 18.7893 28.4696 19 29 19H29.02C29.5504 19 30.0591 18.7893 30.4342 18.4142C30.8093 18.0391 31.02 17.5304 31.02 17C31.02 16.4696 30.8093 15.9609 30.4342 15.5858C30.0591 15.2107 29.5504 15 29.02 15Z" fill="white"/>
</svg>
 