<svg width="48" height="48" viewBox="0 0 48 48" fill="none" xmlns="http://www.w3.org/2000/svg">
<rect width="48" height="48" rx="4" fill="white"/>
<g clip-path="url(#clip0_2537_990)">
<path d="M23.4835 28.6484C26.0929 28.6484 28.2082 26.5331 28.2082 23.9237C28.2082 21.3143 26.0929 19.199 23.4835 19.199C20.8741 19.199 18.7588 21.3143 18.7588 23.9237C18.7588 26.5331 20.8741 28.6484 23.4835 28.6484Z" fill="#343434"/>
<path d="M4.18589 18.9143C4.18589 18.9712 4.12891 19.085 4.12891 19.142C4.12891 19.6542 4.52735 20.1097 5.09661 20.1097H13.123C13.5215 20.1097 13.8061 19.882 13.9769 19.5404C15.6279 15.8972 19.271 13.4494 23.4263 13.4494C29.1757 13.4494 33.8436 18.1173 33.8436 23.8667C33.8436 29.6161 29.1757 34.284 23.4263 34.284C19.2139 34.284 15.6277 31.7793 13.9769 28.2499C13.8061 27.8515 13.5215 27.6237 13.1229 27.6237H5.09692C4.5845 27.6237 4.12906 28.0221 4.12906 28.5915C4.12906 28.6484 4.12906 28.7622 4.18605 28.8192C6.40609 37.4717 14.2047 43.8473 23.4835 43.8473C34.47 43.8473 43.4071 34.91 43.4071 23.9237C43.407 12.9371 34.4697 4 23.4833 4C14.2047 4 6.40593 10.3756 4.18589 18.9143Z" fill="#343434"/>
</g>
<defs>
<clipPath id="clip0_2537_990">
<rect width="39.536" height="40" fill="white" transform="translate(4 4)"/>
</clipPath>
</defs>
</svg>
