<svg width="48" height="48" viewBox="0 0 48 48" fill="none" xmlns="http://www.w3.org/2000/svg">
<rect width="48" height="48" rx="4" fill="white"/>
<path d="M4.27821 28.9363C4.83641 28.9165 5.38162 29.1283 5.79053 29.5253C5.85544 29.5716 5.85544 29.6511 5.80351 29.7239L5.31022 30.24C5.26479 30.2864 5.19988 30.2864 5.15445 30.24C4.92078 30.0283 4.62222 29.9158 4.30417 29.9158C3.59021 29.9158 3.07744 30.518 3.07744 31.2327C3.07744 31.9474 3.60319 32.5232 4.30417 32.5232C4.60923 32.5232 4.90131 32.4173 5.14147 32.2254C5.1869 32.1857 5.26479 32.1857 5.29724 32.2386L5.79053 32.7614C5.83596 32.8077 5.82947 32.8872 5.77755 32.96C5.34917 33.3835 4.81693 33.5556 4.25874 33.5556C3.00605 33.5556 2 32.543 2 31.2658C2 29.9886 3.03201 28.976 4.2847 28.976L4.27821 28.9363ZM8.45169 28.9363C9.6914 28.9363 10.6974 29.9621 10.6974 31.2261V31.2327C10.7104 32.4901 9.71736 33.5158 8.48414 33.5225C8.47116 33.5225 8.45818 33.5225 8.4452 33.5225C7.21198 33.5357 6.20593 32.5232 6.19944 31.2658C6.19944 31.2526 6.19944 31.2393 6.19944 31.2261C6.19944 29.9753 7.20549 28.943 8.45169 28.9363ZM8.45169 32.4967C9.13321 32.4901 9.6914 31.9276 9.70438 31.2327C9.69789 30.5312 9.1397 29.9621 8.45169 29.9555C7.76368 29.9687 7.21198 30.5312 7.21198 31.2327C7.21198 31.921 7.78964 32.4967 8.45169 32.4967ZM11.4633 29.1283C11.4633 29.0621 11.5088 29.0025 11.5737 29.0025H13.0925C14.2933 29.0025 15.2928 30.0018 15.2928 31.2327C15.2928 32.4702 14.3127 33.4761 13.099 33.4761H11.5802C11.5153 33.4761 11.4698 33.41 11.4698 33.3504L11.4633 29.1283ZM13.0471 32.5364C13.761 32.5364 14.2608 31.9739 14.2608 31.2459C14.2608 30.518 13.748 29.9555 13.0471 29.9555H12.4629V32.5364H13.0471ZM16.0652 29.1283C16.0652 29.0621 16.1106 29.0025 16.1885 29.0025H18.7783C18.8432 29.0025 18.9016 29.0555 18.9016 29.1283V29.8297C18.9016 29.8959 18.8562 29.9555 18.7783 29.9555H17.0453V30.743H18.4732C18.5381 30.743 18.5965 30.8092 18.5965 30.8687V31.5702C18.5965 31.6364 18.5446 31.696 18.4732 31.696H17.0453V32.5629H18.7783C18.8432 32.5629 18.9016 32.6158 18.9016 32.6886V33.3901C18.9016 33.4563 18.8562 33.5158 18.7783 33.5158H16.1885C16.1236 33.5158 16.0652 33.4629 16.0652 33.3901V29.1283ZM23.0491 28.9363C23.6073 28.9165 24.1525 29.1283 24.5614 29.5253C24.6263 29.5716 24.6263 29.6511 24.5744 29.7239L24.0811 30.24C24.0357 30.2864 23.9708 30.2864 23.9254 30.24C23.6917 30.0283 23.3931 29.9158 23.0751 29.9158C22.3611 29.9158 21.8484 30.518 21.8484 31.2327C21.8484 31.9474 22.3741 32.5232 23.0751 32.5232C23.3801 32.5232 23.6722 32.4173 23.9124 32.2254C23.9578 32.1857 24.0357 32.1857 24.0682 32.2386L24.5614 32.7614C24.6069 32.8077 24.6004 32.8872 24.5485 32.96C24.1201 33.3835 23.5878 33.5556 23.0296 33.5556C21.777 33.5556 20.7709 32.543 20.7709 31.2658C20.7709 29.9886 21.8029 28.976 23.0556 28.976L23.0491 28.9363ZM25.3079 29.1283C25.3079 29.0621 25.3533 29.0025 25.4312 29.0025H26.1776C26.2425 29.0025 26.3009 29.0687 26.3009 29.1283V32.5364H27.7873C27.8522 32.5364 27.9106 32.5894 27.9106 32.6622V33.3636C27.9106 33.4298 27.8652 33.4894 27.7873 33.4894H25.4636C25.3987 33.4894 25.3403 33.4364 25.3403 33.3636V29.1349H25.3273L25.3079 29.1283ZM28.5142 29.1283C28.5142 29.0621 28.5791 29.0025 28.6376 29.0025H29.384C29.4489 29.0025 29.5073 29.0687 29.5073 29.1283V33.3438C29.5073 33.41 29.4424 33.4695 29.384 33.4695H28.6376C28.5727 33.4695 28.5142 33.4033 28.5142 33.3438V29.1283ZM31.0066 29.0555C31.0196 28.9893 31.0715 28.9562 31.117 28.9562H31.2143C31.2533 28.9562 31.2987 28.9827 31.3247 29.0224L32.7721 31.7754H32.7851L34.2325 29.0224C34.2584 28.9827 34.2974 28.9628 34.3428 28.9562H34.4402C34.4856 28.9562 34.5505 29.0025 34.5505 29.0555L35.2645 33.3372C35.2775 33.4232 35.2191 33.4761 35.1412 33.4761H34.4077C34.3428 33.4761 34.2974 33.4298 34.2844 33.3769L33.9988 31.4114H33.9858L32.9408 33.4629C32.9149 33.5026 32.8695 33.5357 32.8305 33.5357H32.7202C32.6812 33.5357 32.6358 33.496 32.6098 33.4629L31.5519 31.3982H31.5389L31.2663 33.3636C31.2533 33.41 31.2014 33.4629 31.1429 33.4629H30.4095C30.3381 33.4629 30.2732 33.3967 30.2862 33.3239L31.0066 29.0555ZM35.4982 33.3107L37.4518 29.0158C37.4778 28.976 37.5167 28.943 37.5622 28.943H37.6271C37.6725 28.943 37.7115 28.9827 37.7374 29.0158L39.6911 33.3107C39.73 33.3967 39.6781 33.4695 39.5808 33.4695H38.8798C38.7694 33.4695 38.724 33.4298 38.6591 33.3107L38.4384 32.8077H36.7444L36.5237 33.3239C36.4847 33.3967 36.4263 33.4761 36.303 33.4761H35.615C35.5176 33.4695 35.4657 33.3835 35.4982 33.3107ZM38.0684 31.9276L37.5881 30.8754H37.5752L37.1078 31.9276H38.0684ZM40.5479 29.9224H39.6522C39.5873 29.9224 39.5288 29.8694 39.5288 29.7967V29.0952C39.5288 29.029 39.5743 28.9694 39.6522 28.9694H42.4237C42.4886 28.9694 42.547 29.0224 42.547 29.0952V29.8099C42.547 29.8761 42.5015 29.9356 42.4237 29.9356H41.528V33.3636C41.528 33.4298 41.463 33.4894 41.4046 33.4894H40.6582C40.5933 33.4894 40.5349 33.4232 40.5349 33.3636V29.9422L40.5479 29.9224ZM43.1636 29.1084C43.1636 29.0422 43.209 28.9827 43.2869 28.9827H45.8767C45.9416 28.9827 46 29.0356 46 29.1084V29.8099C46 29.8761 45.9546 29.9356 45.8767 29.9356H44.1437V30.7231H45.5716C45.6365 30.7231 45.6949 30.7893 45.6949 30.8489V31.5504C45.6949 31.6165 45.643 31.6761 45.5716 31.6761H44.1437V32.5364H45.8767C45.9416 32.5364 46 32.5894 46 32.6622V33.3636C46 33.4298 45.9546 33.4894 45.8767 33.4894H43.2869C43.222 33.4894 43.1636 33.4364 43.1636 33.3636V29.1084ZM27.6575 14L23.5294 18.1891L25.9634 20.7104L27.6445 18.9964L32.3632 23.8142L34.7907 21.3127L27.6575 14ZM22.7765 18.9501L20.336 16.4751L13.1899 23.7877L15.6368 26.2826L16.6039 25.2899L20.3685 21.4781L25.0872 26.2892L27.5406 23.7877L22.8025 18.9567L22.7765 18.9501Z" fill="#0B2734"/>
</svg>
