<svg width="48" height="48" viewBox="0 0 48 48" fill="none" xmlns="http://www.w3.org/2000/svg">
<rect width="48" height="48" rx="4" fill="#00AFB9"/>
<rect x="4" y="12.7805" width="17.9059" height="21.9512" rx="2" fill="white"/>
<path d="M10.5977 26.0447V21.4674C10.5977 21.1017 10.9773 20.8597 11.3088 21.0141L16.2217 23.3028C16.6068 23.4822 16.6068 24.0298 16.2217 24.2093L11.3088 26.4979C10.9773 26.6523 10.5977 26.4104 10.5977 26.0447Z" fill="#D05757"/>
<rect x="26.0938" y="12.7808" width="17.9059" height="21.9512" rx="2" fill="white"/>
<path d="M32.6914 26.0449V21.4676C32.6914 21.102 33.0711 20.86 33.4025 21.0144L38.3154 23.303C38.7006 23.4825 38.7006 24.0301 38.3154 24.2095L33.4025 26.4982C33.0711 26.6526 32.6914 26.4106 32.6914 26.0449Z" fill="#29C999"/>
<path d="M23.8945 4L23.8945 44" stroke="white" stroke-width="1.3" stroke-linecap="round" stroke-dasharray="2 2"/>
</svg>
