<svg width="48" height="48" viewBox="0 0 48 48" fill="none" xmlns="http://www.w3.org/2000/svg">
<rect width="48" height="48" rx="4" fill="white"/>
<g clip-path="url(#clip0_2537_972)">
<path d="M5.43479 34.3144C5.0226 34.9858 4.55575 35.7727 4.18727 36.3957C4.10608 36.5347 4.05456 36.6893 4.03113 36.8485C4.0089 37.0084 4.01738 37.1711 4.05612 37.3279C4.09359 37.4856 4.16229 37.6323 4.25597 37.7635C4.34965 37.8946 4.46831 38.007 4.60415 38.0945L12.884 43.1986C13.0261 43.2876 13.1869 43.3469 13.354 43.3734C13.5195 43.4 13.6912 43.3937 13.8552 43.3531C14.0191 43.3125 14.1737 43.2407 14.3095 43.1408C14.4454 43.0409 14.5594 42.9144 14.6452 42.7692C14.9794 42.2133 15.4025 41.4936 15.8568 40.7254C19.1388 35.3434 22.4645 36.0023 28.4055 38.8268L36.6182 42.7208C36.7719 42.7945 36.939 42.8366 37.1093 42.8443C37.2797 42.8521 37.4498 42.8255 37.6097 42.7661C37.7689 42.7067 37.9157 42.6162 38.039 42.4991C38.1639 42.382 38.2623 42.2414 38.331 42.0853L42.2734 33.1965C42.3406 33.0466 42.378 32.8858 42.3827 32.7219C42.389 32.5595 42.3624 32.3955 42.3062 32.2425C42.25 32.0895 42.1657 31.9474 42.0564 31.8256C41.9471 31.7039 41.816 31.6055 41.6676 31.5321C39.9361 30.7171 36.4902 29.1136 33.4018 27.6022C22.1679 22.1827 12.6889 22.5402 5.43479 34.3144Z" fill="url(#paint0_linear_2537_972)"/>
<path d="M42.5591 14.109C42.976 13.4376 43.4428 12.6522 43.8066 12.0292C43.8894 11.8872 43.944 11.7295 43.9674 11.5655C43.9908 11.4031 43.9815 11.2361 43.9409 11.0768C43.8994 10.9172 43.8273 10.7671 43.7285 10.6349C43.63 10.5024 43.5064 10.3905 43.3647 10.3055L35.0974 5.20143C34.9537 5.11243 34.7945 5.0531 34.6274 5.02655C34.4603 5.00001 34.2901 5.00782 34.1262 5.04685C33.9622 5.08745 33.8077 5.15927 33.6718 5.2592C33.536 5.35912 33.422 5.48559 33.3346 5.6308C33.0083 6.18664 32.5773 6.90643 32.123 7.67461C28.8285 13.0816 25.534 12.4227 19.5868 9.59821L11.3819 5.70262C11.2289 5.62924 11.0634 5.58552 10.8948 5.57615C10.7261 5.56522 10.556 5.5902 10.3967 5.64641C10.2374 5.70262 10.0907 5.79006 9.96576 5.90404C9.83929 6.01802 9.73937 6.15541 9.66754 6.30843L5.72512 15.2222C5.58962 15.5246 5.57675 15.8677 5.68921 16.1793C5.74542 16.3339 5.83129 16.476 5.94058 16.5978C6.04988 16.7196 6.18259 16.8195 6.33092 16.8913C8.06871 17.7079 11.5146 19.3098 14.5967 20.8228C25.801 26.2407 35.3097 25.8847 42.5591 14.109Z" fill="url(#paint1_linear_2537_972)"/>
</g>
<defs>
<linearGradient id="paint0_linear_2537_972" x1="42.008" y1="45.8416" x2="16.9949" y2="31.4664" gradientUnits="userSpaceOnUse">
<stop stop-color="#0052CC"/>
<stop offset="0.92" stop-color="#2380FB"/>
<stop offset="1" stop-color="#2684FF"/>
</linearGradient>
<linearGradient id="paint1_linear_2537_972" x1="5.98477" y1="2.57679" x2="31.0039" y2="16.952" gradientUnits="userSpaceOnUse">
<stop stop-color="#0052CC"/>
<stop offset="0.92" stop-color="#2380FB"/>
<stop offset="1" stop-color="#2684FF"/>
</linearGradient>
<clipPath id="clip0_2537_972">
<rect width="40" height="38.4" fill="white" transform="translate(4 5)"/>
</clipPath>
</defs>
</svg>
