<svg width="48" height="48" viewBox="0 0 48 48" fill="none" xmlns="http://www.w3.org/2000/svg">
<rect width="48" height="48" rx="4" fill="white"/>
<g clip-path="url(#clip0_2537_954)">
<path d="M4.89844 9.16624C4.89844 9.24932 5.51423 10.4956 5.58754 10.5591C5.6022 10.5738 5.66574 10.6715 5.72927 10.779C5.79281 10.8866 5.90033 11.0283 5.95897 11.0967C6.02251 11.1651 6.07138 11.2336 6.07138 11.2482C6.07138 11.2629 6.11537 11.3313 6.17401 11.3948C6.22777 11.4584 6.38905 11.6441 6.5259 11.8054C7.15635 12.5384 8.06538 13.3888 9.02817 14.1415C9.0575 14.161 9.1308 14.2197 9.19434 14.2734C9.25787 14.3272 9.32629 14.3712 9.34096 14.3712C9.35562 14.3712 9.42893 14.42 9.49246 14.4787C9.6684 14.6351 9.84434 14.7573 10.768 15.3731C11.6233 15.94 11.638 15.9546 11.985 16.1599C12.1071 16.2332 12.2342 16.3261 12.2684 16.3603C12.3026 16.3945 12.3564 16.4238 12.3808 16.4238C12.415 16.4238 12.9087 16.7024 13.1579 16.8637C13.197 16.893 13.285 16.9419 13.3534 16.9712C13.5293 17.0592 14.5068 17.6505 14.7951 17.846C15.626 18.4032 16.6767 19.3562 16.9944 19.8302C17.1264 20.0306 17.2143 20.0942 17.2143 19.9866C17.2143 19.9231 17.014 19.5566 16.9358 19.4637C16.9015 19.4295 16.8722 19.3757 16.8722 19.3513C16.8722 19.2975 16.579 18.8186 16.491 18.7257C16.4568 18.6866 16.3884 18.5987 16.3444 18.5302C16.2124 18.3299 16.0512 18.149 15.5527 17.6456C14.9515 17.0494 14.8831 16.9956 14.0376 16.3652C13.6466 16.0768 13.3094 15.8227 13.2801 15.7983C13.2557 15.7787 13.1432 15.7054 13.0357 15.6419C12.9282 15.5783 12.8305 15.5099 12.8158 15.4952C12.8011 15.4806 12.7034 15.4122 12.5959 15.3486C12.4884 15.2851 12.1805 15.0896 11.9117 14.9137C11.3692 14.5569 11.2763 14.4982 11.1199 14.4152C11.0564 14.3809 11.0075 14.337 11.0075 14.3125C11.0075 14.293 10.9831 14.2734 10.9586 14.2734C10.9293 14.2734 10.812 14.205 10.6996 14.1219C10.509 13.9851 9.92254 13.5697 9.72216 13.4328C9.6684 13.3986 9.58532 13.3302 9.53156 13.2813C9.47291 13.2373 9.41427 13.1982 9.3996 13.1982C9.38494 13.1982 9.31652 13.1494 9.2481 13.0858C9.17968 13.0272 8.98907 12.8708 8.82291 12.7437C8.65674 12.6166 8.49057 12.4847 8.45636 12.4505C8.42215 12.4163 8.27065 12.2941 8.12403 12.1768C7.49357 11.6832 5.34318 9.62075 5.12814 9.30308C5.03528 9.16624 4.89844 9.08316 4.89844 9.16624Z" fill="#DA1B1B"/>
<path d="M9.48269 10.0508C9.44359 10.0899 9.49735 10.2659 9.54622 10.2659C9.57066 10.2659 9.5902 10.2903 9.5902 10.3245C9.5902 10.3978 9.94209 11.1016 10.0203 11.1847C10.0496 11.2189 10.0789 11.2678 10.0789 11.2922C10.0789 11.3557 10.4992 11.9618 10.7045 12.1915C11.1932 12.7388 12.0827 13.5648 12.4248 13.7896C12.4932 13.8336 12.6154 13.9313 12.6936 13.9998C12.7767 14.0731 12.9282 14.1904 13.0357 14.2637C13.1432 14.337 13.2752 14.4347 13.3241 14.4787C13.3778 14.5276 13.5098 14.6253 13.6173 14.6986C13.7297 14.7768 13.8617 14.8746 13.9105 14.9186C13.9643 14.9674 14.0963 15.0652 14.2038 15.1385C14.3162 15.2118 14.4139 15.2851 14.4286 15.2998C14.4433 15.3144 14.6094 15.4464 14.7951 15.593C14.9857 15.7396 15.1617 15.8814 15.191 15.9107C15.2203 15.9351 15.4158 16.1111 15.626 16.3017C16.3395 16.9419 16.8869 17.5381 17.2192 18.0366C17.5418 18.5254 17.6688 18.7404 17.9572 19.2975C18.1087 19.6006 18.3335 20.0013 18.4459 20.1919C18.5632 20.3825 18.7098 20.6269 18.7734 20.7393C18.8369 20.8517 18.92 20.9739 18.9591 21.0081C18.9933 21.0423 19.0226 21.0961 19.0226 21.1205C19.0226 21.1449 19.0471 21.1938 19.0715 21.228C19.1008 21.2622 19.3305 21.6043 19.5895 21.9953C20.4155 23.2465 21.5493 24.2435 22.6636 24.6882C23.1914 24.8983 24.296 24.9814 25.7426 24.9179C26.7494 24.8788 27.9028 24.9081 28.1031 24.9814C28.1667 25.0059 28.3084 25.0254 28.4208 25.0254C28.5332 25.0303 28.7141 25.0596 28.8216 25.0987C28.9291 25.1378 29.061 25.172 29.1148 25.172C29.1686 25.172 29.2761 25.2062 29.3543 25.2453C29.4276 25.2844 29.5253 25.3186 29.5644 25.3186C29.6426 25.3186 29.9114 25.4359 30.5321 25.739C31.4265 26.1837 32.1498 26.7115 32.9122 27.4788C33.4205 27.992 33.44 28.0066 33.4694 27.8796C33.5085 27.7281 33.4596 27.21 33.396 27.0927C33.3716 27.0439 33.2983 26.8923 33.2348 26.7604C33.1126 26.4867 32.8829 26.1593 32.5408 25.7634C32.4088 25.6021 32.316 25.4457 32.316 25.3773C32.316 25.1769 32.1254 24.8641 31.9005 24.698C31.6171 24.4878 30.7472 24.048 30.6152 24.048C30.5908 24.048 30.5028 24.0138 30.4295 23.9747C30.3513 23.9356 30.2487 23.9013 30.1998 23.9013C30.1558 23.9013 30.0776 23.8818 30.0287 23.8574C29.9847 23.8329 29.7795 23.7645 29.5791 23.7059C28.9095 23.5055 28.4795 23.354 28.328 23.2611C28.1667 23.1634 28.0152 22.9092 28.0152 22.7382C28.0152 22.6111 28.2009 22.0344 28.2595 21.9758C28.2889 21.9464 28.3084 21.8927 28.3084 21.8536C28.3084 21.8096 28.3377 21.7167 28.3768 21.6434C28.4159 21.575 28.4697 21.36 28.5039 21.1694C28.6652 20.2212 28.152 19.6152 26.5001 18.7893C26.2802 18.6818 25.8794 18.5009 25.6937 18.4227C25.64 18.4032 25.4933 18.3396 25.3663 18.2859C25.2392 18.2272 25.1024 18.1833 25.0633 18.1833C25.0242 18.1833 24.9753 18.1588 24.9606 18.1344C24.946 18.1051 24.8971 18.0855 24.8531 18.0855C24.814 18.0855 24.7114 18.0562 24.6283 18.0171C24.5403 17.978 24.12 17.8314 23.6899 17.6945C23.2599 17.5528 22.8738 17.4208 22.8298 17.4013C22.7858 17.3769 22.6636 17.3426 22.561 17.3231C22.4535 17.3084 22.3508 17.2742 22.3215 17.2547C22.2971 17.2351 22.1944 17.2009 22.1016 17.1862C22.0087 17.1667 21.8866 17.1325 21.8328 17.1081C21.779 17.0885 21.6373 17.0445 21.5151 17.0103C21.3929 16.981 21.2072 16.9321 21.0997 16.9077C20.9922 16.8784 20.8602 16.8344 20.8065 16.8148C20.7527 16.7904 20.6305 16.7562 20.5377 16.7366C20.4448 16.722 20.3373 16.6877 20.2933 16.6682C20.2542 16.6487 20.0538 16.5802 19.8535 16.5216C19.6531 16.4629 19.4527 16.3994 19.4136 16.3799C19.3696 16.3554 19.2621 16.3212 19.1692 16.3017C19.0764 16.2821 18.9786 16.2528 18.9493 16.2332C18.9249 16.2137 18.7343 16.1453 18.5339 16.0817C18.3335 16.0231 18.1478 15.9547 18.1185 15.9351C18.094 15.9156 17.9279 15.852 17.7519 15.7885C17.576 15.725 17.4147 15.6565 17.3903 15.6321C17.3609 15.6126 17.3121 15.593 17.273 15.593C17.1752 15.593 16.7158 15.3828 15.5527 14.8159C14.7365 14.4152 13.9839 14.0046 13.8177 13.8727C13.7932 13.8531 13.5929 13.7212 13.3778 13.5795C13.1628 13.4377 12.9673 13.3058 12.938 13.2862C12.9135 13.2667 12.6838 13.0956 12.4297 12.905C11.5451 12.2452 10.2598 11.0088 9.71727 10.2903C9.61464 10.1535 9.52667 10.0411 9.52178 10.0313C9.51201 10.0264 9.49735 10.0362 9.48269 10.0508ZM31.3385 24.8592C31.837 25.0254 31.9983 25.1525 32.1156 25.4506C32.2329 25.739 32.0374 25.8074 31.7979 25.5581C31.7197 25.475 31.578 25.3626 31.4851 25.304C31.3923 25.2453 31.2848 25.172 31.2505 25.1378C31.2163 25.1036 31.1577 25.0743 31.1186 25.0743C31.055 25.0743 30.9964 24.9717 30.9964 24.8495C30.9964 24.7615 31.0648 24.7615 31.3385 24.8592ZM5.97363 13.1298C5.97363 13.1836 6.38905 14.0046 6.46236 14.0926C6.49168 14.1268 6.59431 14.2588 6.69206 14.3956C7.04883 14.8746 7.60598 15.4464 8.34884 16.0817C8.53456 16.243 9.04283 16.6242 9.20411 16.7268C9.27253 16.7708 9.3605 16.8393 9.3996 16.8735C9.4387 16.9126 9.55599 16.9956 9.66351 17.0592C9.77103 17.1227 9.86878 17.1911 9.88344 17.2058C9.91276 17.2449 11.3545 18.1002 11.8139 18.3543C12.1756 18.5596 12.5665 18.7551 13.9399 19.4246C14.7463 19.8205 14.8978 19.8987 15.4891 20.2554C15.9339 20.5242 16.6474 21.0814 17.0042 21.4382C17.2046 21.6385 17.3756 21.7998 17.3854 21.7998C17.4 21.7998 17.3805 21.7461 17.3512 21.6776C17.3218 21.6092 17.2779 21.5555 17.2534 21.5555C17.2339 21.5555 17.2143 21.5261 17.2143 21.4919C17.2143 21.4528 17.1703 21.3697 17.1166 21.3062C17.0628 21.2427 17.0042 21.1645 16.9846 21.14C16.6279 20.6709 16.3346 20.3874 15.4354 19.625C15.3132 19.5175 14.5068 18.9701 14.1305 18.7355C13.8323 18.5449 13.2312 18.2077 12.6203 17.8802C12.4737 17.7972 12.332 17.7141 12.3026 17.6945C12.2586 17.6603 12.0485 17.5479 11.3496 17.1667C10.9098 16.9321 9.79547 16.243 9.61464 16.0964C9.5902 16.072 9.4778 15.9986 9.37028 15.9351C9.26276 15.8716 9.15524 15.7983 9.12592 15.7787C9.10148 15.7592 8.83757 15.5637 8.53944 15.3438C8.24621 15.1238 7.99207 14.9283 7.97741 14.9137C7.96275 14.8941 7.84545 14.7964 7.70861 14.6937C7.43492 14.4885 7.08304 14.1659 6.42815 13.5208C6.1789 13.2764 5.97363 13.1005 5.97363 13.1298ZM11.5256 21.8829C11.4767 21.9318 12.2977 22.6942 12.8402 23.0998C13.109 23.3002 13.3534 23.481 13.3778 23.5006C13.5049 23.5983 13.9448 23.8525 13.9839 23.8525C14.0083 23.8525 14.062 23.8818 14.0963 23.9111C14.1305 23.9453 14.238 24.0089 14.3308 24.0577C14.9809 24.3656 15.2594 24.4878 15.3278 24.4878C15.3669 24.4878 15.4109 24.5074 15.4256 24.5269C15.4647 24.5904 17.0042 25.0743 17.1752 25.0743C17.2241 25.0743 17.3023 25.0938 17.3512 25.1232C17.3952 25.1476 17.532 25.1916 17.6542 25.216C18.0794 25.3089 18.314 25.3675 18.4117 25.4115C18.4655 25.4359 18.6756 25.5044 18.876 25.5679C19.0764 25.6314 19.2621 25.695 19.2914 25.7194C19.3159 25.739 19.3647 25.7585 19.4038 25.7585C19.4429 25.7585 19.5407 25.7878 19.6237 25.8269C20.4253 26.1739 20.6403 26.257 20.6696 26.2326C20.6843 26.213 20.6354 26.1495 20.5572 26.0908C20.435 25.9931 20.22 25.8025 19.7557 25.3675C19.6824 25.2991 19.5504 25.1818 19.4625 25.1036C19.2181 24.8935 18.1918 24.131 17.9719 23.9991C17.8643 23.9356 17.7666 23.8671 17.7519 23.8525C17.7373 23.8329 17.6933 23.8036 17.6542 23.784C17.6151 23.7645 17.4489 23.6765 17.2876 23.5837C16.9846 23.4077 16.3639 23.0998 16.017 22.9532C15.9094 22.9092 15.7873 22.8506 15.7482 22.831C15.7042 22.8066 15.6015 22.7724 15.5136 22.7577C15.4305 22.7382 15.3474 22.6991 15.3327 22.6746C15.3132 22.6502 15.2545 22.6307 15.1959 22.6307C15.0884 22.6355 15.0884 22.6355 15.1861 22.6893C15.2399 22.7186 15.2936 22.7577 15.3083 22.7773C15.323 22.7919 15.4305 22.8652 15.5527 22.9386C15.8117 23.0901 16.2858 23.5104 16.2858 23.5886C16.2858 23.6179 16.2515 23.6716 16.2124 23.7059C16.1538 23.7547 16.0121 23.7498 15.5038 23.6863C15.1519 23.6423 14.8147 23.5837 14.756 23.5592C14.6974 23.5397 14.5263 23.481 14.3797 23.4371C13.6173 23.2074 12.0827 22.357 11.638 21.922C11.594 21.8829 11.5451 21.8634 11.5256 21.8829Z" fill="#DA1B1B"/>
<path d="M19.8777 24.4047C20.7916 25.2453 23.1326 27.6352 23.2792 27.8698C23.3378 27.9577 23.2694 28.0555 23.157 28.0555C23.1032 28.0506 22.9664 28.0115 22.8589 27.9577C22.7514 27.904 22.6487 27.8649 22.6292 27.86C22.5656 27.86 22.0818 27.5521 21.9547 27.4348C21.8081 27.298 21.7299 27.2882 21.8179 27.4153C21.9596 27.6205 22.6683 28.3194 23.113 28.7006C23.3134 28.8717 23.8461 29.2382 24.0269 29.3262C24.3202 29.4728 24.3495 29.4972 24.3495 29.5901C24.3495 29.6732 24.3251 29.6781 24.0807 29.6487C23.9341 29.6341 23.8119 29.6341 23.8119 29.6585C23.8119 29.6927 24.1002 29.8344 24.4472 29.9664C24.7014 30.069 25.41 30.0544 25.6104 29.9469C25.6984 29.898 25.8206 29.8638 25.8743 29.8735C25.9818 29.8882 25.9916 29.9029 26.1431 30.2303C26.3288 30.6311 26.7589 31.1833 26.8811 31.1833C26.9055 31.1833 26.9544 31.2127 26.9837 31.2517C27.0424 31.3202 27.7119 31.501 27.751 31.4619C27.7657 31.4472 27.6728 31.3593 27.5507 31.2615C27.2085 31.0025 27.0424 30.7581 27.0375 30.5187C27.0375 30.2596 27.145 30.0495 27.3698 29.8735C27.6973 29.6243 27.8976 29.5559 28.3766 29.551C28.7676 29.551 28.8458 29.5608 29.0168 29.6683C29.1243 29.7318 29.2416 29.8198 29.2759 29.8638C29.3687 29.9762 29.53 30.3476 29.53 30.4551C29.53 30.6213 29.6228 30.5529 29.6571 30.3623C29.7255 29.9908 29.7059 29.5901 29.6131 29.4826C29.4811 29.3359 29.1243 29.2431 28.577 29.204C27.6435 29.1453 27.1694 28.9889 26.7491 28.6077C26.3142 28.2168 26.3337 28.1728 26.9544 28.1435C27.3943 28.119 27.7706 28.0408 28.0883 27.9089C28.142 27.8844 28.2984 27.816 28.4304 27.7622C28.5672 27.7036 28.8507 27.5716 29.0657 27.469C29.8868 27.078 30.3901 26.9607 31.2308 26.9607C31.8417 26.9607 32.0029 26.9265 31.7781 26.8581C31.7244 26.8434 31.6804 26.8043 31.6804 26.7799C31.6804 26.7555 31.6608 26.7359 31.6364 26.7359C31.5973 26.7359 31.177 26.4818 31.0157 26.3596C30.9424 26.301 30.6687 26.1543 30.2875 25.9686C30.1018 25.8758 29.9063 25.778 29.8623 25.7536C29.8135 25.7291 29.7548 25.7096 29.7304 25.7096C29.7059 25.7096 29.6228 25.6852 29.5447 25.6509C29.3443 25.5679 29.0168 25.475 28.6258 25.3822C28.1273 25.2649 26.2555 25.2697 25.4247 25.3822C24.1882 25.5532 23.9732 25.5728 23.3965 25.5483C22.8051 25.5239 22.5901 25.4848 22.0036 25.3088C21.6468 25.2013 21.5833 25.1769 21.2656 25.0303C21.1435 24.9765 21.0262 24.9276 21.0115 24.9276C20.992 24.9276 20.8356 24.8397 20.6596 24.7321C20.4837 24.6246 20.3273 24.5367 20.3175 24.5367C20.2931 24.5367 19.8825 24.2581 19.6284 24.0626C19.2961 23.8133 19.4183 23.9795 19.8777 24.4047ZM3.45158 34.5018C3.16812 34.5751 2.82112 34.7706 2.59142 34.9856C2.37149 35.1909 2.11247 35.6307 2.11247 35.7969C2.11247 35.836 2.09292 35.8849 2.0636 35.8995C2.00495 35.9386 2.00006 36.8379 2.05871 36.8721C2.07826 36.8868 2.11247 36.9747 2.12713 37.0676C2.20044 37.5123 2.79668 38.1281 3.30985 38.2845C3.60797 38.3774 4.33617 38.3969 4.38504 38.3187C4.39971 38.2943 4.45835 38.2699 4.51211 38.2699C4.7076 38.2699 5.28919 37.9131 5.28919 37.7958C5.28919 37.698 5.19633 37.7176 5.02527 37.8447C4.94219 37.9082 4.79557 37.9962 4.70272 38.0402C4.50722 38.133 3.93053 38.2699 3.85233 38.2454C3.82301 38.2356 3.67639 38.2014 3.52489 38.1721C2.85044 38.0402 2.31773 37.4439 2.21021 36.7059C2.10269 35.9435 2.39593 35.2495 2.9824 34.8781C3.20233 34.7413 3.65195 34.6044 3.88654 34.6044C4.14557 34.6044 4.64896 34.7461 4.85911 34.8781C5.04971 35.0003 5.19144 35.0296 5.19144 34.9465C5.19144 34.883 4.84933 34.6679 4.5952 34.58C4.34595 34.492 3.66662 34.4431 3.45158 34.5018ZM12.1069 34.4871C11.4765 34.6533 10.9926 35.0198 10.7434 35.533C10.6994 35.6258 10.631 35.8604 10.587 36.051C10.5234 36.3638 10.5234 36.442 10.5919 36.7597C10.6358 36.9601 10.714 37.2191 10.7727 37.3364C10.9682 37.7371 11.5986 38.2699 11.887 38.2699C11.9359 38.2699 11.9945 38.2894 12.0092 38.3187C12.0483 38.3823 12.8498 38.3823 12.8889 38.3187C12.9035 38.2894 12.9622 38.2699 13.0159 38.2699C13.3092 38.2699 13.9787 37.7127 14.1547 37.3266C14.3795 36.8379 14.4235 36.3443 14.2866 35.836C14.2182 35.5868 14.1644 35.4792 13.9396 35.1909C13.6904 34.8683 13.6708 34.8537 13.0453 34.5458C12.9426 34.4969 12.2486 34.4529 12.1069 34.4871ZM12.9035 34.6826C13.4265 34.8341 13.8175 35.1762 14.0667 35.704C14.14 35.8555 14.1596 36.0071 14.1596 36.4127C14.1596 36.877 14.1449 36.9552 14.0227 37.1995C13.8663 37.5123 13.5096 37.8935 13.2505 38.0255C13.1528 38.0793 12.9329 38.1526 12.7569 38.1917C12.4735 38.2552 12.4099 38.2552 12.1509 38.1917C11.9945 38.1526 11.7892 38.0841 11.6964 38.0402C11.4374 37.9229 11.0415 37.4977 10.8851 37.1702C10.758 36.9063 10.7434 36.8281 10.7434 36.3883C10.7434 35.9289 10.7531 35.8849 10.9046 35.6063C10.9926 35.445 11.1148 35.2593 11.1686 35.2007C11.3689 34.9856 11.7208 34.7559 11.931 34.707C12.0434 34.6826 12.1509 34.6484 12.1656 34.6337C12.2242 34.5751 12.6347 34.6044 12.9035 34.6826ZM26.4706 34.5702C26.3337 34.6386 26.1773 34.751 26.1187 34.8292C26.06 34.9074 25.9916 34.9954 25.9672 35.0247C25.8939 35.1127 25.8548 35.4695 25.889 35.6845C25.9281 35.9142 26.2115 36.2319 26.4999 36.3736C26.5928 36.4176 26.842 36.5349 27.0522 36.6326C27.2623 36.7304 27.4725 36.8477 27.5164 36.8916C27.6582 37.0334 27.7706 37.2338 27.7706 37.3413C27.7706 37.4341 27.6631 37.6443 27.5507 37.7616C27.4578 37.8593 27.1694 37.9766 27.0179 37.9766C26.7638 37.9766 26.2555 37.7616 26.1529 37.615C26.0991 37.5465 25.9867 37.6101 25.8694 37.7714L25.7668 37.918L26.0063 38.0695C26.1382 38.1477 26.3239 38.2308 26.4217 38.2503C26.5194 38.265 26.6123 38.2992 26.627 38.3236C26.6612 38.3823 27.3649 38.3823 27.404 38.3236C27.4187 38.2992 27.492 38.265 27.5702 38.2454C27.8292 38.1868 28.1273 37.8398 28.186 37.5172C28.2837 37.0138 28.0443 36.6228 27.4871 36.3638C26.754 36.0168 26.6465 35.9582 26.4803 35.7969C26.2849 35.6063 26.2653 35.4841 26.3826 35.2495C26.495 35.0198 26.7198 34.883 27.0228 34.8585C27.2428 34.839 27.3307 34.8585 27.6044 34.9954C27.7804 35.0785 27.9319 35.142 27.9367 35.1322C27.9465 35.1273 27.9905 35.0492 28.0296 34.9661C28.1029 34.8243 28.1029 34.8048 28.0247 34.7413C27.8243 34.5702 27.5898 34.4969 27.1597 34.4725C26.7687 34.4529 26.6905 34.4676 26.4706 34.5702ZM6.94108 34.5409C6.858 34.5604 6.85311 34.6924 6.85311 36.4176C6.85311 38.1379 6.858 38.2747 6.93619 38.2601C7.0095 38.2454 7.01439 38.1672 7.00461 37.4781C6.99484 36.7548 6.99973 36.7108 7.09259 36.6619C7.19522 36.6033 7.99673 36.5935 8.13357 36.6473C8.17756 36.6668 8.2753 36.789 8.34861 36.9259C8.51478 37.2289 8.8129 37.786 8.95952 38.0597C9.06704 38.265 9.24787 38.3529 9.24787 38.1965C9.24787 38.1574 9.22832 38.1232 9.20388 38.1232C9.17944 38.1232 9.13546 38.0646 9.10614 37.9864C9.07681 37.9131 8.95463 37.6785 8.83245 37.4635C8.71027 37.2484 8.58809 37.0138 8.55876 36.9356C8.52944 36.8623 8.48545 36.8037 8.46102 36.8037C8.43658 36.8037 8.41703 36.7499 8.41703 36.6815C8.41703 36.5935 8.45124 36.5447 8.53433 36.5104C8.8911 36.3785 9.1208 35.9973 9.1208 35.533C9.1208 35.274 9.09636 35.1762 8.99373 35.0198C8.82756 34.7559 8.70538 34.6533 8.48057 34.5897C8.28996 34.536 7.09259 34.4969 6.94108 34.5409ZM8.6223 34.8634C8.91553 35.0882 9.02305 35.4157 8.92531 35.7871C8.852 36.0804 8.61252 36.3443 8.3535 36.4176C8.11891 36.486 7.13168 36.4762 7.05837 36.4029C6.97529 36.3198 6.97529 34.8439 7.05837 34.7608C7.09747 34.7217 7.32717 34.7022 7.76214 34.7022H8.40726L8.6223 34.8634ZM17.6588 34.707C17.6051 34.8146 17.5513 34.971 17.5318 35.0589C17.5171 35.1469 17.4829 35.2593 17.4585 35.3131C17.4389 35.3668 17.3949 35.5086 17.3607 35.6307C17.3314 35.7529 17.2776 35.9582 17.2385 36.095C17.087 36.6326 17.0088 36.9356 16.96 37.1458C16.9355 37.268 16.8915 37.3853 16.8671 37.4097C16.8427 37.439 16.8231 37.5074 16.8231 37.5661C16.8231 37.6296 16.7987 37.7371 16.7694 37.8153L16.7156 37.9522L16.5983 37.8153C16.5348 37.742 16.481 37.6199 16.481 37.5465C16.481 37.4732 16.4566 37.3364 16.4273 37.2435C16.3979 37.1507 16.3442 36.9503 16.31 36.8037C16.2709 36.6571 16.2073 36.4029 16.1633 36.2416C16.0851 35.9484 15.9923 35.5819 15.875 35.1176C15.8408 34.9807 15.7968 34.8341 15.7821 34.7852C15.7626 34.7413 15.7381 34.6679 15.7235 34.6288C15.6893 34.5116 15.6013 34.5458 15.6013 34.6728C15.6013 34.7364 15.6453 34.927 15.699 35.0931C15.7528 35.2593 15.7968 35.4401 15.7968 35.489C15.7968 35.5428 15.8163 35.621 15.8457 35.6698C15.8701 35.7138 15.9141 35.8604 15.9434 35.9973C16.0705 36.5447 16.1145 36.7304 16.1438 36.7792C16.1633 36.8037 16.1878 36.9161 16.2073 37.0236C16.2269 37.1311 16.2611 37.2826 16.2855 37.3657C16.3148 37.4439 16.3833 37.6834 16.4419 37.8886C16.5201 38.1672 16.569 38.2699 16.6276 38.2699C16.7498 38.2699 16.8573 38.1232 16.8964 37.9033C16.916 37.7958 16.9453 37.6834 16.9697 37.6589C16.9893 37.6296 17.0284 37.5123 17.0577 37.3901C17.087 37.268 17.1408 37.048 17.1848 36.9014C17.2239 36.7548 17.2825 36.5349 17.3118 36.4127C17.3412 36.2905 17.3852 36.1586 17.4047 36.1195C17.4291 36.0755 17.4633 35.9435 17.4829 35.8262C17.5024 35.7089 17.5367 35.577 17.5611 35.533C17.5806 35.4939 17.6149 35.357 17.6295 35.23C17.6637 34.971 17.7077 34.9172 17.8348 34.9905C17.8885 35.0198 17.9423 35.1469 17.9765 35.3473C18.04 35.6943 18.1329 36.0462 18.1916 36.1928C18.216 36.2465 18.26 36.3883 18.2893 36.5104C18.3186 36.6326 18.3773 36.8525 18.4164 36.9992C18.4604 37.1458 18.5141 37.3559 18.5385 37.4635C18.563 37.571 18.607 37.7029 18.6314 37.7567C18.6607 37.8105 18.6949 37.9424 18.7194 38.0499C18.7536 38.221 18.778 38.2454 18.9051 38.2601C19.0419 38.2747 19.0517 38.2601 19.1055 38.0402C19.1348 37.9131 19.1983 37.6785 19.2374 37.527C19.2814 37.3706 19.3498 37.1213 19.3889 36.9747C19.4622 36.7108 19.5307 36.4567 19.6871 35.8849C19.7262 35.7334 19.7848 35.5086 19.8092 35.3864C19.8337 35.2642 19.8777 35.1322 19.9021 35.0883C19.9754 34.9514 20.0145 34.5555 19.9559 34.5555C19.8728 34.5555 19.7506 34.9025 19.604 35.5819C19.5746 35.704 19.5355 35.8458 19.5111 35.8995C19.4867 35.9533 19.4476 36.095 19.4183 36.2172C19.3938 36.3394 19.3352 36.5593 19.2961 36.7059C19.257 36.8525 19.1934 37.0969 19.1543 37.2435C19.0468 37.6589 18.954 37.9033 18.9051 37.9033C18.8562 37.9033 18.7487 37.6345 18.6461 37.2435C18.607 37.0969 18.5483 36.8623 18.5092 36.7304C18.475 36.5935 18.4164 36.3883 18.387 36.2661C18.3577 36.1439 18.3137 36.0022 18.2893 35.9484C18.2502 35.8507 18.1769 35.5819 18.084 35.1909C18.0547 35.0687 18.0156 34.9465 17.9961 34.9221C17.9765 34.8928 17.9423 34.8048 17.9276 34.7168C17.8739 34.4822 17.7664 34.4773 17.6588 34.707ZM21.6273 34.5409L21.5149 34.5604V38.2796L22.4581 38.2601C23.3232 38.2405 23.4111 38.2308 23.6164 38.1281C23.8461 38.0059 24.3495 37.527 24.3495 37.4244C24.3495 37.3901 24.3886 37.2973 24.4326 37.2191C24.501 37.1018 24.5157 36.9454 24.5157 36.4371C24.5206 35.6943 24.457 35.4988 24.0709 35.0883C23.8021 34.7999 23.5626 34.6728 23.1277 34.5751C22.8344 34.5116 21.8912 34.492 21.6273 34.5409ZM23.3476 34.795C23.9683 35.0149 24.3984 35.6747 24.3984 36.4127C24.3984 37.1507 23.9976 37.7958 23.3867 38.0402C23.0935 38.1574 21.9401 38.221 21.769 38.1281C21.6615 38.0695 21.6615 38.0646 21.6615 36.4469C21.6615 35.2446 21.6762 34.8048 21.7202 34.7608C21.7593 34.7217 21.989 34.7022 22.4288 34.7022C22.9469 34.7022 23.1375 34.7217 23.3476 34.795ZM29.1292 34.6533C29.1195 34.7315 29.1292 34.8195 29.1586 34.8488C29.1879 34.8781 29.4616 34.8976 29.8037 34.8976C30.3022 34.8976 30.4048 34.9123 30.4292 34.9758C30.4439 35.0198 30.4586 35.7774 30.4586 36.6619V38.2747L30.6834 38.2601L30.9082 38.2454L30.9033 36.6326C30.8984 35.7431 30.9131 34.9954 30.9375 34.9612C30.962 34.9221 31.177 34.8976 31.6071 34.8879L32.2424 34.8732V34.5311L30.698 34.5164L29.1488 34.5067L29.1292 34.6533ZM33.43 36.3492C33.4202 37.5417 33.4349 38.2112 33.4642 38.2308C33.4936 38.2503 33.5962 38.2699 33.6988 38.2699H33.8797V37.6052C33.8797 37.2435 33.9041 36.9014 33.9285 36.8477C33.9725 36.7695 34.036 36.7548 34.3684 36.7548H34.7545L34.8815 36.9356C34.95 37.0383 35.0037 37.1458 35.0037 37.1751C35.0037 37.2093 35.0184 37.2435 35.0428 37.2533C35.0624 37.2582 35.1699 37.4537 35.2872 37.6834C35.5804 38.265 35.5853 38.2699 35.8541 38.2699C35.9763 38.2699 36.0789 38.2503 36.0789 38.221C36.0789 38.1965 36.0105 38.0597 35.9274 37.918C35.8443 37.7762 35.7612 37.6247 35.7368 37.5856C35.7124 37.5465 35.6146 37.3608 35.5169 37.1702C35.4191 36.9845 35.3165 36.8135 35.2872 36.7988C35.2285 36.7597 35.2823 36.5593 35.3507 36.5593C35.3752 36.5593 35.4778 36.4811 35.5853 36.3883C35.7857 36.2074 35.9323 35.8653 35.9323 35.577C35.9323 35.3375 35.7759 34.9563 35.6146 34.8048C35.3507 34.5604 35.1112 34.5067 34.2315 34.5067H33.4398L33.43 36.3492ZM35.0917 34.9807C35.3263 35.1176 35.4436 35.3326 35.4436 35.6307C35.4436 35.9435 35.3214 36.1586 35.0624 36.2954C34.8376 36.4176 34.0018 36.4322 33.9285 36.315C33.8748 36.2368 33.865 35.186 33.909 35.0052C33.9383 34.9025 33.9627 34.8976 34.4417 34.8976C34.8278 34.8976 34.9793 34.9172 35.0917 34.9807ZM37.5304 34.5409C37.5109 34.5555 37.4962 35.4059 37.4962 36.4225V38.2699H37.985V34.5067H37.7748C37.6575 34.5067 37.5451 34.5213 37.5304 34.5409ZM39.6955 34.5311V38.221C39.6955 38.2699 39.935 38.2894 40.0474 38.2454C40.0962 38.2259 40.106 38.0548 40.0962 37.4341C40.0865 36.877 40.0962 36.6326 40.1402 36.5789C40.1989 36.5056 40.6534 36.4811 40.7511 36.5495C40.8147 36.5935 41.2594 37.3266 41.2594 37.3901C41.2594 37.4146 41.2887 37.4635 41.3229 37.4977C41.362 37.5319 41.4207 37.6199 41.4598 37.6932C41.4989 37.7616 41.582 37.9229 41.6455 38.045C41.7628 38.265 41.7726 38.2699 41.9974 38.2699C42.2515 38.2699 42.3248 38.2161 42.2173 38.1135C42.1831 38.0744 42.1342 37.9962 42.1196 37.9375C42.1 37.8789 42.0658 37.83 42.0414 37.83C42.0218 37.83 41.9778 37.7714 41.9485 37.6932C41.9143 37.6199 41.8654 37.5172 41.8312 37.4635C41.797 37.4097 41.6651 37.18 41.5282 36.9601C41.103 36.2563 41.1128 36.3736 41.4354 35.836C41.5917 35.577 41.7335 35.3522 41.7579 35.3473C41.7775 35.3375 41.797 35.3033 41.797 35.274C41.797 35.2446 41.8948 35.0736 42.0169 34.8928C42.1391 34.7119 42.2369 34.5506 42.2369 34.536C42.2369 34.5213 42.1342 34.5067 42.0023 34.5067C41.8312 34.5067 41.7481 34.5311 41.6846 34.6044C41.6406 34.6582 41.6015 34.7168 41.6015 34.7315C41.6015 34.7852 41.2448 35.3619 41.2008 35.3766C41.1812 35.3864 41.1617 35.4206 41.1617 35.4499C41.1617 35.4841 41.0737 35.6454 40.9662 35.8116L40.7756 36.1195H40.5068C40.062 36.1195 40.0865 36.1634 40.0865 35.2837V34.5067H39.891C39.7835 34.5067 39.6955 34.5164 39.6955 34.5311ZM43.6542 36.3883V38.2699H46.0001V37.9277H45.1057C44.4752 37.9277 44.1918 37.9082 44.1527 37.8691C44.1136 37.83 44.094 37.6247 44.094 37.2631C44.094 36.5349 44.0745 36.5544 44.8418 36.5642C45.4038 36.5691 45.4331 36.5642 45.4722 36.4665C45.5553 36.2416 45.4967 36.2172 44.8222 36.2172C44.2504 36.2172 44.1918 36.2074 44.1429 36.1243C44.0843 36.0119 44.0745 35.0492 44.1331 34.9612C44.1624 34.9172 44.4068 34.8976 44.9737 34.8879L45.7801 34.8732L45.7948 34.6875L45.8095 34.5067H43.6542V36.3883Z" fill="#DA1B1B"/>
</g>
<defs>
<clipPath id="clip0_2537_954">
<rect width="44" height="29.48" fill="white" transform="translate(2 9)"/>
</clipPath>
</defs>
</svg>
