<svg width="48" height="48" viewBox="0 0 48 48" fill="none" xmlns="http://www.w3.org/2000/svg">
<rect width="48" height="48" rx="4" fill="#20AE1D"/>
<path fill-rule="evenodd" clip-rule="evenodd" d="M28 16V5H12C9.79086 5 8 6.79086 8 9V39C8 41.2091 9.79086 43 12 43H35C37.2091 43 39 41.2091 39 39V16H28ZM17 13.5C17 14.8807 15.8807 16 14.5 16C13.1193 16 12 14.8807 12 13.5C12 12.1193 13.1193 11 14.5 11C15.8807 11 17 12.1193 17 13.5ZM12 21C12 20.4477 12.4477 20 13 20H28C28.5523 20 29 20.4477 29 21V22C29 22.5523 28.5523 23 28 23H13C12.4477 23 12 22.5523 12 22V21ZM12 28C12 27.4477 12.4477 27 13 27H32C32.5523 27 33 27.4477 33 28V29C33 29.5523 32.5523 30 32 30H13C12.4477 30 12 29.5523 12 29V28ZM13 34C12.4477 34 12 34.4477 12 35V36C12 36.5523 12.4477 37 13 37H32C32.5523 37 33 36.5523 33 36V35C33 34.4477 32.5523 34 32 34H13Z" fill="white"/>
</svg>
