<svg width="48" height="48" viewBox="0 0 48 48" fill="none" xmlns="http://www.w3.org/2000/svg">
<rect width="48" height="48" rx="4" fill="#BC6C25"/>
<path d="M30 13.7V5.72426C30 5.45699 30.3231 5.32314 30.5121 5.51213L38.4879 13.4879C38.6769 13.6769 38.543 14 38.2757 14H30.3C30.1343 14 30 13.8657 30 13.7Z" fill="white"/>
<path fill-rule="evenodd" clip-rule="evenodd" d="M28 5V16H39V26.5975C37.9053 26.2105 36.7272 26 35.5 26C33.8983 26 32.3803 26.3586 31.0221 27H13C12.4477 27 12 27.4477 12 28V29C12 29.5523 12.4477 30 13 30H27.2532C26.3374 31.1603 25.6613 32.5185 25.2994 34H13C12.4477 34 12 34.4477 12 35V36C12 36.5523 12.4477 37 13 37H25.0117C25.1177 39.2606 25.9385 41.3342 27.2532 43H12C9.79086 43 8 41.2091 8 39V9C8 6.79086 9.79086 5 12 5H28ZM14.5 16C15.8807 16 17 14.8807 17 13.5C17 12.1193 15.8807 11 14.5 11C13.1193 11 12 12.1193 12 13.5C12 14.8807 13.1193 16 14.5 16ZM13 20C12.4477 20 12 20.4477 12 21V22C12 22.5523 12.4477 23 13 23H28C28.5523 23 29 22.5523 29 22V21C29 20.4477 28.5523 20 28 20H13Z" fill="white"/>
<ellipse cx="35.3633" cy="36.3633" rx="8.36328" ry="8.36328" fill="white"/>
<path d="M31.1993 35.5101L35.0101 31.6993C35.2054 31.504 35.522 31.504 35.7172 31.6993L39.5281 35.5101C39.8431 35.8251 39.62 36.3637 39.1745 36.3637H31.5528C31.1074 36.3637 30.8843 35.8251 31.1993 35.5101Z" fill="#BC6C25"/>
<rect x="34.3599" y="34.6899" width="2.00697" height="6.68989" rx="0.5" fill="#BC6C25"/>
</svg>
