<svg width="48" height="48" viewBox="0 0 48 48" fill="none" xmlns="http://www.w3.org/2000/svg">
<rect width="48" height="48" rx="4" fill="#3F5EAC"/>
<path d="M40.6667 13H19C17.1667 13 15.6667 14.473 15.6667 16.2733V31.0033C15.6667 31.8714 16.0179 32.704 16.643 33.3179C17.2681 33.9317 18.1159 34.2766 19 34.2766H40.6667C42.5167 34.2766 44 32.82 44 31.0033V16.2733C44 15.4052 43.6488 14.5726 43.0237 13.9587C42.3986 13.3449 41.5507 13 40.6667 13ZM40.6667 19.0065L29.8333 24.4566L19 19.0065V16.2733L29.8333 21.6907L40.6667 16.2733V19.0065ZM12.3333 31.0033C12.3333 31.2815 12.3833 31.5434 12.4167 31.8216H5.66667C4.74667 31.8216 4 31.0851 4 30.1849C4 29.2848 4.74667 28.5483 5.66667 28.5483H12.3333V31.0033ZM9 15.455H12.4167C12.3833 15.7332 12.3333 15.9951 12.3333 16.2733V18.7283H9C8.08333 18.7283 7.33333 17.9918 7.33333 17.0917C7.33333 16.1915 8.08333 15.455 9 15.455ZM5.66667 23.6383C5.66667 22.7381 6.41667 22.0016 7.33333 22.0016H12.3333V25.275H7.33333C6.41667 25.275 5.66667 24.5385 5.66667 23.6383Z" fill="white"/>
</svg>
