<svg width="48" height="48" viewBox="0 0 48 48" fill="none" xmlns="http://www.w3.org/2000/svg">
<rect width="48" height="48" rx="4" fill="white"/>
<g clip-path="url(#clip0_2537_1014)">
<path d="M23.6605 4.54688C12.8037 4.54688 4 13.4664 4 24.4695C4 33.272 9.63333 40.7398 17.4451 43.3742C18.4276 43.5586 18.7884 42.942 18.7884 42.4158C18.7884 41.9408 18.7701 40.3713 18.7618 38.7066C13.292 39.9117 12.1379 36.3559 12.1379 36.3559C11.2436 34.0531 9.95498 33.4409 9.95498 33.4409C8.17126 32.2044 10.0894 32.2297 10.0894 32.2297C12.0637 32.3703 13.1033 34.2828 13.1033 34.2828C14.8568 37.3286 17.7026 36.448 18.8245 35.9391C19.0009 34.6513 19.5105 33.7725 20.0727 33.275C15.706 32.7711 11.1153 31.0628 11.1153 23.4291C11.1153 21.2541 11.8833 19.4767 13.1411 18.0816C12.9369 17.5797 12.264 15.5534 13.3315 12.8092C13.3315 12.8092 14.9825 12.2737 18.7396 14.8514C20.3077 14.4098 21.9897 14.1886 23.6605 14.1811C25.3314 14.1886 27.0145 14.4098 28.5858 14.8514C32.3384 12.2737 33.987 12.8092 33.987 12.8092C35.0572 15.5534 34.3839 17.5797 34.1798 18.0816C35.4403 19.4767 36.2031 21.2539 36.2031 23.4291C36.2031 31.0809 31.6038 32.7659 27.2259 33.2591C27.9311 33.8773 28.5594 35.0898 28.5594 36.9484C28.5594 39.6141 28.5366 41.7595 28.5366 42.4158C28.5366 42.9459 28.8905 43.5672 29.8872 43.3716C37.6946 40.7342 43.3209 33.2691 43.3209 24.4695C43.3209 13.4664 34.5184 4.54688 23.6605 4.54688Z" fill="#161614"/>
<path d="M11.3635 32.9272C11.3203 33.0261 11.1664 33.0558 11.0266 32.988C10.884 32.923 10.8038 32.788 10.85 32.6886C10.8924 32.5867 11.0463 32.5583 11.1886 32.6267C11.3316 32.6916 11.413 32.8278 11.3635 32.9272ZM12.3306 33.8016C12.2369 33.8897 12.0535 33.8488 11.9291 33.7095C11.8005 33.5706 11.7764 33.385 11.8716 33.2955C11.9682 33.2075 12.146 33.2486 12.2749 33.3877C12.4035 33.5281 12.4285 33.7127 12.3304 33.8017M12.9941 34.9203C12.8735 35.0052 12.6765 34.9256 12.5548 34.7484C12.4344 34.5714 12.4344 34.3589 12.5574 34.2738C12.6795 34.1886 12.8735 34.2652 12.9969 34.4409C13.1171 34.6211 13.1171 34.8336 12.9939 34.9205M14.116 36.2161C14.0082 36.3364 13.7788 36.3042 13.6107 36.1398C13.4389 35.9792 13.391 35.7513 13.4991 35.6308C13.6081 35.5102 13.8389 35.5441 14.0082 35.707C14.1789 35.8673 14.2309 36.097 14.116 36.2161ZM15.5661 36.6536C15.5187 36.8095 15.2976 36.8805 15.0749 36.8142C14.8526 36.7459 14.707 36.5631 14.7519 36.4055C14.7982 36.2484 15.0202 36.1745 15.2446 36.2455C15.4666 36.3134 15.6123 36.4948 15.5661 36.6536ZM17.2165 36.8391C17.2221 37.0034 17.0332 37.1397 16.7995 37.1427C16.5643 37.1478 16.3742 37.0148 16.3717 36.8533C16.3717 36.6873 16.5563 36.5523 16.7913 36.5484C17.025 36.5438 17.2165 36.6758 17.2165 36.8391ZM18.8377 36.7761C18.8658 36.9364 18.7033 37.1011 18.4712 37.1448C18.243 37.187 18.0318 37.0881 18.0026 36.9292C17.9743 36.7648 18.1399 36.6003 18.3676 36.5577C18.6001 36.5167 18.8081 36.6131 18.8377 36.7761Z" fill="#161614"/>
</g>
<defs>
<clipPath id="clip0_2537_1014">
<rect width="39.4737" height="40" fill="white" transform="translate(4 4)"/>
</clipPath>
</defs>
</svg>
