<svg width="48" height="48" viewBox="0 0 48 48" fill="none" xmlns="http://www.w3.org/2000/svg">
<rect width="48" height="48" rx="4" fill="white"/>
<g clip-path="url(#clip0_2537_1002)">
<path d="M24.0115 42.8867L31.3715 20.2351H16.6514L24.0115 42.8867Z" fill="#E24329"/>
<path d="M24.0118 42.8867L16.6516 20.2351H6.33691L24.0118 42.8867Z" fill="#FC6D26"/>
<path d="M6.33703 20.2351L4.10047 27.1189C4.00103 27.4249 4.00101 27.7545 4.10043 28.0606C4.19985 28.3666 4.3936 28.6333 4.65391 28.8225L24.0119 42.8868L6.33688 20.2353L6.33703 20.2351Z" fill="#FCA326"/>
<path d="M6.33691 20.2351H16.6516L12.2189 6.59214C11.9908 5.89011 10.9977 5.89026 10.7697 6.59214L6.33691 20.2351Z" fill="#E24329"/>
<path d="M24.0119 42.8867L31.3719 20.2351H41.6867L24.0119 42.8867Z" fill="#FC6D26"/>
<path d="M41.6866 20.2351L43.9231 27.1189C44.0226 27.4249 44.0225 27.7546 43.9231 28.0606C43.8237 28.3666 43.6299 28.6333 43.3695 28.8225L24.0117 42.8868L41.6866 20.2353V20.2351Z" fill="#FCA326"/>
<path d="M41.6864 20.2351H31.3716L35.8044 6.59214C36.0325 5.89011 37.0256 5.89026 37.2536 6.59214L41.6864 20.2351Z" fill="#E24329"/>
</g>
<defs>
<clipPath id="clip0_2537_1002">
<rect width="40" height="36.88" fill="white" transform="translate(4 6)"/>
</clipPath>
</defs>
</svg>
