<svg width="48" height="48" viewBox="0 0 48 48" fill="none" xmlns="http://www.w3.org/2000/svg">
<rect width="48" height="48" rx="4" fill="white"/>
<g clip-path="url(#clip0_2486_674)">
<path d="M13.5951 25.3075V12.4702H7.98615C6.33508 12.4702 5 13.8132 5 15.4643V41.9999C5 43.335 6.61157 43.9986 7.55166 43.0585L13.7215 36.8887H31.2908C32.9419 36.8887 34.2769 35.5536 34.2769 33.9026V28.2937H16.5891C14.938 28.2937 13.5951 26.9586 13.5951 25.3075Z" fill="#00AC47"/>
<path d="M39.8859 4.00146H16.5892C14.9381 4.00146 13.603 5.33654 13.603 6.98762V12.4701H31.2908C32.9419 12.4701 34.277 13.8052 34.277 15.4563V28.2857H39.8859C41.537 28.2857 42.8721 26.9506 42.8721 25.2995V6.98762C42.8721 5.33654 41.537 4.00146 39.8859 4.00146Z" fill="#5BB974"/>
<path d="M31.2909 12.4702H13.5952V25.2996C13.5952 26.9507 14.9303 28.2858 16.5814 28.2858H34.2692V15.4643C34.2771 13.8132 32.942 12.4702 31.2909 12.4702Z" fill="#00832D"/>
</g>
<defs>
<clipPath id="clip0_2486_674">
<rect width="37.872" height="40" fill="white" transform="translate(5 4)"/>
</clipPath>
</defs>
</svg>
