<svg width="48" height="48" viewBox="0 0 48 48" fill="none" xmlns="http://www.w3.org/2000/svg">
<rect width="48" height="48" rx="4" fill="white"/>
<path d="M11.5723 30.8608C11.5723 30.2218 11.7738 29.693 12.177 29.2743C12.5858 28.8558 13.0997 28.6465 13.7186 28.6465C14.3375 28.6465 14.8486 28.8558 15.2517 29.2743C15.6606 29.693 15.865 30.2218 15.865 30.8608C15.865 31.5056 15.6606 32.0345 15.2517 32.4473C14.8485 32.866 14.3374 33.0753 13.7186 33.0752C13.0998 33.0751 12.5859 32.8656 12.177 32.4468C11.7737 32.0284 11.5721 31.4996 11.5723 30.8603M12.3559 30.8603C12.3559 31.3073 12.4865 31.6692 12.7476 31.9463C13.0088 32.2233 13.3325 32.3618 13.7186 32.3618C14.1047 32.3618 14.4284 32.2233 14.6896 31.9463C14.9508 31.6692 15.0814 31.3073 15.0814 30.8603C15.0814 30.4191 14.9508 30.06 14.6896 29.7828C14.4231 29.5001 14.0994 29.3587 13.7186 29.3586C13.3378 29.3585 13.0141 29.5001 12.7473 29.7834C12.486 30.0604 12.3554 30.4195 12.3555 30.8608" fill="#5F6368"/>
<path d="M17.2035 32.9403H16.4199V28.7831H17.1694V29.4618H17.2042C17.2837 29.2412 17.447 29.0531 17.694 28.8975C17.9411 28.7419 18.1838 28.6642 18.4222 28.6643C18.6492 28.6643 18.8422 28.6982 19.0013 28.7661L18.7622 29.5215C18.6655 29.4821 18.5122 29.4623 18.3022 29.4622C18.007 29.4622 17.7501 29.5809 17.5315 29.8185C17.313 30.056 17.2036 30.3331 17.2035 30.6496V32.9403Z" fill="#5F6368"/>
<path d="M23.0362 32.9398H22.0908L20.7876 30.98L20.1488 31.6078V32.9398H19.3652V26.8652H20.1488V30.6067L21.9545 28.7826H22.9595V28.8166L21.3327 30.4285L23.0362 32.9059V32.9398Z" fill="#5F6368"/>
<path d="M26.4255 31.7861C26.4255 32.1482 26.2665 32.4536 25.9485 32.7024C25.6306 32.9511 25.2303 33.0756 24.7476 33.0757C24.3274 33.0757 23.9583 32.9668 23.6404 32.749C23.3289 32.5395 23.0907 32.2385 22.959 31.8879L23.6574 31.591C23.7596 31.84 23.9087 32.0336 24.1046 32.172C24.2914 32.3077 24.5167 32.3805 24.7478 32.3798C24.9977 32.3798 25.2063 32.3261 25.3735 32.2186C25.5408 32.1112 25.6245 31.9839 25.6247 31.8368C25.6247 31.5714 25.4203 31.3762 25.0115 31.2514L24.296 31.0733C23.4843 30.8697 23.0783 30.4793 23.0782 29.9021C23.0782 29.5233 23.233 29.2192 23.5425 28.99C23.852 28.7608 24.248 28.6463 24.7306 28.6465C25.0998 28.6465 25.4334 28.7342 25.7314 28.9095C26.0295 29.0848 26.2381 29.3196 26.3572 29.6137L25.659 29.9021C25.5789 29.7262 25.4427 29.5815 25.2715 29.4906C25.0875 29.3904 24.8806 29.3393 24.671 29.3422C24.4769 29.3393 24.2862 29.3923 24.1217 29.4949C23.9594 29.5967 23.8783 29.7211 23.8783 29.8682C23.8783 30.1057 24.1026 30.2754 24.5512 30.3772L25.1815 30.5384C26.0105 30.7421 26.425 31.1576 26.425 31.7851" fill="#5F6368"/>
<path d="M29.1474 33.0752C28.8408 33.0752 28.5611 33.0101 28.3085 32.88C28.0559 32.7499 27.8614 32.5774 27.725 32.3625H27.6902L27.725 32.9394V34.772H26.9414V28.7822H27.6909V29.3591H27.7257C27.862 29.1443 28.0565 28.9718 28.3092 28.8416C28.5619 28.7114 28.8416 28.6464 29.1481 28.6465C29.6987 28.6465 30.1643 28.8614 30.5449 29.2913C30.9367 29.7269 31.1326 30.2501 31.1326 30.8608C31.1326 31.4775 30.9367 32.0006 30.5449 32.4304C30.1645 32.8602 29.6989 33.0752 29.1481 33.0752M29.0203 32.3625C29.3951 32.3625 29.7102 32.2211 29.9657 31.9383C30.2207 31.6613 30.3481 31.3021 30.3481 30.8608C30.3481 30.4254 30.2207 30.0663 29.9657 29.7834C29.7108 29.5004 29.3956 29.359 29.0203 29.3591C28.6399 29.3591 28.3219 29.5005 28.0664 29.7834C27.8164 30.0663 27.6915 30.4254 27.6916 30.8608C27.6916 31.302 27.8165 31.664 28.0664 31.9468C28.3213 32.2238 28.6393 32.3623 29.0203 32.3623" fill="#5F6368"/>
<path d="M33.2785 28.6467C33.8579 28.6467 34.315 28.8008 34.6497 29.109C34.9845 29.4172 35.152 29.84 35.1523 30.3774V32.9399H34.4027V32.3627H34.368C34.0443 32.8378 33.6128 33.0753 33.0734 33.0753C32.6134 33.0753 32.2287 32.9396 31.9192 32.6681C31.6097 32.3966 31.455 32.0573 31.4551 31.65C31.4551 31.2203 31.6183 30.8781 31.9447 30.6234C32.2712 30.3688 32.707 30.2415 33.2522 30.2417C33.7177 30.2417 34.101 30.3265 34.4021 30.4962V30.3173C34.4021 30.0458 34.2942 29.8153 34.0784 29.6258C33.8706 29.4394 33.5999 29.3379 33.3204 29.3417C32.883 29.3417 32.5367 29.5255 32.2813 29.8931L31.5914 29.4603C31.9717 28.9177 32.5337 28.6465 33.2774 28.6465M32.2649 31.6679C32.2649 31.8715 32.3515 32.0412 32.5246 32.1769C32.6977 32.3126 32.9005 32.3805 33.133 32.3805C33.4622 32.3805 33.756 32.2589 34.0144 32.0157C34.2728 31.7725 34.4021 31.4869 34.4021 31.1588C34.1578 30.9666 33.8171 30.8705 33.38 30.8704C33.0619 30.8704 32.7964 30.9467 32.5835 31.0994C32.3707 31.2521 32.2645 31.4416 32.2649 31.6679Z" fill="#5F6368"/>
<path d="M37.8085 33.0752C37.1894 33.0752 36.6755 32.8659 36.2668 32.4473C35.8636 32.0176 35.662 31.4888 35.6621 30.8608C35.6621 30.2218 35.8637 29.693 36.2668 29.2743C36.6757 28.8558 37.1895 28.6465 37.8085 28.6465C38.2343 28.6465 38.6062 28.7525 38.9242 28.9646C39.2422 29.1766 39.4807 29.4693 39.6397 29.8427L38.9249 30.1397C38.7035 29.6193 38.3145 29.3591 37.7581 29.3591C37.4003 29.3591 37.0909 29.5034 36.8297 29.792C36.5741 30.0806 36.4464 30.4369 36.4464 30.861C36.4464 31.2851 36.5741 31.6414 36.8297 31.93C37.0907 32.2186 37.4002 32.3629 37.7581 32.3629C38.3315 32.3629 38.7347 32.1027 38.9675 31.5823L39.6659 31.8793C39.5126 32.2526 39.2727 32.5452 38.9461 32.7573C38.6196 32.9693 38.2406 33.0754 37.8092 33.0755" fill="#5F6368"/>
<path d="M42.0244 33.0752C41.4111 33.0752 40.9058 32.8659 40.5083 32.4473C40.1108 32.0288 39.9121 31.5 39.9121 30.8608C39.9121 30.2275 40.1052 29.7 40.4913 29.2785C40.8774 28.8569 41.3714 28.6463 41.9733 28.6465C42.5921 28.6465 43.0846 28.8458 43.4508 29.2445C43.817 29.6432 43.9999 30.2018 43.9997 30.9202L43.9912 31.0051H40.7127C40.7243 31.4123 40.8606 31.7403 41.1216 31.9892C41.3825 32.2381 41.6948 32.3625 42.0585 32.3625C42.558 32.3625 42.9498 32.1136 43.2338 31.6159L43.9323 31.9553C43.7541 32.2963 43.4842 32.5812 43.1528 32.7782C42.8206 32.9761 42.4445 33.0751 42.0244 33.0752ZM40.7729 30.3603H43.1654C43.1422 30.0717 43.0243 29.8327 42.8118 29.6433C42.5993 29.4539 42.314 29.3591 41.9559 29.3591C41.6605 29.3591 41.4064 29.4496 41.1935 29.6306C40.9806 29.8116 40.8401 30.0548 40.772 30.3603" fill="#5F6368"/>
<path d="M10.7627 26.8652H11.5804L9.95356 32.9398H9.15294L7.84128 28.9353H7.80721L6.49556 32.9398H5.69493L4 26.8652H4.81766L6.10376 31.6418H6.13783L7.45801 27.6797H8.19049L9.51066 31.6418H9.54473L10.7627 26.8652Z" fill="#5F6368"/>
<path d="M10.7087 19.4593V18.2019H14.9335C14.9804 18.4562 15.0032 18.7143 15.0017 18.9728C15.0017 19.9155 14.7427 21.083 13.9082 21.9136C13.097 22.7555 12.0606 23.2046 10.6861 23.2046C8.14032 23.2046 6 21.1391 6 18.6023C6 16.0655 8.14032 14 10.6866 14C12.0953 14 13.0975 14.5501 13.8524 15.2685L12.9623 16.1552C12.421 15.6502 11.6893 15.2572 10.6866 15.2572C8.82778 15.2572 7.37446 16.75 7.37446 18.6023C7.37446 20.4546 8.82778 21.9486 10.6866 21.9486C11.8922 21.9486 12.5794 21.4659 13.0186 21.0281C13.3767 20.6715 13.6126 20.1598 13.704 19.4604L10.7087 19.4593Z" fill="#4285F4"/>
<path d="M21.4393 20.2418C21.4393 21.9492 20.0984 23.2052 18.454 23.2052C16.8097 23.2052 15.4688 21.9492 15.4688 20.2418C15.4688 18.5244 16.8095 17.2783 18.4545 17.2783C20.0995 17.2783 21.4398 18.5244 21.4398 20.2418M20.133 20.2418C20.133 19.1758 19.3558 18.4458 18.4545 18.4458C17.5532 18.4458 16.7757 19.1753 16.7757 20.2418C16.7757 21.2969 17.553 22.0377 18.4545 22.0377C19.356 22.0377 20.133 21.2962 20.133 20.2418Z" fill="#EA4335"/>
<path d="M27.9513 20.2418C27.9513 21.9492 26.6115 23.2052 24.966 23.2052C23.3205 23.2052 21.9805 21.9492 21.9805 20.2418C21.9805 18.5244 23.321 17.2783 24.966 17.2783C26.611 17.2783 27.9513 18.5244 27.9513 20.2418ZM26.6445 20.2418C26.6445 19.1758 25.8672 18.4458 24.966 18.4458C24.0647 18.4458 23.2872 19.1753 23.2872 20.2418C23.2872 21.2969 24.0645 22.0377 24.966 22.0377C25.8675 22.0377 26.6445 21.2962 26.6445 20.2418Z" fill="#FBBC04"/>
<path d="M34.1941 17.4579V22.7786C34.1941 24.9676 32.8985 25.8656 31.3664 25.8656C29.924 25.8656 29.0567 24.9001 28.73 24.1146L29.8686 23.643C30.0712 24.1257 30.5665 24.6981 31.3671 24.6981C32.3472 24.6981 32.9555 24.0918 32.9555 22.9582V22.5318H32.9104C32.6175 22.891 32.0543 23.2052 31.3445 23.2052C29.8572 23.2052 28.4941 21.9142 28.4941 20.2531C28.4941 18.5804 29.8572 17.2783 31.3445 17.2783C32.0543 17.2783 32.6175 17.5926 32.9104 17.9406H32.9555V17.4579H34.1941ZM33.0449 20.2531C33.0449 19.2092 32.3469 18.4456 31.4564 18.4456C30.5551 18.4456 29.8002 19.2089 29.8002 20.2531C29.8002 21.2857 30.5551 22.0375 31.4564 22.0375C32.3465 22.0375 33.0449 21.2855 33.0449 20.2531Z" fill="#4285F4"/>
<path d="M36.4064 14.3438H35.0996V23.0253H36.4064V14.3438Z" fill="#34A853"/>
<path d="M41.4536 21.2183L42.4675 21.8917C42.1418 22.3744 41.3522 23.2052 39.9889 23.2052C38.299 23.2052 37.0371 21.9031 37.0371 20.2418C37.0371 18.4806 38.3104 17.2783 39.8423 17.2783C41.3859 17.2783 42.1406 18.5019 42.3886 19.1642L42.5238 19.5009L38.5456 21.1398C38.8499 21.7346 39.3231 22.0377 39.988 22.0377C40.6529 22.0377 41.1146 21.7133 41.4536 21.2183ZM38.3327 20.1523L40.9916 19.0525C40.845 18.6817 40.4058 18.424 39.8875 18.424C39.2228 18.424 38.299 19.0078 38.3327 20.1528" fill="#EA4335"/>
</svg>
