<svg width="48" height="48" viewBox="0 0 48 48" fill="none" xmlns="http://www.w3.org/2000/svg">
<rect width="48" height="48" rx="4" fill="white"/>
<g clip-path="url(#clip0_2537_966)">
<path d="M29.3815 16.8644H30.6021L34.0795 13.3871L34.2505 11.9116C27.7803 6.2009 17.9031 6.81624 12.1924 13.2865C10.6046 15.0838 9.45275 17.2216 8.82568 19.5354C9.21299 19.3761 9.64222 19.3509 10.0463 19.4616L16.9994 18.3147C16.9994 18.3147 17.3532 17.7296 17.5359 17.7665C20.6293 14.3696 25.8354 13.9739 29.4066 16.8644H29.3815Z" fill="#EA4335"/>
<path d="M39.0322 19.5354C38.2324 16.5928 36.5926 13.9471 34.3107 11.9233L29.4316 16.8024C31.4922 18.4858 32.6659 21.0226 32.6156 23.6834V24.5502C35.0149 24.5502 36.9581 26.4952 36.9581 28.8928C36.9581 31.2921 35.0132 33.2353 32.6156 33.2353H23.9288L23.062 34.1139V39.3233L23.9288 40.1901H32.6156C37.5953 40.2287 42.0133 37.0011 43.4921 32.2461C44.9675 27.4894 43.1567 22.3253 39.0322 19.5354Z" fill="#4285F4"/>
<path d="M15.2303 40.1414H23.9171V33.1883H15.2303C14.6116 33.1883 13.9996 33.0558 13.4363 32.7976L12.2157 33.1749L8.71482 36.6522L8.40967 37.8728C10.373 39.355 12.769 40.1514 15.2303 40.1414Z" fill="#34A853"/>
<path d="M15.2304 17.5838C10.405 17.6123 6.1312 20.7024 4.59203 25.2746C3.05286 29.8469 4.587 34.8936 8.41146 37.8345L13.4498 32.7961C11.2635 31.8086 10.2927 29.2366 11.2802 27.0502C12.2678 24.8638 14.8398 23.8931 17.0261 24.8806C17.9885 25.3165 18.7598 26.0878 19.1957 27.0502L24.2341 22.0119C22.0896 19.2102 18.7581 17.5721 15.2304 17.5838Z" fill="#FBBC05"/>
</g>
<defs>
<clipPath id="clip0_2537_966">
<rect width="40" height="32.1901" fill="white" transform="translate(4 8)"/>
</clipPath>
</defs>
</svg>
