<svg width="48" height="48" viewBox="0 0 48 48" fill="none" xmlns="http://www.w3.org/2000/svg">
<rect width="48" height="48" rx="4" fill="white"/>
<g clip-path="url(#clip0_2537_1038)">
<path d="M42.0283 38.9201C42.0358 40.3423 41.4325 41.6993 40.3717 42.6465C39.311 43.5938 37.8946 44.0402 36.4824 43.8724C33.9411 43.4964 32.0787 41.2849 32.1407 38.7166V9.18947C32.0793 6.61842 33.9462 4.40584 36.4909 4.03366C37.9017 3.86852 39.3157 4.31613 40.3746 5.26308C41.4334 6.21003 42.0355 7.56546 42.0283 8.98595V38.9201Z" fill="#F9AB00"/>
<path d="M10.9155 34.0271C13.6459 34.0271 15.8593 36.2405 15.8593 38.9709C15.8593 41.7013 13.6459 43.9147 10.9155 43.9147C8.1851 43.9147 5.97168 41.7013 5.97168 38.9709C5.97168 36.2405 8.1851 34.0271 10.9155 34.0271ZM23.9237 19.0431C21.1804 19.1934 19.0519 21.4946 19.1156 24.2413V37.5209C19.1156 41.1248 20.7013 43.3127 23.0248 43.7791C24.4835 44.0747 25.9978 43.6986 27.1487 42.7549C28.2996 41.8112 28.965 40.3999 28.9608 38.9116V24.0123C28.9632 22.6818 28.4311 21.4061 27.484 20.4718C26.5368 19.5374 25.254 19.0226 23.9237 19.0431Z" fill="#E37400"/>
</g>
<defs>
<clipPath id="clip0_2537_1038">
<rect width="40" height="40" fill="white" transform="translate(4 4)"/>
</clipPath>
</defs>
</svg>
