<svg width="48" height="48" viewBox="0 0 48 48" fill="none" xmlns="http://www.w3.org/2000/svg">
<rect width="48" height="48" rx="4" fill="white"/>
<g clip-path="url(#clip0_2486_668)">
<path fill-rule="evenodd" clip-rule="evenodd" d="M24 44C35.0457 44 44 35.0457 44 24C44 12.9543 35.0457 4 24 4C12.9543 4 4 12.9543 4 24C4 35.0457 12.9543 44 24 44Z" fill="#7EB949"/>
<path fill-rule="evenodd" clip-rule="evenodd" d="M35.4896 20.0735C35.0865 17.8669 34.1243 15.9395 32.6044 14.2947C31.9628 13.6003 31.2439 12.9969 30.4505 12.4847C28.9726 11.5307 27.3626 10.9461 25.6167 10.7391C25.4039 10.7137 25.188 10.717 24.9782 10.6667H23.4718C23.4555 10.7049 23.4206 10.6909 23.3929 10.6936C23.005 10.7279 22.619 10.7722 22.2362 10.8451C19.4386 11.3772 17.1412 12.7566 15.3629 14.9846C13.9003 16.8169 13.0948 18.9189 12.9208 21.2626C12.8365 22.3985 12.9182 23.5238 13.1661 24.6342C13.3502 25.4601 13.6252 26.2581 13.9949 27.0209C14.0274 27.0858 14.0594 27.1507 14.0925 27.2156C14.6999 28.4166 15.4811 29.4869 16.4602 30.4112C16.9756 30.8978 17.5266 31.338 18.123 31.7184C19.9504 32.8831 21.9453 33.4939 24.1124 33.5211C24.2454 33.523 24.2816 33.5559 24.2808 33.6924C24.2747 34.8571 24.2773 36.022 24.2776 37.1869C24.2778 37.2321 24.2812 37.2772 24.2838 37.3334C24.3213 37.3181 24.3449 37.3094 24.3675 37.2986C26.546 36.2708 28.5463 34.9721 30.3296 33.3441C30.6845 33.0202 31.024 32.6808 31.3506 32.3274C31.4904 32.1763 31.6291 32.0225 31.7692 31.8716C31.9856 31.6391 32.1729 31.3795 32.377 31.1347C32.6126 30.8524 32.8242 30.5523 33.0328 30.2504C33.4942 29.5829 33.9061 28.8867 34.2525 28.1511C34.4277 27.7793 34.5945 27.4046 34.7421 27.021C34.747 27.0138 34.7536 27.0074 34.7568 26.9996C35.1591 25.9493 35.417 24.8625 35.5542 23.7475C35.6021 23.3592 35.6331 22.9684 35.6528 22.5778C35.6946 21.737 35.6405 20.9009 35.4896 20.0735ZM20.2266 27.1975C20.0725 27.2201 19.9721 27.1342 19.9146 26.9947C19.9152 26.5642 19.9156 26.1342 19.9162 25.7039C19.9237 25.5772 19.8729 25.4414 19.9739 25.3297C20.024 25.2744 20.0807 25.2364 20.1574 25.2173C20.3817 25.1605 20.6092 25.1151 20.8135 24.9927C21.1898 24.7671 21.424 24.4415 21.5279 24.017C21.5441 23.9502 21.5595 23.883 21.575 23.8159C20.6714 23.8142 19.768 23.8126 18.8644 23.8114C18.7862 23.8113 18.7091 23.8085 18.633 23.7874C18.4026 23.7233 18.2263 23.5123 18.226 23.2737C18.2243 21.9017 18.227 20.5296 18.228 19.1577C18.2091 18.9384 18.2282 18.733 18.4117 18.5763C18.5114 18.4916 18.621 18.4403 18.752 18.4403C20.0806 18.44 21.4092 18.441 22.7378 18.4395C23.0894 18.439 23.2873 18.5492 23.2873 19.1577C23.2873 19.2589 23.2987 22.3376 23.2873 23.8326C23.2799 24.8247 22.8952 25.6591 22.172 26.3356C22.1341 26.3709 22.0976 26.4075 22.0607 26.4434C21.6861 26.7318 21.2806 26.9595 20.8209 27.0844C20.6253 27.1377 20.4259 27.1683 20.2266 27.1975ZM28.1204 27.0032C28.1108 27.0087 28.1012 27.0142 28.0916 27.0196C27.8345 27.0926 27.575 27.1532 27.3098 27.192C27.1075 27.2219 26.9545 27.1071 26.9521 26.9028C26.9501 26.7596 26.9491 26.6162 26.9479 26.4729C26.9504 26.2162 26.9528 25.9596 26.9553 25.7031C26.9541 25.6465 26.9521 25.5903 26.9522 25.5339C26.9525 25.3368 27.028 25.2536 27.272 25.1977C27.5814 25.1266 27.8725 25.0263 28.1133 24.8018C28.4023 24.5323 28.5482 24.1958 28.6146 23.8156C27.78 23.8139 26.9456 23.8124 26.1107 23.8108C26.0199 23.8107 25.929 23.812 25.8381 23.8104C25.4972 23.8047 25.2639 23.5681 25.2639 23.224C25.2643 21.869 25.2662 20.5141 25.2671 19.159C25.2671 19.1459 25.2656 19.1329 25.2648 19.1199C25.2385 18.8663 25.3111 18.6585 25.5355 18.5176C25.6226 18.4626 25.7174 18.44 25.8177 18.44C27.1375 18.4392 28.4572 18.4404 29.7771 18.4388C30.1286 18.4384 30.3286 18.75 30.3286 19.159C30.3286 19.3472 30.3299 22.3415 30.3286 23.8392C30.3275 25.1771 29.4925 26.4291 28.2619 26.9431C28.2309 26.9564 28.2013 26.9737 28.171 26.989C28.171 26.989 28.1375 26.9983 28.1204 27.0032Z" fill="white"/>
</g>
<defs>
<clipPath id="clip0_2486_668">
<rect width="40" height="40" fill="white" transform="translate(4 4)"/>
</clipPath>
</defs>
</svg>
