<svg width="48" height="48" viewBox="0 0 48 48" fill="none" xmlns="http://www.w3.org/2000/svg">
<rect width="48" height="48" rx="4" fill="white"/>
<path d="M24 44C35.0457 44 44 35.0457 44 24C44 12.9543 35.0457 4 24 4C12.9543 4 4 12.9543 4 24C4 35.0457 12.9543 44 24 44Z" fill="#FF7A59"/>
<path fill-rule="evenodd" clip-rule="evenodd" d="M28.3664 28.4117C26.873 28.4117 25.6617 27.2137 25.6617 25.7356C25.6617 24.2574 26.8727 23.059 28.3664 23.059C29.8602 23.059 31.0719 24.257 31.0719 25.7356C31.0719 27.2141 29.8609 28.4117 28.3664 28.4117ZM29.1766 20.5828V18.2C29.4934 18.0549 29.7621 17.8224 29.9513 17.5297C30.1404 17.2371 30.242 16.8965 30.2441 16.5481V16.493C30.2441 15.4859 29.4113 14.6625 28.3945 14.6625H28.3387C27.323 14.6625 26.4891 15.4863 26.4891 16.493V16.5481C26.4913 16.8965 26.5929 17.237 26.7821 17.5296C26.9712 17.8223 27.2399 18.0548 27.5566 18.2V20.5828C26.6445 20.7204 25.7844 21.0947 25.0621 21.6684L18.4566 16.5836C18.5029 16.4163 18.5277 16.2438 18.5305 16.0703C18.5305 14.9293 17.5973 14.0031 16.4445 14C15.2918 13.9969 14.3566 14.9215 14.3555 16.0629C14.3543 17.2043 15.2871 18.1285 16.4398 18.1305C16.8009 18.1289 17.1553 18.0335 17.4684 17.8535L23.9676 22.8574C23.3829 23.7283 23.0774 24.7567 23.0919 25.8056C23.1063 26.8545 23.44 27.874 24.0484 28.7285L22.0711 30.6856C21.8372 30.6122 21.5901 30.5905 21.3469 30.6218C21.1038 30.6532 20.8703 30.7369 20.6626 30.8671C20.4549 30.9974 20.2779 31.1711 20.1438 31.3764C20.0098 31.5816 19.9218 31.8135 19.8859 32.056C19.8501 32.2986 19.8672 32.546 19.9362 32.7812C20.0052 33.0165 20.1244 33.234 20.2855 33.4188C20.4467 33.6036 20.6459 33.7512 20.8696 33.8515C21.0933 33.9519 21.3361 34.0025 21.5813 34C22.5281 34 23.2961 33.2398 23.2961 32.3027C23.2944 32.138 23.2681 31.9745 23.218 31.8176L25.1711 29.8832C26.0905 30.5801 27.2127 30.957 28.3664 30.9563C31.2809 30.9563 33.6422 28.6191 33.6422 25.7356C33.6422 23.1254 31.7039 20.9699 29.1762 20.5828" fill="white"/>
</svg>
