<svg width="48" height="48" viewBox="0 0 48 48" fill="none" xmlns="http://www.w3.org/2000/svg">
<rect width="48" height="48" rx="4" fill="#606C38"/>
<g clip-path="url(#clip0_2486_599)">
<path d="M6.00439 12.5625C6.00439 11.4022 6.46533 10.2894 7.2858 9.46891C8.10627 8.64844 9.21907 8.1875 10.3794 8.1875H36.6294C37.7897 8.1875 38.9025 8.64844 39.723 9.46891C40.5435 10.2894 41.0044 11.4022 41.0044 12.5625V34.4375C41.0044 35.5978 40.5435 36.7106 39.723 37.5311C38.9025 38.3516 37.7897 38.8125 36.6294 38.8125H10.3794C9.21907 38.8125 8.10627 38.3516 7.2858 37.5311C6.46533 36.7106 6.00439 35.5978 6.00439 34.4375V12.5625ZM8.19189 32.25V34.4375C8.19189 35.0177 8.42236 35.5741 8.8326 35.9843C9.24283 36.3945 9.79923 36.625 10.3794 36.625H36.6294C37.2096 36.625 37.766 36.3945 38.1762 35.9843C38.5864 35.5741 38.8169 35.0177 38.8169 34.4375V26.7812L30.5547 22.5222C30.3496 22.4194 30.1173 22.3838 29.8908 22.4203C29.6643 22.4568 29.455 22.5636 29.2925 22.7256L21.1769 30.8412L15.3581 26.965C15.1481 26.8251 14.8961 26.7622 14.6449 26.7869C14.3937 26.8117 14.1588 26.9225 13.98 27.1006L8.19189 32.25ZM19.1294 18.0312C19.1294 17.161 18.7837 16.3264 18.1683 15.7111C17.553 15.0957 16.7184 14.75 15.8481 14.75C14.9779 14.75 14.1433 15.0957 13.5279 15.7111C12.9126 16.3264 12.5669 17.161 12.5669 18.0312C12.5669 18.9015 12.9126 19.7361 13.5279 20.3514C14.1433 20.9668 14.9779 21.3125 15.8481 21.3125C16.7184 21.3125 17.553 20.9668 18.1683 20.3514C18.7837 19.7361 19.1294 18.9015 19.1294 18.0312Z" fill="white"/>
</g>
<defs>
<clipPath id="clip0_2486_599">
<rect width="35" height="35" fill="white" transform="translate(6 6)"/>
</clipPath>
</defs>
</svg>
 