<svg width="48" height="48" viewBox="0 0 48 48" fill="none" xmlns="http://www.w3.org/2000/svg">
<rect width="48" height="48" rx="4" fill="white"/>
<path d="M38.4987 23.2744C38.4987 31.1968 32.2173 37.6253 24.4646 37.6253C16.7119 37.6253 10.4307 31.1968 10.4307 23.2744C10.4307 15.3519 16.7121 8.92334 24.4646 8.92334C32.2174 8.92334 38.4988 15.3519 38.4988 23.2744" fill="#D33833"/>
<path d="M11.0067 26.8282C11.0067 26.8282 9.98812 11.8662 23.7845 11.436L22.8225 9.82886L15.3414 12.3414L13.2024 14.7974L11.335 18.3738L10.271 22.5388L10.588 25.323" fill="#EF3D3A"/>
<path d="M14.8553 13.4842C12.3994 16.008 10.8714 19.4827 10.8714 23.3307C10.8714 27.1787 12.3994 30.6532 14.8553 33.1771C17.3226 35.7009 20.7067 37.2515 24.4641 37.2515C28.2216 37.2515 31.6056 35.7009 34.0729 33.1772C36.5289 30.6532 38.0567 27.1787 38.0567 23.3307C38.0567 19.4826 36.5289 16.008 34.0729 13.4842C31.6057 10.9716 28.2216 9.40988 24.4641 9.40988C20.718 9.40988 17.3227 10.9603 14.8553 13.4842ZM14.2328 33.7769C11.6185 31.106 10 27.4051 10 23.3307C10 19.2563 11.6185 15.5553 14.2328 12.873C16.8473 10.202 20.469 8.53833 24.4642 8.53833C28.4593 8.53833 32.081 10.202 34.6954 12.873C37.3097 15.544 38.9283 19.2449 38.9283 23.3307C38.9283 27.405 37.3097 31.106 34.6954 33.7769C32.081 36.4592 28.4593 38.1116 24.4641 38.1116C20.469 38.1116 16.8473 36.4592 14.2328 33.7769Z" fill="#231F20"/>
<path d="M30.3722 23.354L28.2331 23.6708L25.3471 23.9991L23.4797 24.0444L21.6575 23.9878L20.2654 23.5578L19.0317 22.2221L18.0697 19.4946L17.8547 18.906L16.5759 18.476L15.8287 17.2424L15.2969 15.4767L15.8854 13.9263L17.2776 13.4396L18.398 13.9716L18.9299 15.1487L19.575 15.0467L19.79 14.7751L19.575 13.5414L19.5184 11.9909L19.8353 9.85187L19.824 8.62958L20.7973 7.06773L22.5063 5.83404L25.4942 4.55518L28.8104 5.04176L31.6964 7.12431L33.0319 9.26331L33.8919 10.8139L34.1071 14.6619L33.4619 17.978L32.2848 20.9207L31.1758 22.4938" fill="#F0D6B7"/>
<path d="M28.5612 32.5999L20.9217 32.9168V34.1956L21.5669 38.6889L21.2499 39.0623L15.9079 37.2402L15.5345 36.5951L15.0025 30.5514L13.7462 26.9297L13.4746 26.0695L17.7527 23.127L19.0883 22.595L20.2653 24.0436L21.2839 24.9491L22.461 25.3225L22.9929 25.4811L23.638 28.2652L24.1247 28.8538L25.3583 28.4237L24.4981 30.0872L29.1384 32.2829L28.5612 32.5998" fill="#335061"/>
<path d="M15.8849 13.9486L17.2771 13.462L18.3975 13.9939L18.9294 15.171L19.5745 15.0692L19.733 14.424L19.4161 13.1903L19.7329 10.2478L19.4613 8.64062L20.4233 7.52019L22.5058 5.86778L21.9172 5.06421L18.9746 6.5128L17.7411 7.47491L17.0506 8.96878L15.9868 10.4175L15.6699 12.1265L15.8849 13.9486Z" fill="#6D6B6D"/>
<path d="M18.0806 8.92348C18.0806 8.92348 18.8841 6.94291 22.087 5.98091C25.2899 5.01891 22.2456 5.29049 22.2456 5.29049L18.7708 6.62605L17.4355 7.96148L16.8469 9.02534L18.0806 8.92348ZM16.4735 13.5752C16.4735 13.5752 15.3529 9.82891 19.6311 9.29704L19.4726 8.6519L16.5301 9.34232L15.6699 12.1266L15.8849 13.9486L16.4735 13.5752Z" fill="#DCD9D8"/>
<path d="M18.1832 18.5437L18.8848 17.8646C18.8848 17.8646 19.2018 17.8986 19.2584 18.272C19.315 18.6456 19.4734 22.0183 21.7709 23.8291C21.9859 23.9989 20.0619 23.5574 20.0619 23.5574L18.3528 20.8864M28.0183 17.525C28.0183 17.525 28.1428 15.9066 28.5842 16.0312C29.0256 16.1556 29.0256 16.5969 29.0256 16.5969C29.0256 16.5969 27.9618 17.276 28.0183 17.525ZM32.4549 11.5946C32.4549 11.5946 31.5721 11.7756 31.4929 12.5566C31.4136 13.3375 32.4549 12.715 32.6133 12.6585M25.9925 11.6512C25.9925 11.6512 24.8154 11.8096 24.8154 12.5566C24.8154 13.3035 26.1509 13.2469 26.5244 12.93M18.7264 15.1257C18.7264 15.1257 16.7007 13.892 16.4856 15.0692C16.2706 16.2462 15.7952 17.0949 16.8025 18.3286L16.1121 18.1136L15.4671 16.4612L15.252 14.854L16.4856 13.5752L17.8777 13.677L18.6812 14.3222L18.7265 15.1257M19.6885 11.753C19.6885 11.753 20.5938 7.04479 25.1889 6.13936C28.9689 5.39237 30.9609 6.29791 31.7079 7.15794C31.7079 7.15794 28.3352 3.15151 25.1322 4.3738C21.9294 5.60749 19.5752 7.84836 19.6318 9.28577C19.7224 11.7529 19.6884 11.7529 19.6884 11.7529M32.0813 7.68992C32.0813 7.68992 30.5309 7.63335 30.4742 9.02536C30.4742 9.02536 30.4742 9.24048 30.5762 9.45549C30.5762 9.45549 31.8098 8.06336 32.5568 8.81035" fill="#F7E4CD"/>
<path d="M25.3014 9.60256C25.3014 9.60256 25.0298 7.47484 23.219 8.70842C22.0418 9.51199 22.155 10.6324 22.3588 10.8475C22.5738 11.0626 22.5173 11.4926 22.6757 11.1984C22.8341 10.9041 22.7888 9.94212 23.3774 9.67042C23.9545 9.39884 24.928 9.10468 25.3014 9.60256Z" fill="#F7E4CD"/>
<path d="M20.2772 24.0439L15.2519 26.2847C15.2519 26.2847 17.3344 34.5693 16.2705 37.1385L15.5236 36.8669L15.467 33.7092L14.0749 27.7335L13.4863 26.0809L18.7265 22.5498L20.277 24.0438M20.7864 28.6275L21.4994 29.499V32.7019H20.6507C20.6507 32.7019 20.5488 30.461 20.5488 30.1895C20.5488 29.9178 20.6507 28.9558 20.6507 28.9558M20.8091 33.1886L18.3984 33.2905L19.0888 33.7772L20.7977 34.0489" fill="#49728B"/>
<path d="M29.0367 32.6572L31.0172 32.6006L31.5039 37.5124L29.478 37.7841L29.0366 32.657" fill="#335061"/>
<path d="M29.5688 32.6569L32.5567 32.4984C32.5567 32.4984 33.7904 29.3974 33.7904 29.2389C33.7904 29.0804 34.8543 24.7458 34.8543 24.7458L32.4436 22.2332L31.9569 21.8032L30.678 23.0821V28.0506L29.5688 32.6569Z" fill="#335061"/>
<path d="M30.904 32.2835L29.0366 32.6571L29.3083 34.1511C29.9986 34.4679 31.1757 33.6191 31.1757 33.6191M30.9606 22.9238L34.7069 25.708L34.8087 24.429L31.9793 21.8147L30.9607 22.9238" fill="#49728B"/>
<path d="M22.6644 43.1826L21.5553 38.6894L21.0007 35.3733L20.9102 32.9173L25.9239 32.6458H29.0363L28.7534 38.2593L29.24 42.594L29.1834 43.3976L25.1203 43.7146L22.6644 43.1826Z" fill="white"/>
<path d="M28.3452 32.6004C28.3452 32.6004 28.0736 38.1575 28.8772 42.1187C28.8772 42.1187 27.2701 43.1372 24.9272 43.3975L29.4205 43.2391L29.9524 42.9222L29.3073 34.1623L29.1375 32.2834" fill="#DCD9D8"/>
<path d="M31.5826 37.0932L33.665 36.5046L37.615 36.2896L38.2035 34.4675L37.1396 31.3098L35.906 31.1514L34.197 31.6834L32.5672 32.4869L31.6957 32.3284L31.0166 32.6001" fill="white"/>
<path d="M31.5493 36.0184C31.5493 36.0184 32.9414 35.3733 33.1564 35.4298L32.5679 32.4873L33.2583 32.2156C33.2583 32.2156 33.745 34.9998 33.745 35.3167C33.745 35.3167 36.7329 35.4751 37.0044 35.4751C37.0044 35.4751 37.6496 34.2414 37.4911 32.9626L38.0797 34.6716L38.1363 35.6336L37.2761 36.9124L36.3141 37.1275L34.707 37.071L34.175 36.3806L32.3076 36.6521L31.719 36.8673" fill="#DCD9D8"/>
<path d="M29.4444 32.227L28.2673 29.2391L27.0337 27.4734C27.0337 27.4734 27.3054 26.7266 27.6788 26.7266H28.9125L30.0896 27.1566L29.9877 29.1373L29.4444 32.227Z" fill="white"/>
<path d="M29.6822 31.2078C29.6822 31.2078 28.1882 28.3218 28.1882 27.8917C28.1882 27.8917 28.4599 27.2466 28.8333 27.4051C29.2069 27.5636 30.0104 27.9937 30.0104 27.9937V26.975L28.1882 26.6016L26.9546 26.76L29.037 31.6945L29.467 31.7511" fill="#DCD9D8"/>
<path d="M23.1394 24.1577L21.6568 23.9991L20.2646 23.5691V24.0558L20.9437 24.8028L23.0828 25.7648" fill="white"/>
<path d="M20.7521 24.3154C20.7521 24.3154 22.4044 25.0058 22.9478 24.8474L23.0043 25.4925L21.5104 25.1756L20.605 24.5304L20.7521 24.3154Z" fill="#DCD9D8"/>
<path d="M31.5832 26.9076C30.6777 26.8849 29.8515 26.7718 29.1385 26.568C29.1837 26.2738 29.0932 25.9909 29.1725 25.7758C29.3762 25.6286 29.7043 25.6286 30.0099 25.5948C29.7496 25.4702 29.3762 25.4136 29.0819 25.4929C29.0705 25.2892 28.98 25.1646 28.9233 25.0062C29.4327 24.8251 30.6324 23.6368 31.3115 24.0215C31.6397 24.2139 31.7756 25.2778 31.7982 25.8098C31.8207 26.2398 31.7529 26.6699 31.5832 26.9076Z" fill="#D33833"/>
<path d="M31.5832 26.9076C30.6777 26.8849 29.8515 26.7718 29.1385 26.568C29.1837 26.2738 29.0932 25.9909 29.1725 25.7758C29.3762 25.6286 29.7043 25.6286 30.0099 25.5948C29.7496 25.4702 29.3762 25.4136 29.0819 25.4929C29.0705 25.2892 28.98 25.1646 28.9233 25.0062C29.4327 24.8251 30.6324 23.6368 31.3115 24.0215C31.6397 24.2139 31.7756 25.2778 31.7982 25.8098C31.8207 26.2398 31.7529 26.6699 31.5832 26.9076Z" fill="black"/>
<path fill-rule="evenodd" clip-rule="evenodd" d="M29.0715 25.0661C29.0727 25.0686 29.0738 25.0711 29.0749 25.0736C29.078 25.0805 29.0811 25.0874 29.0843 25.0945C29.0978 25.1244 29.1123 25.1566 29.1256 25.1893C29.1462 25.2399 29.1653 25.2947 29.1787 25.3565C29.4769 25.3119 29.8144 25.3744 30.0595 25.4917L30.4195 25.6639L30.0229 25.7079C29.9608 25.7148 29.9013 25.7201 29.8434 25.7252C29.7494 25.7335 29.6598 25.7415 29.5709 25.7553C29.4472 25.7745 29.3462 25.8027 29.2694 25.8485C29.2497 25.9246 29.2507 26.0169 29.257 26.136C29.2577 26.149 29.2584 26.1623 29.2592 26.1759C29.2644 26.269 29.2703 26.3744 29.2627 26.4839C29.9264 26.6637 30.6886 26.7666 31.5225 26.7916C31.5786 26.6946 31.6224 26.5642 31.651 26.4098C31.6845 26.229 31.6955 26.0231 31.6846 25.8155L31.6846 25.815L31.6846 25.8144C31.6735 25.5532 31.6345 25.161 31.5584 24.8124C31.5203 24.6379 31.4738 24.4783 31.4187 24.3529C31.362 24.2235 31.3044 24.1495 31.2548 24.1201C31.1221 24.0453 30.955 24.0414 30.7545 24.0973C30.5536 24.1532 30.3346 24.2649 30.1133 24.399C29.9423 24.5026 29.7751 24.6161 29.6168 24.7236C29.5704 24.7552 29.5247 24.7862 29.4799 24.8163C29.3342 24.9142 29.1936 25.0055 29.0715 25.0661ZM30.6933 23.8775C30.9242 23.8132 31.1614 23.8049 31.3681 23.9221L31.3688 23.9225L31.3695 23.9229C31.484 23.99 31.5661 24.121 31.6277 24.2613C31.6911 24.406 31.7415 24.5818 31.7813 24.7638C31.8608 25.1279 31.901 25.5333 31.9125 25.8041C31.9241 26.0264 31.9125 26.2503 31.8753 26.4514C31.8384 26.651 31.7747 26.836 31.6764 26.9737L31.6412 27.0229L31.5807 27.0214C30.6679 26.9985 29.8318 26.8844 29.1075 26.6775L29.0108 26.6499L29.0261 26.5505C29.0446 26.4302 29.0381 26.3117 29.0313 26.1872C29.0306 26.1742 29.0299 26.1611 29.0292 26.148C29.0223 26.0164 29.0169 25.8689 29.0658 25.7361L29.0778 25.7035L29.1061 25.6831C29.1781 25.6311 29.2605 25.5957 29.3465 25.5706C29.2646 25.5728 29.1851 25.5831 29.1119 25.6028L28.9762 25.6394L28.9684 25.4991C28.9636 25.4139 28.9426 25.3447 28.9143 25.2754C28.9027 25.2468 28.8904 25.2195 28.8771 25.1899C28.8737 25.1824 28.8702 25.1747 28.8667 25.1668C28.8498 25.1292 28.8321 25.0884 28.8163 25.0444L28.7778 24.9368L28.8855 24.8985C28.9967 24.859 29.1549 24.7599 29.3527 24.6269C29.3955 24.5981 29.4399 24.568 29.4856 24.537C29.6445 24.429 29.8185 24.3108 29.9951 24.2039C30.2222 24.0663 30.4623 23.9418 30.6933 23.8775Z" fill="#D33833"/>
<path d="M27.2486 25.425C27.2486 25.4929 27.2486 25.5607 27.2372 25.6287C26.9543 25.8098 26.5015 25.8098 26.1846 25.9682C26.6375 25.9908 26.9996 26.104 27.3165 26.2511C27.3051 26.4209 27.3051 26.6021 27.2939 26.7718C26.7732 27.1227 26.2979 27.6546 25.6868 27.9941C25.3925 28.1526 24.3852 28.5601 24.0796 28.4808C23.9098 28.4355 23.8872 28.2205 23.8193 28.0168C23.6722 27.5868 23.3326 26.8849 23.2987 26.2285C23.2647 25.4024 23.1742 24.0102 24.0682 24.18C24.7925 24.3158 25.6301 24.6441 26.1846 24.9497C26.5355 25.1534 26.7279 25.3797 27.2486 25.425Z" fill="#D33833"/>
<path d="M27.2486 25.425C27.2486 25.4929 27.2486 25.5607 27.2372 25.6287C26.9543 25.8098 26.5015 25.8098 26.1846 25.9682C26.6375 25.9908 26.9996 26.104 27.3165 26.2511C27.3051 26.4209 27.3051 26.6021 27.2939 26.7718C26.7732 27.1227 26.2979 27.6546 25.6868 27.9941C25.3925 28.1526 24.3852 28.5601 24.0796 28.4808C23.9098 28.4355 23.8872 28.2205 23.8193 28.0168C23.6722 27.5868 23.3326 26.8849 23.2987 26.2285C23.2647 25.4024 23.1742 24.0102 24.0682 24.18C24.7925 24.3158 25.6301 24.6441 26.1846 24.9497C26.5355 25.1534 26.7279 25.3797 27.2486 25.425Z" fill="black"/>
<path fill-rule="evenodd" clip-rule="evenodd" d="M23.4124 26.2227C23.4287 26.5348 23.5179 26.8623 23.6242 27.1698C23.6772 27.3232 23.7338 27.47 23.7868 27.6065C23.7908 27.6168 23.7948 27.627 23.7988 27.6372C23.847 27.7612 23.8922 27.8775 23.9271 27.9794L23.9272 27.9798L23.9274 27.9802C23.9417 28.0233 23.9543 28.0672 23.9657 28.1074C23.9686 28.1174 23.9714 28.1272 23.9741 28.1367C23.9884 28.186 24.0014 28.2279 24.0164 28.2638C24.0462 28.3356 24.0744 28.3608 24.1085 28.37C24.1569 28.3824 24.2537 28.3777 24.3949 28.3483C24.5305 28.3201 24.6893 28.2733 24.8503 28.2182C25.1727 28.1079 25.4915 27.969 25.6318 27.8935C25.9268 27.7296 26.1911 27.5181 26.4506 27.2995C26.4932 27.2636 26.5359 27.2273 26.5785 27.1911C26.7776 27.0219 26.9772 26.8524 27.1831 26.7088C27.1865 26.6439 27.1887 26.5771 27.1909 26.5089L27.1909 26.5073C27.1929 26.4463 27.1949 26.3841 27.1979 26.3224C26.909 26.196 26.5814 26.1017 26.1788 26.0817L25.7449 26.06L26.1334 25.8657C26.2933 25.7858 26.4826 25.7435 26.6541 25.7051C26.669 25.7018 26.6838 25.6985 26.6984 25.6952C26.8671 25.6571 27.0147 25.62 27.1308 25.5582C27.1317 25.5476 27.1324 25.5369 27.1328 25.5259C26.7723 25.4739 26.5575 25.3298 26.3438 25.1863C26.2735 25.1392 26.2034 25.0921 26.1283 25.0484C25.5827 24.748 24.7572 24.4248 24.047 24.2916L24.0468 24.2915C23.8556 24.2553 23.734 24.3028 23.6475 24.3915C23.5537 24.4875 23.488 24.6453 23.4472 24.8524C23.3708 25.2391 23.3918 25.7347 23.4089 26.1399C23.4101 26.168 23.4113 26.1956 23.4124 26.2227ZM24.0892 24.0674C23.8334 24.0189 23.6311 24.0816 23.4842 24.2321C23.3445 24.3752 23.2674 24.5852 23.2233 24.8082C23.1415 25.2231 23.1637 25.7452 23.1807 26.1438C23.182 26.1742 23.1833 26.2039 23.1845 26.2327L23.1845 26.2333L23.1846 26.2339C23.2024 26.5781 23.2998 26.9295 23.4086 27.2443C23.4631 27.4022 23.5211 27.5526 23.5742 27.6891C23.578 27.699 23.5819 27.7088 23.5856 27.7185C23.6344 27.8439 23.6778 27.9557 23.7111 28.0528C23.7236 28.0905 23.7344 28.1283 23.7457 28.1677C23.7488 28.1784 23.7518 28.1891 23.755 28.2C23.7694 28.2498 23.7854 28.3026 23.8058 28.3516C23.8465 28.4494 23.9145 28.5544 24.0501 28.5905L24.0504 28.5906L24.0508 28.5907C24.1553 28.6178 24.2989 28.6013 24.4413 28.5717C24.5897 28.5408 24.7584 28.4908 24.9242 28.4341C25.2549 28.321 25.5864 28.1771 25.7407 28.094L25.7413 28.0937L25.742 28.0933C26.0579 27.9179 26.3366 27.6938 26.5976 27.474C26.642 27.4366 26.6858 27.3993 26.7291 27.3625C26.9432 27.1807 27.1464 27.0081 27.3575 26.8659L27.4039 26.8346L27.4075 26.7788C27.4132 26.6928 27.416 26.6044 27.4188 26.5181L27.4189 26.5147C27.4218 26.4266 27.4246 26.3409 27.4301 26.2583L27.4353 26.1801L27.3643 26.1472C27.1693 26.0566 26.9569 25.9782 26.7178 25.9247C26.728 25.9224 26.7383 25.9201 26.7486 25.9177C26.9337 25.876 27.1375 25.8273 27.2985 25.7242L27.3411 25.697L27.3495 25.6471C27.3625 25.5696 27.3625 25.4938 27.3625 25.4282V25.3199L27.2583 25.3108C26.8954 25.2793 26.7176 25.1603 26.495 25.0115C26.4189 24.9606 26.3375 24.9061 26.2417 24.8505L26.2406 24.8499L26.2395 24.8493C25.6759 24.5387 24.827 24.2058 24.0892 24.0674Z" fill="#D33833"/>
<path d="M27.7575 26.4094C27.6782 25.9565 27.5876 25.8322 27.6216 25.436C28.8326 24.6324 29.0477 26.8168 27.7575 26.4094Z" fill="#D33833"/>
<path d="M27.7575 26.4094C27.6782 25.9565 27.5876 25.8322 27.6216 25.436C28.8326 24.6324 29.0477 26.8168 27.7575 26.4094Z" fill="black"/>
<path fill-rule="evenodd" clip-rule="evenodd" d="M27.7305 25.5013C27.7215 25.6564 27.7345 25.7639 27.7581 25.8783C27.7669 25.9209 27.7781 25.9681 27.7907 26.0209C27.8106 26.1049 27.834 26.203 27.8562 26.3191C28.1122 26.3839 28.2749 26.3251 28.3717 26.2333C28.4822 26.1285 28.5324 25.9574 28.5135 25.7866C28.4944 25.6155 28.4094 25.4715 28.2833 25.4082C28.1692 25.351 27.9883 25.344 27.7305 25.5013ZM28.5286 26.3989C28.3487 26.5694 28.0736 26.629 27.7224 26.5181L27.6564 26.4972L27.6444 26.429C27.6193 26.2853 27.5946 26.1822 27.5719 26.0878C27.5587 26.0325 27.5462 25.9802 27.5347 25.9244C27.5044 25.7776 27.4892 25.6363 27.5073 25.4261L27.512 25.3713L27.5579 25.3409C27.8806 25.1267 28.1659 25.0941 28.3856 25.2043C28.6002 25.3119 28.7153 25.5379 28.7402 25.7614C28.7651 25.9854 28.7028 26.2338 28.5286 26.3989Z" fill="#D33833"/>
<path d="M29.501 26.7712C29.501 26.7712 29.1276 26.2392 29.3992 26.0807C29.6709 25.9223 29.9312 26.0807 30.0896 25.8092C30.2481 25.5375 30.0896 25.3791 30.1462 25.0622C30.2027 24.7453 30.463 24.6887 30.7347 24.6321C31.0063 24.5755 31.7533 24.4736 31.8552 24.734L31.5383 23.7719L30.8932 23.5569L28.8673 24.734L28.7654 25.3226V26.4996M23.8875 28.5367C23.8196 27.6992 23.7517 26.873 23.6838 26.0355C23.5706 24.7906 23.978 25.0055 25.0645 25.0055C25.2343 25.0055 26.083 25.198 26.1397 25.3226C26.434 25.9223 25.653 25.7865 26.4792 26.2392C27.1696 26.6127 28.4033 26.0129 28.1203 25.164C27.9618 24.9716 27.3054 25.1074 27.0677 24.9829L25.8115 24.3379C25.2796 24.0662 24.0572 23.6587 23.4913 24.0436C22.0539 25.0169 23.5819 27.4616 24.0912 28.4801" fill="#EF3D3A"/>
<path d="M25.3019 9.60227C23.8419 9.26271 23.1176 10.2134 22.6762 11.198C22.28 11.1075 22.4385 10.5643 22.5404 10.2927C22.8006 9.57969 23.8533 8.61758 24.7133 8.75342C25.0755 8.79871 25.5734 9.13827 25.3019 9.60227ZM32.3981 11.2546H32.466C32.7943 11.9337 33.0771 12.6581 33.496 13.2693C33.2131 13.9257 31.3908 14.4915 31.4134 13.3371C31.8096 13.1674 32.4887 13.3031 32.8395 13.0768C32.6358 12.5223 32.3528 12.0467 32.3981 11.2546ZM26.0376 11.2774C26.3544 11.8545 26.4562 12.4544 26.8976 12.8845C27.1014 13.0768 27.4862 13.3145 27.2938 13.8577C27.2486 13.9823 26.9203 14.2652 26.7279 14.3218C26.0376 14.5255 24.419 14.3671 24.9623 13.4956C25.5395 13.5182 26.3091 13.8691 26.7393 13.4503C26.411 12.9297 25.8224 11.8884 26.0376 11.2774ZM32.1378 17.0946C31.0966 17.7624 29.9307 18.4981 28.2106 18.3282C27.8484 18.0114 27.7013 17.2983 28.0634 16.8344C28.2444 17.1512 28.1313 17.7398 28.652 17.8302C29.6253 18.0001 30.757 17.2304 31.4587 16.9702C31.8887 16.2345 31.4248 15.9742 31.0287 15.4988C30.2251 14.5368 29.1613 13.3371 29.1951 11.8998C29.5234 11.6621 29.546 12.262 29.5913 12.3638C30.01 13.3371 31.0627 14.5934 31.8209 15.431C32.0133 15.6347 32.3188 15.8384 32.3528 15.9742C32.4547 16.359 32.0925 16.8341 32.1378 17.0946ZM18.3526 16.393C18.0245 16.2005 17.9453 15.3857 17.5605 15.363C17.0059 15.3291 17.1078 16.4269 17.1078 17.072C16.7343 16.7325 16.6663 15.6685 16.938 15.1254C16.6212 14.9668 16.4852 15.2951 16.3042 15.4083C16.5419 13.7672 18.7148 14.65 18.3526 16.393ZM32.7943 17.785C32.3076 18.7131 31.6171 19.7317 30.1911 19.7657C30.1571 19.4714 30.1346 19.0074 30.1911 18.8262C31.289 18.7131 31.968 18.1585 32.7943 17.785ZM25.9583 18.3848C26.8637 18.8602 28.5387 18.9168 29.7837 18.8828C29.8516 19.1545 29.8516 19.494 29.8516 19.8222C28.2558 19.8901 26.377 19.494 25.9583 18.3848ZM25.7886 19.2677C26.4223 20.8521 28.584 20.6711 30.4061 20.6258C30.327 20.8295 30.1571 21.0785 29.9308 21.1577C29.3423 21.3954 27.7351 21.5765 26.9203 21.1464C26.411 20.8748 26.0714 20.2522 25.7886 19.8901C25.664 19.7204 24.985 19.279 25.7886 19.2677Z" fill="#231F20"/>
<path d="M32.0583 27.9935C31.3226 29.261 30.6097 30.5626 29.7383 31.6717C30.1003 30.5966 30.2587 28.7858 30.3154 27.405C31.085 27.0428 31.7414 27.4841 32.0583 27.9935Z" fill="#81B0C4"/>
<path d="M36.0303 32.5435C35.2041 32.7132 34.6269 33.5167 33.812 33.4602C34.2647 32.8376 35.0343 32.566 36.0303 32.5435ZM36.3924 33.8336C35.7134 33.9016 34.9212 34.0147 34.2421 33.9582C34.5703 33.4602 35.8153 33.6412 36.3924 33.8336ZM36.6301 34.9542C35.8719 34.9655 34.9324 34.9542 34.2081 34.8975C34.6382 34.4335 36.1434 34.7277 36.6301 34.9542Z" fill="#231F20"/>
<path d="M30.6329 38.0104C30.7461 38.9611 31.1196 39.9232 31.0743 40.9644C30.6555 41.1001 30.4179 41.2246 29.8519 41.2246C29.8181 40.3418 29.6935 38.9838 29.7275 38.1349C29.9991 38.1575 30.4065 37.9425 30.6329 38.0104Z" fill="#DCD9D8"/>
<path d="M29.4097 23.9766C29.0249 24.2254 28.708 24.531 28.3345 24.8027C27.5196 24.848 27.0782 24.7461 26.4897 24.2821C26.501 24.2481 26.5576 24.2594 26.5576 24.2142C27.429 24.599 28.5382 24.0558 29.4097 23.9766Z" fill="#F0D6B7"/>
<path d="M24.8599 29.8954C25.0976 28.8654 26.037 28.3222 26.8857 27.7563C27.7572 28.8655 28.2891 30.2915 28.8777 31.6722C27.4856 31.2535 26.0709 30.5858 24.8599 29.8954Z" fill="#81B0C4"/>
<path d="M29.7276 38.1459C29.6937 38.9948 29.8068 40.3416 29.8521 41.2357C30.4181 41.2357 30.6557 41.1112 31.0745 40.9754C31.1198 39.9341 30.7462 38.9721 30.6331 38.0214C30.4067 37.9422 29.9992 38.1572 29.7276 38.1459ZM20.9903 33.3472C21.3638 36.7538 21.8957 39.6058 22.8803 42.6278C25.0647 43.2955 27.6904 43.3521 29.6258 42.7522C29.2749 41.0546 29.4221 38.9835 29.2184 37.1612C29.0598 35.7918 29.1391 34.4224 28.9241 33.0303C26.5812 32.5437 23.2765 32.9171 20.9903 33.3472ZM29.4787 33.053C29.456 34.513 29.5465 35.9615 29.6598 37.4215C30.2255 37.3424 30.5991 37.2858 31.1198 37.1612C30.9499 35.7578 30.9726 34.1621 30.6218 32.9171C30.2256 32.9285 29.8747 32.9172 29.4787 33.053ZM32.3194 32.8153C32.0478 32.7587 31.7422 32.8153 31.4932 32.8153C31.6177 34.0037 31.9006 35.3165 32.0025 36.5728C32.3986 36.5841 32.6136 36.3917 32.9419 36.3351C32.9645 35.2372 32.8514 33.7207 32.3194 32.8153ZM36.6315 36.7538C37.469 36.5501 37.9896 35.5315 37.7519 34.479C37.5935 33.7773 37.3219 32.4418 37.0162 31.989C36.8012 31.6608 36.2014 31.2194 35.7148 31.525C34.9338 32.023 33.5644 32.1701 32.9985 32.77C33.2814 33.7207 33.3719 35.011 33.4851 36.2105C34.4585 36.2672 35.6468 35.9391 36.4618 36.2898C35.8958 36.4709 35.1715 36.4709 34.6848 36.7425C35.0922 36.935 36.0203 36.901 36.6315 36.7538ZM28.8675 31.6721C28.2789 30.2914 27.7471 28.8654 26.8755 27.7563C26.0267 28.322 25.0987 28.8654 24.8497 29.8953C26.072 30.5857 27.4868 31.2534 28.8675 31.6721ZM30.3161 27.4054C30.2595 28.7861 30.1011 30.597 29.7389 31.6721C30.6104 30.5517 31.3235 29.2614 32.0591 27.9939C31.7422 27.4846 31.0858 27.0431 30.3162 27.4053L30.3161 27.4054ZM28.6751 26.8283C28.3468 26.7942 28.0639 27.213 27.6338 27.0319C27.532 27.145 27.4414 27.2583 27.3395 27.3714C28.2902 28.5257 28.7317 30.1557 29.4674 31.5024C29.8635 30.201 29.8182 28.7861 29.9088 27.3714C29.3655 27.394 29.0599 26.8622 28.6751 26.8283ZM27.6225 25.436C27.5885 25.8322 27.6791 25.9567 27.7583 26.4094C29.0485 26.8168 28.8335 24.6325 27.6225 25.436ZM26.1851 24.9607C25.6305 24.655 24.7931 24.3269 24.0687 24.1911C23.1747 24.0213 23.2651 25.4134 23.2991 26.2397C23.3331 26.896 23.6727 27.5864 23.8198 28.0278C23.8877 28.2316 23.9103 28.4466 24.0801 28.4918C24.3857 28.5598 25.4042 28.1637 25.6872 28.0051C26.2984 27.677 26.7737 27.1451 27.2944 26.7829C27.3057 26.6131 27.3057 26.432 27.3169 26.2623C27.0001 26.1037 26.6492 26.002 26.1851 25.9794C26.4908 25.8209 26.9548 25.8209 27.2377 25.6398C27.2377 25.5719 27.2377 25.504 27.2491 25.436C26.7284 25.3794 26.536 25.1531 26.1851 24.9607ZM20.8658 23.9987C20.4018 24.474 22.1673 25.1079 22.722 25.1418C22.722 24.8476 22.8917 24.5647 22.8577 24.3496C22.19 24.2364 21.3185 24.3156 20.8658 23.9987ZM26.5701 24.2137C26.5701 24.259 26.5134 24.2477 26.5021 24.2817C27.1019 24.7457 27.5432 24.8475 28.3468 24.8023C28.7091 24.542 29.0372 24.2251 29.4221 23.976C28.5392 24.0553 27.4302 24.5986 26.5701 24.2137ZM31.7988 25.7983C31.7762 25.2776 31.6402 24.2024 31.3121 24.01C30.6331 23.6139 29.4334 24.8136 28.9241 24.9947C28.9807 25.1531 29.0712 25.2776 29.0825 25.4813C29.3882 25.4021 29.7502 25.4587 30.0105 25.5832C29.705 25.6171 29.3768 25.6171 29.1731 25.7643C29.1051 25.9793 29.1957 26.2623 29.1391 26.5566C29.8521 26.7603 30.6784 26.8621 31.5838 26.896C31.7535 26.6697 31.8214 26.2396 31.7988 25.7983ZM20.0848 24.4514C19.9377 24.3496 18.9531 23.0706 18.8173 23.1272C17.0404 23.829 15.3767 25.04 13.894 26.1943C15.3087 29.2388 15.886 32.9624 15.9879 36.5501C17.6064 37.3084 19.0323 38.4062 21.2393 38.5194C20.979 36.7199 20.7527 35.1014 20.6055 33.4037C20.051 33.1661 19.2587 33.4151 18.7381 33.3358C18.7381 32.7134 19.5303 33.0643 19.5981 32.6455C19.6435 32.3286 19.1567 32.306 19.3153 31.808C19.7227 31.9551 19.9377 32.2833 20.3678 32.4078C20.764 31.5477 20.3678 30.0198 20.4244 29.2954C20.4358 29.1597 20.4923 28.5484 20.7978 28.6503C21.0695 28.7408 20.7866 30.2914 20.8093 30.9704C20.8318 31.6043 20.73 32.2041 20.9903 32.6003C23.1181 32.306 25.2798 32.1248 27.5885 32.057C27.0792 31.842 26.4794 31.6383 25.823 31.2647C25.4608 31.061 24.3404 30.6423 24.2385 30.3027C24.0687 29.7594 24.6685 29.4765 24.7704 29.0124C23.6953 29.601 23.4915 28.4467 23.2312 27.643C23.0048 26.9073 22.8691 26.3528 22.8125 25.934C21.8731 25.4587 20.8771 25.0173 20.0848 24.4514ZM30.8594 23.2743C32.3421 22.5614 32.6136 25.9567 32.0251 27.0546C32.1157 27.3827 32.4212 27.5073 32.5458 27.8014C31.7195 29.2841 30.8029 30.6648 29.9539 32.1248C30.5765 31.7287 31.4819 32.057 32.2175 31.7627C32.4892 31.6608 32.6816 31.0384 32.8853 30.5404C33.4511 29.1823 34.0396 27.4619 34.3001 26.1718C34.3566 25.8775 34.5264 25.2323 34.4811 24.972C34.4132 24.4967 33.7794 24.1459 33.4511 23.8629C32.8514 23.3196 32.4778 22.8557 31.844 22.3463C31.6064 22.7199 31.0631 22.9687 30.8594 23.2744V23.2743ZM16.7009 10.1344C15.9991 10.9154 16.1463 12.3641 16.2256 13.4052C17.5044 12.6018 19.1908 13.4732 19.1794 14.8313C19.7906 14.8199 19.4058 14.073 19.2927 13.5863C18.9304 12.0132 19.9038 10.3155 19.3379 8.87821C18.2401 8.96866 17.346 9.40996 16.7009 10.1344ZM21.7486 5.61866C20.1528 6.07137 18.1043 7.23708 17.4478 8.67438C17.9571 8.59522 18.308 8.34622 18.806 8.31223C18.9984 8.30094 19.2474 8.3915 19.4624 8.33493C19.8924 8.22178 20.266 7.24837 20.5941 6.88623C20.9111 6.53537 21.2958 6.37694 21.5562 6.06008C21.726 5.9808 21.9749 5.9808 21.9863 5.73181C21.9184 5.65253 21.8391 5.59607 21.7486 5.61866ZM30.0671 6.04867C28.4035 5.10937 25.5967 4.40766 23.8311 5.29039C22.405 6.00339 20.4811 7.18039 19.8246 8.6632C20.4357 10.1004 19.6435 11.4132 19.5869 12.8732C19.5643 13.6542 19.9491 14.322 19.983 15.1709C19.768 15.5217 19.1341 15.5556 18.6928 15.533C18.5457 14.7859 18.2854 13.9485 17.5157 13.8579C16.4293 13.7335 15.6257 14.6389 15.5804 15.5783C15.5238 16.6875 16.4293 18.5209 17.7194 18.3965C18.2174 18.3512 18.342 17.8532 18.8851 17.8532C19.1794 18.4417 18.4325 18.6228 18.3533 19.0415C18.3306 19.1547 18.4098 19.5735 18.4664 19.7772C18.7041 20.7392 19.2247 21.9955 19.734 22.7311C20.3904 23.6705 21.6694 23.8063 23.0501 23.8969C23.2991 23.3649 24.2045 23.4102 24.793 23.546C24.0801 23.2631 23.4237 22.584 22.8804 21.9842C22.2578 21.2937 21.6241 20.5582 21.5901 19.6527C22.7785 21.2937 23.7518 22.7311 25.9022 23.4556C27.532 23.9987 29.4334 23.2064 30.6896 22.3237C31.2102 21.9615 31.5158 21.373 31.8894 20.8523C33.2701 18.8605 33.9152 16.0309 33.7794 13.2808C33.7228 12.149 33.7228 11.0172 33.3379 10.2589C32.9419 9.46665 31.5951 8.74236 30.8028 9.46665C30.6557 8.68578 31.4592 8.21037 32.3985 8.49336C31.7309 7.62193 31.0292 6.59195 30.0671 6.04867ZM33.1682 31.6383C34.4698 30.9931 36.8918 29.9066 37.6953 31.6383C38.001 32.2833 38.3518 33.3585 38.4989 34.0263C38.7139 34.9544 38.2612 36.9237 37.2992 37.2291C36.4503 37.5008 35.4658 37.4895 34.4472 37.2858C34.3226 37.1839 34.1982 37.0141 34.0963 36.833C33.372 36.8104 32.6816 36.8671 32.1157 37.1727C32.1722 37.7158 31.8101 37.7951 31.4592 37.9084C31.2102 38.9155 31.9685 40.2284 31.7875 41.1338C31.6629 41.7902 30.8594 41.8921 30.2709 42.0052C30.2482 42.3675 30.2935 42.6731 30.3388 42.9786C30.2031 43.4766 29.6031 43.7595 29.0259 43.8275C27.1359 44.0538 24.2725 44.1556 22.4617 43.4992C21.9523 42.2543 21.5562 40.7491 21.1374 39.3344C19.3718 39.5267 17.9345 38.576 16.5877 37.9422C16.1237 37.7272 15.4786 37.6027 15.2974 37.2292C15.1277 36.8671 15.1956 36.1767 15.1503 35.5315C15.0484 33.8678 14.9466 32.2607 14.5166 30.563C14.3241 29.7934 13.9733 29.1257 13.7356 28.3901C13.5093 27.711 13.1244 26.8621 13.0226 26.183C12.8754 25.1758 13.8261 25.1192 14.426 24.6777C15.3654 23.9987 16.101 23.6252 17.1196 23.014C17.4253 22.833 18.3306 22.3803 18.4324 22.1652C18.6363 21.7466 18.0817 21.158 17.9345 20.8297C17.6968 20.3092 17.5723 19.8677 17.5384 19.3583C16.6896 19.2226 16.0331 18.7133 15.6484 18.1475C15.0032 17.1967 14.5504 15.4425 15.1164 14.1183C15.1617 14.0165 15.3767 13.8013 15.4107 13.6429C15.4786 13.3261 15.2861 12.9072 15.2749 12.5678C15.2183 10.8361 15.5691 9.3421 16.7348 8.82152C17.2101 6.93151 18.9077 6.30907 20.5037 5.36966C21.1035 5.01881 21.76 4.79251 22.439 4.54339C24.8723 3.64938 28.6185 3.8191 30.6444 5.34696C31.5045 5.9921 32.8739 7.36152 33.3606 8.35751C34.6621 10.9719 34.5603 15.3519 33.6549 18.5436C33.5304 18.9736 33.3606 19.596 33.1116 20.1167C32.9419 20.4789 32.4099 21.1919 32.4665 21.5087C32.5345 21.837 33.6889 22.7085 33.9379 22.9462C34.3793 23.3762 35.2281 23.9421 35.2959 24.4854C35.3752 25.0626 35.047 25.8549 34.8773 26.4094C34.3339 28.2656 33.7908 29.9745 33.1682 31.6383Z" fill="#231F20"/>
<path d="M24.5096 18.7811C24.5775 18.6905 24.9622 18.5435 25.5055 18.8038C25.5055 18.8038 24.8604 18.9056 24.917 19.9809L24.6454 19.9242C24.6568 19.9356 24.3738 18.9622 24.5096 18.7811Z" fill="#F7E4CD"/>
<path d="M29.1955 27.9715C29.1955 28.13 29.0598 28.2658 28.9012 28.2658C28.7428 28.2658 28.6069 28.13 28.6069 27.9715C28.6069 27.813 28.7428 27.6772 28.9012 27.6772C29.0711 27.6772 29.1955 27.813 29.1955 27.9715ZM29.4898 29.341C29.4898 29.4995 29.354 29.6352 29.1955 29.6352C29.0371 29.6352 28.9012 29.4995 28.9012 29.341C28.9012 29.1824 29.0371 29.0467 29.1955 29.0467C29.3653 29.0467 29.4898 29.1712 29.4898 29.341Z" fill="#1D1919"/>
</svg>
