<svg width="48" height="48" viewBox="0 0 48 48" fill="none" xmlns="http://www.w3.org/2000/svg">
<rect width="48" height="48" rx="4" fill="url(#paint0_linear_2486_710)" fill-opacity="0.85"/>
<path d="M20.466 5C21.8093 5 22.575 6.33827 22.575 7.68224V15.9191H20.8745C20.5438 15.1011 19.9391 14.4238 19.1639 14.003C18.3888 13.5823 17.4916 13.4443 16.6259 13.6129C15.7603 13.7814 14.9802 14.2459 14.4194 14.9268C13.8585 15.6076 13.5518 16.4625 13.5518 17.3448C13.5518 18.2271 13.8585 19.0819 14.4194 19.7628C14.9802 20.4436 15.7603 20.9081 16.6259 21.0767C17.4916 21.2452 18.3888 21.1073 19.1639 20.6865C19.9391 20.2658 20.5438 19.5884 20.8745 18.7705H22.575V39.487C22.575 40.62 22.0962 41.7473 21.0873 42.2624C20.1724 42.7418 19.156 42.9947 18.1233 43C15.2543 43 13.1206 41.5477 11.7469 39.8292C10.7972 38.6422 10.134 37.2521 9.8089 35.7669C8.9217 35.5048 8.09999 35.0578 7.3978 34.4552C6.0488 33.2937 5 31.4308 5 28.6858C5 27.2506 5.1026 25.9998 5.361 24.9486H13.36C14.6482 24.9486 15.716 25.8991 15.8965 27.1366C15.0822 27.4736 14.4103 28.0834 13.9958 28.8614C13.5813 29.6395 13.4499 30.5375 13.6243 31.4017C13.7986 32.266 14.2677 33.0428 14.9513 33.5991C15.635 34.1555 16.4906 34.4568 17.3719 34.4515C18.2531 34.4463 19.1051 34.1347 19.782 33.5703C20.459 33.0058 20.9188 32.2234 21.0828 31.3572C21.2468 30.4909 21.1047 29.5945 20.681 28.8215C20.2572 28.0484 19.5781 27.4468 18.7598 27.1195C18.66 25.7548 18.0478 24.4785 17.0461 23.5469C16.0445 22.6153 14.7276 22.0973 13.36 22.0971H6.976C7.25996 21.8611 7.57679 21.6677 7.9165 21.5231C7.72243 20.8242 7.60896 20.1054 7.5783 19.3807C7.5156 17.9835 7.7246 16.5293 8.1388 15.2347C8.5492 13.9611 9.199 12.7198 10.111 11.8624C10.6816 11.3026 11.407 10.9271 12.1934 10.7846C12.5715 9.18779 13.5348 7.86853 14.7641 6.91236C16.343 5.68054 18.4121 5 20.4641 5M25.425 33.5029H28.56C29.9961 33.5029 31.3735 32.9321 32.389 31.916C33.4045 30.9 33.975 29.522 33.975 28.0851V24.6729C34.7925 24.3421 35.4695 23.737 35.8901 22.9615C36.3106 22.186 36.4485 21.2883 36.28 20.4223C36.1116 19.5562 35.6473 18.7757 34.9668 18.2146C34.2863 17.6534 33.4319 17.3466 32.55 17.3466C31.6681 17.3466 30.8137 17.6534 30.1332 18.2146C29.4527 18.7757 28.9884 19.5562 28.82 20.4223C28.6515 21.2883 28.7894 22.186 29.2099 22.9615C29.6305 23.737 30.3075 24.3421 31.125 24.6729V28.0851C31.125 28.7658 30.8548 29.4185 30.3737 29.8998C29.8927 30.3811 29.2403 30.6514 28.56 30.6514H25.425V7.68224C25.425 6.33827 26.1907 5 27.534 5C29.5898 5 31.657 5.68054 33.2359 6.91236C34.4652 7.86853 35.4285 9.18969 35.8066 10.7846C36.6046 10.9177 37.3152 11.3245 37.889 11.8624C38.801 12.7198 39.4508 13.9592 39.8612 15.2347C40.2754 16.5293 40.4844 17.9835 40.4217 19.3807C40.3894 20.0954 40.2849 20.8254 40.0835 21.5231L40.2089 21.5801C40.9119 21.9109 41.4819 22.4298 41.9075 23.1199C42.715 24.422 43 26.2963 43 28.6858C43 31.4327 41.9512 33.2975 40.6022 34.4552C39.8995 35.058 39.0771 35.505 38.1892 35.7669C37.8646 37.2519 37.2021 38.6421 36.2531 39.8292C34.8794 41.5477 32.7457 43 29.8748 43C28.8422 42.9953 27.8258 42.743 26.9108 42.2643C25.9038 41.7473 25.425 40.62 25.425 39.487V33.5029ZM16.4 17.3448C16.4 17.0927 16.5001 16.8509 16.6782 16.6727C16.8564 16.4944 17.098 16.3943 17.35 16.3943C17.602 16.3943 17.8436 16.4944 18.0218 16.6727C18.1999 16.8509 18.3 17.0927 18.3 17.3448C18.3 17.5969 18.1999 17.8386 18.0218 18.0169C17.8436 18.1951 17.602 18.2952 17.35 18.2952C17.098 18.2952 16.8564 18.1951 16.6782 18.0169C16.5001 17.8386 16.4 17.5969 16.4 17.3448ZM17.35 29.701C17.098 29.701 16.8564 29.8011 16.6782 29.9793C16.5001 30.1576 16.4 30.3993 16.4 30.6514C16.4 30.9035 16.5001 31.1453 16.6782 31.3235C16.8564 31.5018 17.098 31.6019 17.35 31.6019C17.602 31.6019 17.8436 31.5018 18.0218 31.3235C18.1999 31.1453 18.3 30.9035 18.3 30.6514C18.3 30.3993 18.1999 30.1576 18.0218 29.9793C17.8436 29.8011 17.602 29.701 17.35 29.701ZM31.6 21.1467C31.6 21.3988 31.7001 21.6405 31.8782 21.8188C32.0564 21.997 32.298 22.0971 32.55 22.0971C32.802 22.0971 33.0436 21.997 33.2218 21.8188C33.3999 21.6405 33.5 21.3988 33.5 21.1467C33.5 20.8946 33.3999 20.6528 33.2218 20.4746C33.0436 20.2963 32.802 20.1962 32.55 20.1962C32.298 20.1962 32.0564 20.2963 31.8782 20.4746C31.7001 20.6528 31.6 20.8946 31.6 21.1467Z" fill="white"/>
<defs>
<linearGradient id="paint0_linear_2486_710" x1="-4.69387e-07" y1="-3" x2="48" y2="48" gradientUnits="userSpaceOnUse">
<stop stop-color="#50129E"/>
<stop offset="1" stop-color="#D921BB"/>
</linearGradient>
</defs>
</svg>
