<svg width="48" height="48" viewBox="0 0 48 48" fill="none" xmlns="http://www.w3.org/2000/svg">
<rect width="48" height="48" rx="4" fill="white"/>
<path d="M24 6.5C14.3477 6.5 6.5 14.3477 6.5 24C6.5 33.6524 14.3477 41.5 24 41.5C33.6524 41.5 41.5 33.6524 41.5 24C41.5 14.3477 33.6524 6.5 24 6.5Z" fill="#FDDD4C"/>
<path d="M16.3359 28.5628C15.9532 27.9835 16.9157 27.1067 16.5242 26.3705C16.2985 25.946 15.9297 25.6813 15.4867 25.6258C15.0616 25.5725 14.6236 25.7281 14.3445 26.0322C13.9038 26.5118 13.8352 27.1647 13.9205 27.3957C13.9517 27.4803 14.0007 27.5035 14.0358 27.5085C14.2759 27.5401 14.4109 26.924 14.4938 26.7956C14.723 26.442 15.2433 26.335 15.6026 26.5673C16.284 27.0081 15.6931 27.7203 15.7441 28.3218C15.7937 28.9076 16.1587 29.1431 16.4863 29.1678C16.8051 29.1798 17.0279 29.0028 17.0842 28.8736C17.2191 28.565 16.6507 29.0395 16.3359 28.5628Z" fill="black"/>
<path d="M30.5722 23.2447C30.3935 23.22 30.1982 23.2205 29.995 23.2447C29.8407 23.05 29.7025 22.7348 29.6245 22.3669C29.4857 21.7124 29.5002 21.2383 29.8875 21.1767C30.2747 21.1152 30.4618 21.5112 30.6006 22.1657C30.6937 22.6057 30.6758 23.0099 30.5722 23.2447Z" fill="black"/>
<path d="M26.3306 23.6342C26.3459 23.7823 26.3513 23.9323 26.3469 24.0705C26.7217 24.0925 26.9871 24.2703 27.0577 24.3833C27.0939 24.4416 27.0794 24.4796 27.0678 24.4971C27.0289 24.5575 26.9458 24.5482 26.7717 24.5286C26.6196 24.5116 26.4558 24.4966 26.2856 24.5043C26.1929 24.7885 25.9183 24.8151 25.7253 24.605C25.5906 24.646 25.3258 24.8151 25.2468 24.6313C25.2462 24.5402 25.3416 24.4076 25.5142 24.2906C25.3963 24.0657 25.3173 23.8251 25.2707 23.5758C25.0259 23.62 24.8057 23.6885 24.6331 23.7422C24.5521 23.7675 24.2314 23.9123 24.1938 23.7491C24.1687 23.6363 24.3442 23.4505 24.5298 23.3162C24.7371 23.1691 24.9671 23.0645 25.2056 23.0041C25.2004 22.6491 25.2909 22.4013 25.5489 22.3603C25.8687 22.3095 26.0669 22.5557 26.2041 23.0116C26.5906 23.119 26.9766 23.3852 27.1469 23.6605C27.2132 23.7672 27.2261 23.8497 27.1831 23.8932C27.0759 24.0042 26.4826 23.6823 26.3306 23.6342Z" fill="black"/>
<path d="M28.8722 25.2297C29.1173 25.3484 29.387 25.3017 29.475 25.1252C29.563 24.9486 29.4355 24.7093 29.1903 24.5906C28.9452 24.4718 28.6755 24.5186 28.5874 24.6951C28.4994 24.8716 28.627 25.1108 28.8722 25.2297Z" fill="black"/>
<path d="M30.0792 24.353C30.0836 24.083 30.2491 23.8674 30.4481 23.8706C30.6469 23.8745 30.8046 24.0956 30.8002 24.3651C30.7957 24.6346 30.6302 24.8503 30.4313 24.8469C30.2323 24.8436 30.0747 24.6225 30.0792 24.353Z" fill="black"/>
<path fill-rule="evenodd" clip-rule="evenodd" d="M35.4731 27.6601C35.4715 27.6545 35.477 27.674 35.4731 27.6601C35.8726 27.6601 36.5 28.1134 36.5 29.2084C36.5 30.298 36.042 31.5321 35.9339 31.8061C34.2841 35.7089 30.3465 37.8814 25.656 37.7439C21.2833 37.6157 17.554 35.3381 15.922 31.6251C14.9353 31.6262 13.9178 31.1977 13.1445 30.5212C12.3293 29.8085 11.8267 28.8861 11.7287 27.9241C11.6523 27.1751 11.7454 26.4782 11.9833 25.8705L11.0667 25.1037C6.87221 21.608 19.9911 7.21456 24.1868 10.8269C24.2079 10.8451 25.6143 12.2069 25.6176 12.2102C27.6406 11.3623 33.0611 9.748 33.0671 13.506C33.0694 14.7539 32.2638 16.2092 30.9728 17.5297C32.4648 18.8955 32.0713 20.8356 32.3089 22.6156L32.827 22.7575C33.8149 23.0309 34.5175 23.3955 34.8614 23.7519C35.2051 24.1077 35.3756 24.4526 35.4375 24.8569C35.4954 25.183 35.4876 25.7589 35.0519 26.4029C35.2088 26.8184 35.352 27.2326 35.4731 27.6601ZM15.8479 30.6126C15.9945 30.6159 16.1399 30.6065 16.2825 30.5824C17.8154 30.3244 18.2165 28.681 17.9641 27.0672C17.6789 25.2451 16.4302 24.6027 15.5827 24.5571C15.347 24.545 15.128 24.5659 14.9475 24.6016C13.4348 24.9025 12.5806 26.173 12.7489 27.823C12.901 29.3162 14.431 30.5751 15.8479 30.6126ZM12.4218 25.0494C12.9294 24.3217 13.759 23.7954 14.7007 23.6144C15.8992 20.4387 17.9006 17.5127 20.5495 15.4992C22.5153 13.8805 24.6353 12.7195 24.6353 12.7195C24.6353 12.7195 23.4936 11.4127 23.1488 11.3164C21.0275 10.751 16.4463 13.8695 13.5211 17.9901C12.3377 19.6571 10.6433 22.6095 11.4534 24.1281C11.5531 24.3162 12.1187 24.7996 12.4218 25.0494ZM29.6194 29.8832C29.6226 29.9174 29.6015 29.9526 29.5709 29.9652C29.5709 29.9652 27.8664 30.7479 25.159 29.9212C25.2564 30.7327 26.2405 31.0402 26.9281 31.1516C30.2829 31.7214 33.4194 29.8277 34.1253 29.3509C34.2465 29.269 34.1238 29.4795 34.1019 29.5104C33.2376 30.6109 30.9143 31.8852 27.8915 31.8847C26.5731 31.8841 25.2555 31.426 24.7718 30.7215C24.0213 29.6286 24.7345 28.0331 25.9854 28.1991C28.0998 28.4349 30.2674 28.2577 32.2248 27.361C33.9314 26.5789 34.576 25.7187 34.4791 25.0219C34.3288 23.9419 32.7276 23.773 31.9183 23.5105C31.5661 23.3955 31.3923 23.3036 31.3528 22.6497C31.3355 22.3642 31.2853 21.3682 31.2669 20.9562C31.2346 20.2352 31.1465 19.2491 30.527 18.8421C30.3654 18.7359 30.186 18.6847 29.9971 18.6749C29.8465 18.6676 29.7571 18.6884 29.7091 18.6995C29.6984 18.702 29.6896 18.704 29.6829 18.7051C29.3483 18.7612 29.1433 18.9305 28.9015 19.1301C28.8876 19.1416 28.8735 19.1532 28.8594 19.1649C28.0865 19.8007 27.434 19.9046 26.708 19.8739C26.4819 19.8644 26.2489 19.8419 26.003 19.818C25.7769 19.7961 25.54 19.7731 25.2878 19.7584L24.9796 19.7407C23.7639 19.6791 22.46 20.7154 22.2433 22.1871C22.0011 23.83 22.9194 24.8362 23.5165 25.4906C23.6641 25.6524 23.7921 25.7925 23.8781 25.9156C23.9333 25.9899 23.9974 26.0944 23.9974 26.1939C23.9974 26.3127 23.9193 26.4067 23.843 26.487C22.6026 27.746 22.206 29.7464 22.6735 31.4134C22.732 31.6212 22.806 31.8204 22.8935 32.0106C23.9901 34.5401 27.3923 35.7182 30.7153 34.6467C33.0443 33.8959 35.102 32.0812 35.521 29.578C35.6208 28.9257 35.4743 28.6739 35.2748 28.5522C35.0636 28.4241 34.8106 28.4686 34.8106 28.4686C34.8106 28.4686 34.6953 27.6894 34.3688 26.981C33.3999 27.7355 32.1529 28.2657 31.2034 28.5346C29.6823 28.9655 28.039 29.1331 26.4671 28.93C25.8295 28.8476 25.4011 28.7922 25.2175 29.3811C27.3143 30.139 29.5335 29.8145 29.5335 29.8145C29.5764 29.8101 29.6149 29.8409 29.6194 29.8832ZM23.57 15.1758C22.4233 15.7549 21.1429 16.7861 20.1031 17.9725C20.0664 18.0149 20.121 18.0731 20.1661 18.0407C21.0643 17.3956 22.2956 16.7961 23.9088 16.4078C25.7156 15.9727 27.4553 16.1553 28.5178 16.3957C28.5713 16.4078 28.6046 16.317 28.5574 16.2906C27.8553 15.9018 26.7776 15.6378 26.0133 15.6323C25.9759 15.6317 25.9548 15.5888 25.977 15.5591C26.109 15.3837 26.2901 15.2104 26.4556 15.085C26.4924 15.0564 26.4701 14.9976 26.4233 15.0003C25.4724 15.058 23.3003 16.0484 23.3081 16.0123C23.3638 15.7483 23.5393 15.3996 23.6301 15.2368C23.6519 15.1983 23.6095 15.156 23.57 15.1758Z" fill="black"/>
</svg>
