<svg width="48" height="48" viewBox="0 0 48 48" fill="none" xmlns="http://www.w3.org/2000/svg">
<rect width="48" height="48" rx="4" fill="white"/>
<path d="M13.5 17V31H27.5V17H13.5Z" fill="white"/>
<path d="M5.625 17.875V30.125L10 31L14.375 30.125V17.875L10 17L5.625 17.875Z" fill="#1E88E5"/>
<path d="M35.375 24V36.25C35.375 37.6999 34.1999 38.875 32.75 38.875H14.375L13.5 34.5L14.375 30.125H26.625V24L31 23.125L35.375 24Z" fill="#4CAF50"/>
<path d="M35.375 11.75V24H26.625V17.875H14.375L13.5 13.5L14.375 9.125H32.75C34.1999 9.125 35.375 10.3001 35.375 11.75Z" fill="#FBC02D"/>
<path d="M14.375 30.125V38.875H8.25C6.80013 38.875 5.625 37.6999 5.625 36.25V30.125H14.375Z" fill="#1565C0"/>
<path d="M14.375 9.125V17.875H5.625L14.375 9.125Z" fill="#E53935"/>
<path d="M36.25 24L35.375 31.3937L26.625 24L35.375 16.6062L36.25 24Z" fill="#2E7D32"/>
<path d="M43.25 11.8462V36.1537C43.25 36.8887 42.3925 37.2999 41.8237 36.8362L35.375 31.3937V16.6062L41.8237 11.1637C42.3925 10.6999 43.25 11.1112 43.25 11.8462Z" fill="#4CAF50"/>
</svg>
