<svg width="48" height="48" viewBox="0 0 48 48" fill="none" xmlns="http://www.w3.org/2000/svg">
<rect width="48" height="48" rx="4" fill="white"/>
<g clip-path="url(#clip0_2537_942)">
<path d="M17.343 5.03811H29.1654L16.8925 41.4227C16.8297 41.6085 16.7384 41.7834 16.6218 41.9411C16.5054 42.0989 16.3651 42.2373 16.2058 42.3516C16.0464 42.466 15.8706 42.5549 15.6838 42.6148C15.497 42.6748 15.3023 42.7057 15.1065 42.7057H5.90571C5.60704 42.7057 5.31237 42.6348 5.04666 42.498C4.78068 42.3615 4.55107 42.1636 4.37691 41.9206C4.20263 41.6777 4.08862 41.3967 4.04428 41.101C3.99983 40.8054 4.0268 40.5032 4.12219 40.22L15.5565 6.32018C15.6189 6.13439 15.7103 5.95958 15.8272 5.80176C15.9436 5.64393 16.0844 5.50559 16.2432 5.39122C16.4025 5.27684 16.5783 5.18794 16.7651 5.12801C16.9519 5.06807 17.1467 5.03711 17.3425 5.03711V5.03761L17.343 5.03811Z" fill="url(#paint0_linear_2537_942)"/>
<path d="M39.1368 42.7059H28.5211C28.4027 42.7059 28.2844 42.6949 28.1675 42.6724C28.0511 42.6504 27.9368 42.6175 27.8264 42.574C27.716 42.5306 27.6101 42.4766 27.5097 42.4137C27.4095 42.3503 27.3153 42.2778 27.2286 42.1969L15.1819 30.9464C15.0545 30.8275 14.9658 30.673 14.9272 30.5029C14.8887 30.3329 14.9023 30.1552 14.9661 29.993C15.03 29.8308 15.1412 29.6916 15.2853 29.5934C15.4297 29.4956 15.6 29.4431 15.7743 29.4431H34.5214L39.1358 42.7064L39.1368 42.7059Z" fill="#0078D4"/>
<path d="M29.2079 5.03811L20.9321 29.4455L34.4541 29.4425L39.0924 42.7057H28.5167C28.4073 42.7048 28.2979 42.6948 28.19 42.6753C28.0821 42.6558 27.9763 42.6273 27.8734 42.5894C27.6671 42.5142 27.4752 42.4042 27.306 42.2642L19.174 34.6747L16.8976 41.3882C16.8386 41.556 16.7577 41.7153 16.6568 41.8617C16.4546 42.1561 16.178 42.3916 15.8552 42.5444C15.6945 42.6205 15.5244 42.6747 15.3493 42.7057H5.91128C5.60961 42.7067 5.31194 42.6348 5.04374 42.496C4.7755 42.3573 4.5446 42.156 4.37056 41.9092C4.19652 41.6624 4.08446 41.3773 4.04385 41.0781C4.00339 40.7787 4.03542 40.474 4.13725 40.1895L15.5531 6.34566C15.6125 6.15637 15.7019 5.97806 15.8178 5.81724C15.9331 5.65642 16.074 5.51458 16.2338 5.39771C16.3936 5.28084 16.5714 5.18994 16.7597 5.12901C16.948 5.06808 17.1453 5.03711 17.3436 5.03811H29.2084H29.2079Z" fill="url(#paint1_linear_2537_942)"/>
<path d="M43.8775 40.22C43.973 40.5033 43.9998 40.8053 43.9559 41.101C43.9116 41.3966 43.7977 41.6775 43.6238 41.9206C43.4496 42.1634 43.2201 42.3613 42.9542 42.4978C42.6884 42.6343 42.3939 42.7056 42.095 42.7057H28.9187C29.2173 42.7057 29.512 42.6343 29.7782 42.498C30.0439 42.3616 30.2736 42.1633 30.448 41.9206C30.6223 41.6779 30.7361 41.3967 30.7806 41.101C30.825 40.8053 30.7981 40.5032 30.7027 40.22L19.2679 6.31916C19.142 5.94572 18.9022 5.62116 18.5821 5.39119C18.4233 5.27682 18.2475 5.18842 18.0612 5.12849C17.8749 5.06855 17.6801 5.03809 17.4849 5.03809H30.6607C30.8565 5.03809 31.0508 5.06855 31.2376 5.12849C31.4239 5.18842 31.5997 5.27732 31.759 5.39119C31.9178 5.50557 32.0582 5.64391 32.1745 5.80124C32.2909 5.95856 32.3818 6.13337 32.4447 6.31916L43.8795 40.22H43.8775Z" fill="url(#paint2_linear_2537_942)"/>
</g>
<defs>
<linearGradient id="paint0_linear_2537_942" x1="21.6577" y1="7.83001" x2="9.37136" y2="44.1247" gradientUnits="userSpaceOnUse">
<stop stop-color="#114A8B"/>
<stop offset="1" stop-color="#0669BC"/>
</linearGradient>
<linearGradient id="paint1_linear_2537_942" x1="25.4885" y1="24.7412" x2="22.6467" y2="25.7051" gradientUnits="userSpaceOnUse">
<stop stop-opacity="0.3"/>
<stop offset="0.1" stop-opacity="0.2"/>
<stop offset="0.3" stop-opacity="0.1"/>
<stop offset="0.6" stop-opacity="0.1"/>
<stop offset="1" stop-opacity="0"/>
</linearGradient>
<linearGradient id="paint2_linear_2537_942" x1="23.9202" y1="6.77116" x2="37.4052" y2="42.6962" gradientUnits="userSpaceOnUse">
<stop stop-color="#3CCBF4"/>
<stop offset="1" stop-color="#2892DF"/>
</linearGradient>
<clipPath id="clip0_2537_942">
<rect width="40" height="37.744" fill="white" transform="translate(4 5)"/>
</clipPath>
</defs>
</svg>
