<svg width="48" height="48" viewBox="0 0 48 48" fill="none" xmlns="http://www.w3.org/2000/svg">
<rect width="48" height="48" rx="4" fill="white"/>
<path d="M4 38.7717V41.9153L12.5161 39.4106C20.2196 37.1448 28.3804 36.9247 36.1949 38.7717V24.8965V9.39526H35.1109L34.1187 11.5258C28.1692 24.3015 17.3062 34.1284 4 38.7717Z" fill="#5191CE"/>
<path d="M4.32373 38.6642V41.8078L18.233 39.7512C27.2212 38.4222 36.385 40.426 43.9982 45.385V31.5098V16.0085H42.9142C37.5653 27.3835 26.8776 35.3259 14.4433 37.1664L4.32373 38.6642Z" fill="#76C267"/>
<path d="M4.43604 38.6633V41.8069L12.0485 39.9252C19.7671 38.0172 27.7773 37.589 35.6553 38.6633V26.4141C29.3385 30.6492 22.3706 33.821 15.0283 35.8034L4.43604 38.6633Z" fill="#024782"/>
<path d="M4 38.7721V41.9157C10.6281 38.7457 17.5871 36.3199 24.7496 34.6828L25.3548 34.5445V18.5012V3H24.2708L22.856 7.59815C19.2302 19.3821 12.7535 30.0897 4 38.7721Z" fill="#FAC425"/>
<path d="M4 38.7531V42.0242L4.38609 41.838C10.9671 38.6642 17.8948 36.2663 25.0296 34.6925V25.3306C19.5382 30.1944 13.3935 34.2664 6.77411 37.4281L4 38.7531Z" fill="#F37739"/>
</svg>
