<svg width="48" height="48" viewBox="0 0 48 48" fill="none" xmlns="http://www.w3.org/2000/svg">
<rect width="48" height="48" rx="4" fill="white"/>
<g clip-path="url(#clip0_2537_930)">
<path d="M30.3417 22.4768V30.4554C30.3418 31.2972 30.0798 32.1191 29.5905 32.8113C29.1012 33.5035 28.408 34.0332 27.6033 34.3296L24.7167 35.3937C24.5887 35.4409 24.4509 35.4571 24.3152 35.4408C24.1794 35.4244 24.0497 35.376 23.9373 35.2998C23.8248 35.2236 23.733 35.1217 23.6696 35.003C23.6062 34.8844 23.5732 34.7524 23.5733 34.6185V24.8986L17.92 26.9206C17.5952 27.0378 17.3149 27.2498 17.117 27.5279C16.9191 27.806 16.8131 28.1369 16.8133 28.4758V41.5086C16.8133 42.6591 17.98 43.4587 19.085 43.0638L36.02 37.0044C36.8341 36.7135 37.5372 36.1845 38.0339 35.4891C38.5306 34.7938 38.7969 33.9657 38.7967 33.1171V16.5594C38.796 17.4076 38.5294 18.2351 38.0328 18.9301C37.5362 19.625 36.8336 20.1539 36.02 20.445L30.3417 22.4768ZM30.3417 21.6086V19.2146C30.3417 18.3721 30.0792 17.5497 29.5893 16.8572C29.0994 16.1646 28.4054 15.6349 27.6 15.3387L24.72 14.2779C24.592 14.231 24.4544 14.2152 24.3188 14.2317C24.1832 14.2482 24.0537 14.2967 23.9413 14.3728C23.829 14.449 23.7372 14.5506 23.6737 14.6691C23.6102 14.7876 23.5769 14.9193 23.5767 15.0531V22.5437C23.5767 23.6877 22.4183 24.4874 21.3183 24.1039L10.325 20.259C9.99626 20.1442 9.71184 19.9326 9.51073 19.6533C9.30962 19.374 9.20166 19.0406 9.20166 18.6989V5.65637C9.20166 4.51237 10.36 3.71272 11.4617 4.09786L35.9917 12.6754C36.6799 12.9162 37.2926 13.3275 37.7702 13.8692C38.2478 14.4108 38.5738 15.0645 38.7167 15.7663C38.49 17.1714 36.9667 19.239 35.7333 19.6797L30.3417 21.6086Z" fill="#0B53CE"/>
</g>
<defs>
<clipPath id="clip0_2537_930">
<rect width="40" height="39.1667" fill="white" transform="translate(4 4)"/>
</clipPath>
</defs>
</svg>
