<svg width="48" height="48" viewBox="0 0 48 48" fill="none" xmlns="http://www.w3.org/2000/svg">
<rect width="48" height="48" rx="4" fill="white"/>
<g clip-path="url(#clip0_2537_900)">
<path d="M20.4758 4.93262L20.2736 5.05617C19.9519 5.25272 19.6489 5.47247 19.3661 5.71259L19.9494 5.29816H24.9L25.8 12.1818L21.3 16.7273L16.8 19.8867V23.5299C16.8 26.0745 18.1166 28.434 20.2717 29.7516L25.009 32.6481L15 38.5456H13.0696L9.47163 36.3458C7.31657 35.0282 6 32.6686 6 30.1241V17.8733C6 15.3279 7.31741 12.9677 9.47357 11.6504L20.2736 5.0517C20.3405 5.01081 20.4079 4.97112 20.4758 4.93262Z" fill="url(#paint0_radial_2537_900)"/>
<path d="M20.4758 4.93262L20.2736 5.05617C19.9519 5.25272 19.6489 5.47247 19.3661 5.71259L19.9494 5.29816H24.9L25.8 12.1818L21.3 16.7273L16.8 19.8867V23.5299C16.8 26.0745 18.1166 28.434 20.2717 29.7516L25.009 32.6481L15 38.5456H13.0696L9.47163 36.3458C7.31657 35.0282 6 32.6686 6 30.1241V17.8733C6 15.3279 7.31741 12.9677 9.47357 11.6504L20.2736 5.0517C20.3405 5.01081 20.4079 4.97112 20.4758 4.93262Z" fill="url(#paint1_linear_2537_900)"/>
<path d="M31.2002 19.4546V23.5276C31.2002 26.0721 29.8836 28.4317 27.7286 29.7493L16.9286 36.3526C14.7192 37.7034 11.9704 37.7521 9.72217 36.4989L20.2718 42.9491C22.5637 44.3505 25.4365 44.3505 27.7286 42.9491L38.5286 36.3458C40.6836 35.0281 42.0001 32.6686 42.0001 30.124V27.1819L41.1001 25.8182L31.2002 19.4546Z" fill="url(#paint2_radial_2537_900)"/>
<path d="M31.2002 19.4546V23.5276C31.2002 26.0721 29.8836 28.4317 27.7286 29.7493L16.9286 36.3526C14.7192 37.7034 11.9704 37.7521 9.72217 36.4989L20.2718 42.9491C22.5637 44.3505 25.4365 44.3505 27.7286 42.9491L38.5286 36.3458C40.6836 35.0281 42.0001 32.6686 42.0001 30.124V27.1819L41.1001 25.8182L31.2002 19.4546Z" fill="url(#paint3_linear_2537_900)"/>
<path d="M38.5263 11.6503L27.7263 5.05167C25.5062 3.69525 22.7417 3.65323 20.4879 4.92561L20.2734 5.0567C18.1172 6.37408 16.7998 8.73421 16.7998 11.2796V19.9013L20.2734 17.779C22.5644 16.3792 25.4352 16.3792 27.7263 17.779L38.5263 24.3776C40.615 25.6539 41.9166 27.9086 41.9959 30.3623C41.9985 30.2831 41.9998 30.2037 41.9998 30.1241V17.8732C41.9998 15.3279 40.6824 12.9677 38.5263 11.6503Z" fill="url(#paint4_radial_2537_900)"/>
<path d="M38.5263 11.6503L27.7263 5.05167C25.5062 3.69525 22.7417 3.65323 20.4879 4.92561L20.2734 5.0567C18.1172 6.37408 16.7998 8.73421 16.7998 11.2796V19.9013L20.2734 17.779C22.5644 16.3792 25.4352 16.3792 27.7263 17.779L38.5263 24.3776C40.615 25.6539 41.9166 27.9086 41.9959 30.3623C41.9985 30.2831 41.9998 30.2037 41.9998 30.1241V17.8732C41.9998 15.3279 40.6824 12.9677 38.5263 11.6503Z" fill="url(#paint5_linear_2537_900)"/>
</g>
<defs>
<radialGradient id="paint0_radial_2537_900" cx="0" cy="0" r="1" gradientUnits="userSpaceOnUse" gradientTransform="translate(18.0767 11.853) rotate(110.34) scale(30.2953 52.4411)">
<stop offset="0.06441" stop-color="#AE7FE2"/>
<stop offset="1" stop-color="#0078D4"/>
</radialGradient>
<linearGradient id="paint1_linear_2537_900" x1="18.1607" y1="36.6077" x2="13.8113" y2="29.1603" gradientUnits="userSpaceOnUse">
<stop stop-color="#114A8B"/>
<stop offset="1" stop-color="#0078D4" stop-opacity="0"/>
</linearGradient>
<radialGradient id="paint2_radial_2537_900" cx="0" cy="0" r="1" gradientUnits="userSpaceOnUse" gradientTransform="translate(11.7871 35.2283) rotate(-8.45047) scale(27.9513 18.6422)">
<stop offset="0.133928" stop-color="#D59DFF"/>
<stop offset="1" stop-color="#5E438F"/>
</radialGradient>
<linearGradient id="paint3_linear_2537_900" x1="38.7212" y1="25.2517" x2="34.0676" y2="31.8576" gradientUnits="userSpaceOnUse">
<stop stop-color="#493474"/>
<stop offset="1" stop-color="#8C66BA" stop-opacity="0"/>
</linearGradient>
<radialGradient id="paint4_radial_2537_900" cx="0" cy="0" r="1" gradientUnits="userSpaceOnUse" gradientTransform="translate(39.3495 26.2764) rotate(-165.634) scale(22.4443 38.1177)">
<stop offset="0.0584996" stop-color="#50E6FF"/>
<stop offset="1" stop-color="#436DCD"/>
</radialGradient>
<linearGradient id="paint5_linear_2537_900" x1="17.678" y1="4.96056" x2="24.4379" y2="4.96056" gradientUnits="userSpaceOnUse">
<stop stop-color="#2D3F80"/>
<stop offset="1" stop-color="#436DCD" stop-opacity="0"/>
</linearGradient>
<clipPath id="clip0_2537_900">
<rect width="36" height="40" fill="white" transform="translate(6 4)"/>
</clipPath>
</defs>
</svg>
