<svg width="48" height="48" viewBox="0 0 48 48" fill="none" xmlns="http://www.w3.org/2000/svg">
<rect width="48" height="48" rx="4" fill="white"/>
<g clip-path="url(#clip0_2537_1092)">
<path d="M8.97592 35.3768C7.17569 35.3806 5.51262 34.4282 4.62277 32.8839C3.74576 31.3491 3.79835 29.462 4.75952 27.977L13.7241 14.0848C14.6582 12.5648 16.3488 11.6583 18.1494 11.712C19.9487 11.7545 21.5853 12.7501 22.4323 14.3172C23.268 15.8766 23.1635 17.7528 22.1626 19.2166L13.2037 33.1088C12.2804 34.5287 10.6855 35.3842 8.97592 35.3768Z" fill="#F62B54"/>
<path d="M24.3526 35.3768C22.5445 35.3768 20.8807 34.4228 20.0071 32.8897C19.132 31.359 19.1846 29.4766 20.1438 27.9959L29.0913 14.1355C30.0119 12.5937 31.7075 11.6659 33.5204 11.7121C35.3437 11.7515 36.9961 12.7579 37.8318 14.3323C38.6618 15.9067 38.5402 17.7942 37.5089 19.2542L28.5633 33.1146C27.6429 34.5283 26.0554 35.3812 24.3526 35.3768Z" fill="#FFCC00"/>
<path d="M39.3853 35.4928C41.9342 35.4928 44.0005 33.4965 44.0005 31.0339C44.0005 28.5713 41.9342 26.575 39.3853 26.575C36.8363 26.575 34.77 28.5713 34.77 31.0339C34.77 33.4965 36.8363 35.4928 39.3853 35.4928Z" fill="#00CA72"/>
</g>
<defs>
<clipPath id="clip0_2537_1092">
<rect width="40" height="39.4737" fill="white" transform="translate(4 4)"/>
</clipPath>
</defs>
</svg>
