<svg width="48" height="48" viewBox="0 0 48 48" fill="none" xmlns="http://www.w3.org/2000/svg">
<rect width="48" height="48" rx="4" fill="white"/>
<g clip-path="url(#clip0_2537_1026)">
<path d="M14.4425 24.3846C14.4425 22.0968 14.446 19.8072 14.4372 17.5212C14.4372 17.2032 14.6474 17.0053 14.9654 17.0053C15.5537 17.0018 16.1455 17 16.7338 17.0053C17.0677 17.0088 17.262 17.212 17.2585 17.5247C17.2497 19.5493 17.2532 21.5774 17.2532 23.6019V23.7132C17.2567 23.9376 17.3557 24.1019 17.5624 24.1902C17.762 24.275 17.9493 24.2309 18.1118 24.0577C18.7054 23.4217 19.2972 22.784 19.8873 22.1462C20.2494 21.754 20.6169 21.3671 20.9755 20.9732C21.1115 20.8248 21.2688 20.7541 21.4719 20.7576C22.2122 20.7629 22.9559 20.7629 23.6961 20.7576C23.9152 20.7576 24.0883 20.8248 24.1802 21.0279C24.2738 21.2382 24.2297 21.4254 24.0724 21.5968C22.9612 22.8264 21.8535 24.0577 20.7441 25.2873C20.6558 25.3863 20.5692 25.4887 20.5003 25.6018C20.3766 25.8014 20.3766 25.9975 20.4915 26.2007C20.6151 26.4197 20.79 26.5964 20.9631 26.7748C22.3076 28.1563 23.6555 29.5379 25.0035 30.9158C25.166 31.0837 25.2137 31.2674 25.1324 31.4829C25.0547 31.6843 24.901 31.7762 24.6484 31.7762C23.8251 31.7762 23.0001 31.7727 22.1768 31.7762C21.9913 31.7762 21.8482 31.7179 21.7157 31.5766C20.5197 30.3205 19.3149 29.0715 18.1136 27.8207C17.9422 27.6405 17.7514 27.5946 17.5535 27.6776C17.3539 27.7571 17.2497 27.9267 17.2497 28.1722V31.2515C17.2497 31.5836 17.0818 31.755 16.7532 31.7568H14.9442C14.582 31.7568 14.4407 31.6137 14.4407 31.2568L14.4425 24.3846ZM25.6677 22.0826C25.6677 20.5686 25.673 19.0528 25.6624 17.5388C25.6589 17.1961 25.8585 17 26.2065 17C26.7789 17.0035 27.3478 17 27.9184 17C28.2523 17 28.4431 17.1873 28.4431 17.5194C28.4466 18.4027 28.4466 19.2878 28.4484 20.1711C28.4484 20.5527 28.6445 20.7506 29.0226 20.7506H31.3987C31.6496 20.7506 31.8139 20.8866 31.8633 21.1322C31.8881 21.2505 31.8792 21.3689 31.8828 21.4908V22.9554C31.8828 23.3387 31.7114 23.5101 31.328 23.5101C30.5684 23.5101 29.8087 23.5065 29.0491 23.5065C28.6604 23.5065 28.4608 23.7026 28.4572 24.086C28.4537 24.8651 28.4413 25.6406 28.4519 26.4197C28.4678 27.6069 29.3777 28.7005 30.5595 28.9796C30.9076 29.0626 31.2609 29.0768 31.6142 29.0273C31.9022 28.9867 32.1107 29.1404 32.1442 29.4301C32.2167 30.0467 32.282 30.665 32.3456 31.2815C32.3704 31.5165 32.199 31.732 31.957 31.7709C31.3051 31.8822 30.6532 31.8433 30.0119 31.6985C27.7223 31.1861 26.0405 29.3559 25.7119 27.0363C25.6783 26.8066 25.6677 26.577 25.6677 26.3491V22.0826ZM45.9965 29.317C45.9965 29.1068 45.8357 28.9602 45.6255 28.9496C45.4824 28.9443 45.341 28.939 45.1979 28.9266C44.4666 28.8718 44.0903 28.5291 43.9578 27.8083C43.8553 27.2589 43.8588 26.7006 43.8553 26.1424C43.85 24.54 43.8518 22.9377 43.8518 21.3353C43.8518 21.2876 43.8518 21.2435 43.8482 21.1975C43.8288 20.9378 43.6415 20.7523 43.3783 20.7523C42.7617 20.7488 42.1434 20.7488 41.5269 20.7523C41.2477 20.7523 41.0499 20.952 41.0375 21.2276C41.034 21.2947 41.0375 21.3636 41.0375 21.4431C40.9845 21.4148 40.9439 21.3954 40.905 21.376C39.792 20.7912 38.6119 20.6022 37.3717 20.8089C34.2147 21.3389 32.1566 24.5012 32.941 27.6034C33.9374 31.5395 38.6561 33.1065 41.8131 30.5448C41.8873 30.4848 41.9173 30.4865 41.9756 30.5678C42.3007 31.0324 42.7299 31.3681 43.2635 31.5713C43.8518 31.7956 44.4648 31.8257 45.0866 31.7815C45.3075 31.7656 45.5265 31.7338 45.7279 31.6331C45.871 31.5607 45.9876 31.4529 45.9912 31.2886C46.0035 30.6314 46 29.9742 45.9965 29.317ZM38.3151 29.0326C36.7799 29.0273 35.5591 27.7783 35.5644 26.213C35.5697 24.7326 36.8241 23.503 38.3292 23.5065C39.8733 23.5101 41.0923 24.7503 41.0887 26.319C41.0834 27.7977 39.8203 29.0344 38.3151 29.0326ZM7.54726 20.7294C4.61464 20.7347 2.06714 22.9995 2.00177 26.1459C1.93464 29.4001 4.51217 31.7285 7.39003 31.8009C10.4675 31.8787 13.0168 29.4495 13.0698 26.3809C13.121 23.2574 10.6742 20.7647 7.54726 20.7294ZM7.52783 29.0326C6.01382 29.0326 4.77187 27.7889 4.76833 26.2696C4.7648 24.7485 6.00498 23.5065 7.53313 23.5012C9.05774 23.4977 10.2926 24.7361 10.2926 26.266C10.2926 27.796 9.05774 29.0326 7.52783 29.0326Z" fill="#007DC1"/>
</g>
<defs>
<clipPath id="clip0_2537_1026">
<rect width="44" height="14.8363" fill="white" transform="translate(2 17)"/>
</clipPath>
</defs>
</svg>
