<svg width="48" height="48" viewBox="0 0 48 48" fill="none" xmlns="http://www.w3.org/2000/svg">
<rect width="48" height="48" rx="4" fill="white"/>
<path d="M21.2683 25.0428H23.9114L22.5138 22.7643L19.9488 26.8839H18.7814L21.9013 21.9354C22.037 21.7354 22.2631 21.6146 22.5138 21.6146C22.7563 21.6146 22.9824 21.7313 23.114 21.927L26.2463 26.8839H25.0789L24.528 25.9633H21.852L21.2683 25.0428ZM33.3946 25.9633V21.6646H32.404V26.384C32.404 26.5132 32.4533 26.6381 32.5478 26.7339C32.6424 26.8297 32.7698 26.8839 32.9096 26.8839H37.4271L38.0108 25.9633H33.3946ZM17.0056 25.1927C17.9675 25.1927 18.7485 24.4055 18.7485 23.4307C18.7485 22.456 17.9675 21.6646 17.0056 21.6646H12.6718V26.8839H13.662V22.5852H16.9398C17.4002 22.5852 17.7702 22.9642 17.7702 23.4307C17.7702 23.8973 17.4002 24.2763 16.9398 24.2763L14.1471 24.2722L17.1042 26.8839H18.543L16.5534 25.1927H17.0056ZM6.57574 26.8839C5.15386 26.8839 4 25.7176 4 24.2763C4 22.8351 5.15386 21.6646 6.57574 21.6646H9.56948C10.9917 21.6646 12.1448 22.8351 12.1448 24.2763C12.1448 25.7176 10.9917 26.8839 9.56948 26.8839H6.57574ZM9.50288 25.9633C10.4241 25.9633 11.1702 25.2094 11.1702 24.2763C11.1702 23.3433 10.4241 22.5852 9.50288 22.5852H6.6419C5.72112 22.5852 4.97462 23.3433 4.97462 24.2763C4.97462 25.2094 5.72112 25.9633 6.6419 25.9633H9.50288ZM28.3139 26.8839C26.8916 26.8839 25.7365 25.7176 25.7365 24.2763C25.7365 22.8351 26.8916 21.6646 28.3139 21.6646H31.8696L31.29 22.5852H28.3797C27.4589 22.5852 26.7108 23.3433 26.7108 24.2763C26.7108 25.2094 27.4589 25.9633 28.3797 25.9633H31.9518L31.3681 26.8839H28.3139ZM40.4279 25.9633C39.6674 25.9633 39.022 25.4468 38.8247 24.7345H43.0587L43.6424 23.814H38.8247C39.022 23.1058 39.6674 22.5852 40.4279 22.5852H43.3341L43.9219 21.6646H40.3621C38.9398 21.6646 37.7848 22.8351 37.7848 24.2763C37.7848 25.7176 38.9398 26.8839 40.3621 26.8839H43.4163L44 25.9633H40.4279Z" fill="#EA1B22"/>
</svg>
