<svg width="48" height="48" viewBox="0 0 48 48" fill="none" xmlns="http://www.w3.org/2000/svg">
<rect width="48" height="48" rx="4" fill="white"/>
<g clip-path="url(#clip0_2537_1020)">
<path d="M24 44C35.0457 44 44 35.0457 44 24C44 12.9543 35.0457 4 24 4C12.9543 4 4 12.9543 4 24C4 35.0457 12.9543 44 24 44Z" fill="#FA582D"/>
<path d="M27.1613 16.1294L24.0164 19.2735L25.5789 20.8384L17.6945 28.7267L20.8395 31.8716L23.9844 28.7267L22.4219 27.1642L30.3062 19.2735L27.1613 16.1294ZM12.9844 24.0157L20.8707 16.1294L24.016 19.2735L16.1293 27.1606L12.9844 24.0157ZM23.984 28.7267L31.8707 20.8396L35.0156 23.9845L27.1293 31.8708L23.984 28.7267Z" fill="white"/>
</g>
<defs>
<clipPath id="clip0_2537_1020">
<rect width="40" height="40" fill="white" transform="translate(4 4)"/>
</clipPath>
</defs>
</svg>
