<svg width="48" height="48" viewBox="0 0 48 48" fill="none" xmlns="http://www.w3.org/2000/svg">
<rect width="48" height="48" rx="4" fill="#1E9E9E"/>
<path d="M39.3079 4V15.4885C37.4511 14.0138 35.1012 13.1328 32.5463 13.1328C28.9324 13.1328 25.7305 14.8957 23.7519 17.6073C22.3932 19.4668 21.6625 21.711 21.666 24.014C21.666 24.0266 21.6612 24.0189 21.6515 23.9995C21.6457 27.7294 18.6208 30.7514 14.8899 30.7514C11.1639 30.7514 8.14283 27.7381 8.12833 24.015V23.9637C8.14186 20.2406 11.1649 17.2273 14.8899 17.2273C17.4236 17.2273 19.6323 18.6227 20.7889 20.6864C20.9262 20.2222 21.2463 19.2242 21.695 18.3462C22.0848 17.5841 22.5867 16.9246 22.8623 16.5861C21.8451 15.4876 20.6117 14.6115 19.2395 14.0129C17.8673 13.4142 16.386 13.106 14.889 13.1077C8.95128 13.1077 4.12378 17.8655 4.00967 23.7771H4V44H8.12639V32.5134C9.98312 33.9882 12.333 34.8691 14.8861 34.8691C18.5154 34.8691 21.7289 33.0917 23.7055 30.3608C24.9956 28.5853 25.7518 26.3959 25.7518 24.0305C25.7518 24.0111 25.7634 24.0343 25.7828 24.0865C25.7828 24.0614 25.7808 24.0382 25.7808 24.0121C25.7808 20.2773 28.8077 17.2505 32.5424 17.2505C36.2675 17.2505 39.2885 20.2628 39.304 23.984V24.0401C39.2885 27.7613 36.2675 30.7737 32.5424 30.7737C30.0068 30.7737 27.7981 29.3773 26.6405 27.3117C26.5109 27.7546 26.186 28.7893 25.7218 29.6974C25.3447 30.4372 24.8612 31.0802 24.5807 31.4255C25.5976 32.5207 26.8297 33.3941 28.1999 33.9908C29.5701 34.5876 31.0489 34.8948 32.5434 34.8933C38.4811 34.8933 43.3086 30.1354 43.4227 24.2239H43.4323V4H39.3079Z" fill="white"/>
</svg>
