<svg width="48" height="48" viewBox="0 0 48 48" fill="none" xmlns="http://www.w3.org/2000/svg">
<rect width="48" height="48" rx="4" fill="white"/>
<g clip-path="url(#clip0_2486_680)">
<path d="M20.6456 13.0548C21.9357 11.7107 23.7317 10.877 25.718 10.877C28.3584 10.877 30.6621 12.3493 31.8889 14.5351C32.955 14.0588 34.1351 13.7938 35.3767 13.7938C40.139 13.7938 44 17.6884 44 22.4924C44 27.2969 40.139 31.1915 35.3767 31.1915C34.8062 31.1918 34.2372 31.1351 33.6781 31.0222C32.5978 32.9493 30.5391 34.2513 28.1761 34.2513C27.1869 34.2513 26.2513 34.0228 25.4183 33.6166C24.3231 36.1926 21.7715 37.9989 18.7977 37.9989C15.7009 37.9989 13.0615 36.0393 12.0484 33.2912C11.6057 33.3852 11.147 33.4342 10.6764 33.4342C6.98919 33.4343 4 30.4143 4 26.6884C4 24.1915 5.34302 22.0114 7.33846 20.8451C6.92765 19.8998 6.69914 18.8565 6.69914 17.7596C6.69914 13.4747 10.1778 10.0012 14.4684 10.0012C16.9875 10.0012 19.2262 11.1989 20.6456 13.0548Z" fill="#00A1E0"/>
<path d="M9.7937 24.5201C9.76864 24.5857 9.80283 24.5994 9.8108 24.6107C9.886 24.6654 9.96239 24.7048 10.0393 24.7486C10.4473 24.9651 10.8325 25.0283 11.2353 25.0283C12.0558 25.0283 12.5652 24.5919 12.5652 23.8893V23.8757C12.5652 23.2261 11.9903 22.9902 11.4507 22.8198L11.3807 22.797C10.9738 22.6648 10.6228 22.5509 10.6228 22.2831V22.2689C10.6228 22.0398 10.8279 21.8711 11.1459 21.8711C11.4992 21.8711 11.9185 21.9885 12.1886 22.1378C12.1886 22.1378 12.2678 22.1891 12.2969 22.1121C12.3128 22.0711 12.4496 21.703 12.4639 21.6631C12.4792 21.6198 12.4519 21.5879 12.424 21.5708C12.1157 21.3833 11.6895 21.2551 11.2485 21.2551L11.1664 21.2557C10.4154 21.2557 9.89124 21.7093 9.89124 22.3594V22.3731C9.89124 23.0585 10.4696 23.2808 11.0115 23.4357L11.0986 23.4625C11.4935 23.5839 11.8337 23.6882 11.8337 23.9662V23.9799C11.8337 24.2341 11.6126 24.4232 11.2559 24.4232C11.1175 24.4232 10.6759 24.4204 10.1989 24.1189C10.1414 24.0853 10.1078 24.0608 10.0633 24.034C10.04 24.0192 9.98129 23.9935 9.95567 24.0711L9.7937 24.5201ZM21.8056 24.5201C21.7806 24.5857 21.8148 24.5994 21.8227 24.6107C21.8979 24.6654 21.9743 24.7048 22.0512 24.7486C22.4592 24.9651 22.8444 25.0283 23.2472 25.0283C24.0677 25.0283 24.5772 24.5919 24.5772 23.8893V23.8757C24.5772 23.2261 24.0022 22.9902 23.4626 22.8198L23.3925 22.797C22.9857 22.6648 22.6347 22.5509 22.6347 22.2831V22.2689C22.6347 22.0398 22.8398 21.8711 23.1577 21.8711C23.511 21.8711 23.9304 21.9885 24.2005 22.1378C24.2005 22.1378 24.2797 22.1891 24.3087 22.1121C24.3247 22.0711 24.4615 21.703 24.4757 21.6631C24.4911 21.6198 24.4637 21.5879 24.4358 21.5708C24.1276 21.3833 23.7013 21.2551 23.2603 21.2551L23.1782 21.2557C22.4273 21.2557 21.9031 21.7093 21.9031 22.3594V22.3731C21.9031 23.0585 22.4814 23.2808 23.0233 23.4357L23.1105 23.4625C23.5053 23.5839 23.8461 23.6882 23.8461 23.9662V23.9799C23.8461 24.2341 23.6245 24.4232 23.2677 24.4232C23.1293 24.4232 22.6877 24.4204 22.2108 24.1189C22.1532 24.0853 22.1191 24.0619 22.0758 24.034C22.0609 24.0243 21.9914 23.9975 21.9675 24.0711L21.8056 24.5201ZM30.0059 23.1439C30.0059 23.5411 29.9318 23.8539 29.7859 24.075C29.6418 24.2938 29.4235 24.4004 29.1193 24.4004C28.8145 24.4004 28.5974 24.2944 28.4555 24.075C28.3119 23.8545 28.239 23.5411 28.239 23.1439C28.239 22.7474 28.3119 22.4351 28.4555 22.2163C28.5974 21.9998 28.8145 21.8944 29.1193 21.8944C29.4236 21.8944 29.6418 21.9998 29.7865 22.2163C29.9318 22.4351 30.0059 22.7473 30.0059 23.1439ZM30.6908 22.4078C30.6235 22.1804 30.5187 21.9798 30.3791 21.8129C30.2395 21.6454 30.0629 21.5109 29.8532 21.4129C29.644 21.3155 29.3968 21.2659 29.1193 21.2659C28.8412 21.2659 28.5939 21.3155 28.3848 21.4129C28.1751 21.5109 27.9985 21.6454 27.8583 21.8129C27.7193 21.9804 27.6144 22.181 27.5467 22.4078C27.48 22.6339 27.4464 22.8812 27.4464 23.1439C27.4464 23.4066 27.48 23.6545 27.5467 23.8801C27.6144 24.1069 27.7187 24.3075 27.8589 24.475C27.9985 24.6425 28.1757 24.7764 28.3849 24.8715C28.5945 24.9667 28.8412 25.0151 29.1193 25.0151C29.3968 25.0151 29.6436 24.9667 29.8532 24.8715C30.0623 24.7764 30.2395 24.6425 30.3792 24.475C30.5187 24.308 30.6236 24.1075 30.6908 23.8801C30.7581 23.6539 30.7917 23.406 30.7917 23.1439C30.7917 22.8818 30.758 22.6339 30.6908 22.4078ZM36.3151 24.2943C36.2923 24.2276 36.2279 24.2527 36.2279 24.2527C36.1282 24.2909 36.0222 24.3262 35.9094 24.3439C35.7949 24.3615 35.6689 24.3706 35.5339 24.3706C35.2023 24.3706 34.939 24.2721 34.7505 24.0772C34.5613 23.8823 34.4553 23.5672 34.4564 23.141C34.4576 22.753 34.551 22.4612 34.7191 22.239C34.8861 22.018 35.1402 21.9045 35.4792 21.9045C35.7619 21.9045 35.9772 21.937 36.2028 22.0082C36.2028 22.0082 36.257 22.0316 36.2826 21.961C36.3424 21.7945 36.3869 21.6755 36.4507 21.4926C36.4689 21.4407 36.4245 21.4185 36.4085 21.4122C36.3196 21.3774 36.1099 21.3211 35.9515 21.2971C35.8034 21.2743 35.6302 21.2624 35.4376 21.2624C35.1498 21.2624 34.8934 21.3114 34.6741 21.4094C34.4552 21.5068 34.2695 21.6413 34.1225 21.8088C33.9755 21.9764 33.8638 22.1769 33.7892 22.4037C33.7151 22.6299 33.6775 22.8783 33.6775 23.141C33.6775 23.7091 33.8308 24.1683 34.1334 24.5045C34.4365 24.8419 34.8918 25.0134 35.4855 25.0134C35.8365 25.0134 36.1966 24.9422 36.4553 24.8402C36.4553 24.8402 36.5049 24.8162 36.4832 24.7587L36.3151 24.2943ZM37.5135 22.7635C37.5459 22.543 37.6069 22.3595 37.7009 22.2165C37.8428 21.9994 38.0593 21.8803 38.3636 21.8803C38.6679 21.8803 38.8691 22 39.0132 22.2165C39.1089 22.3595 39.1505 22.551 39.1671 22.7635H37.5135ZM39.8194 22.2786C39.7613 22.0592 39.6172 21.8375 39.5226 21.7361C39.3733 21.5754 39.2275 21.4632 39.0827 21.4005C38.8935 21.3196 38.6667 21.266 38.4183 21.266C38.1289 21.266 37.8662 21.3145 37.6531 21.4147C37.4394 21.515 37.26 21.6518 37.1192 21.8222C36.9784 21.9919 36.8725 22.1942 36.8052 22.4239C36.7374 22.6524 36.7032 22.9014 36.7032 23.164C36.7032 23.4313 36.7386 23.6803 36.8086 23.9042C36.8793 24.1298 36.9921 24.3287 37.1448 24.4933C37.2969 24.6592 37.493 24.7891 37.7277 24.8796C37.9608 24.9697 38.244 25.0164 38.5693 25.0158C39.2389 25.0135 39.5915 24.8643 39.7368 24.7839C39.7625 24.7697 39.787 24.7446 39.7562 24.6728L39.6046 24.2483C39.5819 24.1851 39.5175 24.2084 39.5175 24.2084C39.3516 24.2699 39.1158 24.3805 38.5659 24.3794C38.2064 24.3788 37.9396 24.2728 37.7727 24.107C37.6012 23.9372 37.5174 23.6876 37.5026 23.3355L39.8211 23.3378C39.8211 23.3378 39.8821 23.3366 39.8884 23.2773C39.8907 23.2524 39.9682 22.8011 39.8194 22.2786ZM18.9455 22.7635C18.9785 22.543 19.0389 22.3595 19.133 22.2165C19.2748 21.9994 19.4914 21.8803 19.7956 21.8803C20.0999 21.8803 20.3011 22 20.4458 22.2165C20.5409 22.3595 20.5825 22.551 20.599 22.7635H18.9455ZM21.2509 22.2786C21.1928 22.0592 21.0492 21.8375 20.9546 21.7361C20.8053 21.5754 20.6594 21.4632 20.5147 21.4005C20.3256 21.3196 20.0988 21.266 19.8504 21.266C19.5615 21.266 19.2982 21.3145 19.0851 21.4147C18.8715 21.515 18.692 21.6518 18.5512 21.8222C18.4105 21.9919 18.3045 22.1942 18.2373 22.4239C18.17 22.6524 18.1353 22.9014 18.1353 23.164C18.1353 23.4313 18.1706 23.6803 18.2407 23.9042C18.3114 24.1298 18.4242 24.3287 18.5769 24.4933C18.729 24.6592 18.925 24.7891 19.1598 24.8796C19.3929 24.9697 19.676 25.0164 20.0014 25.0158C20.6709 25.0135 21.0236 24.8643 21.1689 24.7839C21.1946 24.7697 21.219 24.7446 21.1883 24.6728L21.0373 24.2483C21.0139 24.1851 20.9496 24.2084 20.9496 24.2084C20.7838 24.2699 20.5484 24.3805 19.9974 24.3794C19.6385 24.3788 19.3718 24.2728 19.2048 24.107C19.0333 23.9372 18.9496 23.6876 18.9347 23.3355L21.2532 23.3378C21.2532 23.3378 21.3142 23.3366 21.3205 23.2773C21.3227 23.2524 21.4001 22.8011 21.2509 22.2786ZM13.934 24.2816C13.8434 24.2092 13.8309 24.191 13.8001 24.1443C13.7545 24.073 13.7312 23.9716 13.7312 23.8428C13.7312 23.6388 13.7984 23.4924 13.938 23.3938C13.9364 23.3944 14.1375 23.2201 14.6104 23.2263C14.9426 23.2309 15.2394 23.2799 15.2394 23.2799V24.334H15.24C15.24 24.334 14.9454 24.3972 14.6138 24.4172C14.142 24.4457 13.9323 24.281 13.934 24.2816ZM14.8565 22.6525C14.7625 22.6457 14.6406 22.6417 14.4947 22.6417C14.2958 22.6417 14.1038 22.6667 13.9238 22.7152C13.7426 22.7636 13.5796 22.8394 13.4394 22.9397C13.2995 23.0396 13.1844 23.1704 13.1033 23.322C13.0212 23.4747 12.9796 23.6548 12.9796 23.8565C12.9796 24.0616 13.0149 24.24 13.0856 24.3859C13.1563 24.5323 13.2582 24.6542 13.3881 24.7483C13.5169 24.8423 13.6759 24.9112 13.8605 24.9528C14.0423 24.9944 14.2485 25.0154 14.4742 25.0154C14.7118 25.0154 14.9488 24.9961 15.1784 24.9567C15.4058 24.918 15.685 24.8616 15.7625 24.844C15.8168 24.8309 15.8709 24.817 15.9249 24.8024C15.9825 24.7881 15.9779 24.7266 15.9779 24.7266L15.9767 22.6064C15.9767 22.1414 15.8525 21.7966 15.6081 21.583C15.3648 21.3699 15.0064 21.2621 14.5431 21.2621C14.3693 21.2621 14.0896 21.2861 13.922 21.3197C13.922 21.3197 13.4155 21.4177 13.2069 21.5807C13.2069 21.5807 13.1614 21.6092 13.1864 21.673L13.3505 22.1141C13.371 22.171 13.4263 22.1517 13.4263 22.1517C13.4263 22.1517 13.444 22.1448 13.4645 22.1328C13.9107 21.8901 14.4748 21.8975 14.4748 21.8975C14.7255 21.8975 14.9181 21.9477 15.048 22.0474C15.1745 22.1442 15.2389 22.2906 15.2389 22.5995V22.6975C15.0394 22.669 14.8565 22.6525 14.8565 22.6525ZM33.5564 21.4579C33.574 21.4054 33.537 21.3804 33.5216 21.3747C33.4823 21.3593 33.2852 21.3177 33.133 21.308C32.8419 21.2904 32.6801 21.3394 32.5353 21.4043C32.3917 21.4693 32.2322 21.5741 32.1433 21.6932V21.4112C32.1433 21.3718 32.1153 21.3405 32.0766 21.3405H31.4823C31.4436 21.3405 31.4156 21.3718 31.4156 21.4112V24.8693C31.4156 24.908 31.4476 24.9399 31.4863 24.9399H32.0954C32.1141 24.9398 32.1319 24.9323 32.145 24.9191C32.1582 24.9058 32.1655 24.8879 32.1655 24.8693V23.1417C32.1655 22.9097 32.1911 22.6784 32.2424 22.5331C32.2926 22.3895 32.361 22.2744 32.4453 22.1918C32.5302 22.1097 32.6265 22.0522 32.7319 22.0197C32.8396 21.9867 32.9586 21.9758 33.043 21.9758C33.1644 21.9758 33.2977 22.0072 33.2977 22.0072C33.3421 22.0123 33.3672 21.9849 33.382 21.9445C33.4219 21.8385 33.5347 21.5211 33.5564 21.4579Z" fill="white"/>
<path d="M27.839 19.8552C27.765 19.8325 27.6977 19.8171 27.61 19.8006C27.521 19.7846 27.4151 19.7766 27.2949 19.7766C26.8755 19.7766 26.545 19.8951 26.3131 20.1287C26.0823 20.3612 25.9256 20.7151 25.847 21.1806L25.8184 21.3373H25.292C25.292 21.3373 25.2282 21.335 25.2145 21.4046L25.1285 21.8872C25.1222 21.9328 25.1422 21.9618 25.2037 21.9618H25.7159L25.1963 24.8632C25.1558 25.0969 25.1091 25.2889 25.0572 25.4347C25.0065 25.5783 24.9569 25.686 24.8954 25.7646C24.8361 25.8399 24.7803 25.8957 24.6834 25.9282C24.6036 25.9549 24.5113 25.9675 24.4105 25.9675C24.3546 25.9675 24.28 25.9583 24.2247 25.9469C24.17 25.9361 24.141 25.9242 24.0994 25.9065C24.0994 25.9065 24.0396 25.8837 24.0156 25.9435C23.9968 25.9931 23.8601 26.3686 23.8435 26.4148C23.8276 26.4609 23.8504 26.4968 23.8794 26.5076C23.9478 26.5316 23.9985 26.5475 24.0914 26.5697C24.2202 26.6 24.329 26.6016 24.4309 26.6016C24.644 26.6016 24.8389 26.5714 25.0002 26.5133C25.162 26.4546 25.3033 26.3526 25.4287 26.2148C25.5637 26.0655 25.6486 25.9093 25.7296 25.6957C25.8099 25.4848 25.8789 25.2227 25.9335 24.9174L26.456 21.9618H27.2196C27.2196 21.9618 27.2839 21.9641 27.2971 21.894L27.3837 21.412C27.3894 21.3658 27.37 21.3373 27.3079 21.3373H26.5666C26.5706 21.3208 26.6042 21.0598 26.6891 20.8143C26.7256 20.71 26.7939 20.6251 26.8515 20.567C26.9085 20.51 26.974 20.4695 27.0458 20.4462C27.1193 20.4222 27.2031 20.4108 27.2948 20.4108C27.3644 20.4108 27.4333 20.4188 27.4851 20.4296C27.5569 20.445 27.5848 20.453 27.6037 20.4587C27.6795 20.4815 27.6897 20.4593 27.7045 20.4229L27.8818 19.9363C27.9 19.8837 27.855 19.8615 27.839 19.8552ZM17.4815 24.8695C17.4815 24.9083 17.4536 24.9396 17.4148 24.9396H16.8C16.7612 24.9396 16.7339 24.9083 16.7339 24.8695V19.9214C16.7339 19.8826 16.7612 19.8513 16.8 19.8513H17.4148C17.4536 19.8513 17.4815 19.8826 17.4815 19.9214V24.8695Z" fill="white"/>
</g>
<defs>
<clipPath id="clip0_2486_680">
<rect width="40" height="28" fill="white" transform="translate(4 10)"/>
</clipPath>
</defs>
</svg>
