<svg width="48" height="48" viewBox="0 0 48 48" fill="none" xmlns="http://www.w3.org/2000/svg">
<rect width="48" height="48" rx="4" fill="white"/>
<g clip-path="url(#clip0_2537_924)">
<path d="M24 44C35.0457 44 44 35.0457 44 24C44 12.9543 35.0457 4 24 4C12.9543 4 4 12.9543 4 24C4 35.0457 12.9543 44 24 44Z" fill="#007CC5"/>
<path d="M14 18.0579V29.9422H26.1414L38.0234 18.0579H14ZM17.2664 20.268H17.2719C18.1355 20.268 19.1883 20.5137 19.95 20.9016L19.1297 22.3329C18.2938 21.9297 17.8738 21.8907 17.3984 21.8657C16.6898 21.8266 16.3336 22.0809 16.3281 22.354C16.3211 22.6868 16.9973 22.9879 17.6348 23.1926C18.5996 23.4993 19.8262 23.9086 20.0137 25.095L21.7773 20.4325H23.8262L25.8918 26.0149L25.884 20.4344H28.2578C30.5172 20.4344 31.5781 21.1993 31.5781 22.9551C31.5781 24.5317 30.4844 25.4715 28.6387 25.4715H27.8746L27.8672 27.5688L24.2734 27.5653L24.0242 26.6563C23.6258 26.7837 23.2097 26.8474 22.7914 26.845C22.3625 26.8477 21.936 26.7801 21.5289 26.645L21.1699 27.5645L19.168 27.5708L19.2578 27.1083C19.2293 27.1333 19.202 27.1586 19.1711 27.1829C18.6359 27.6125 17.9625 27.8122 17.1328 27.827H16.9188C15.9652 27.827 15.1262 27.6012 14.3355 27.152L15.0664 25.702C15.8578 26.1708 16.3555 26.2754 17.0238 26.261C17.3711 26.254 17.6223 26.1907 17.7863 26.0215C17.8823 25.9221 17.938 25.7905 17.9426 25.6524C17.9492 25.2758 17.4129 25.0989 16.7566 24.8958C16.2246 24.7309 15.6207 24.5051 15.1484 24.1602C14.5895 23.7489 14.3234 23.2348 14.3367 22.509C14.3398 21.9933 14.5426 21.4989 14.9027 21.1297C15.4227 20.5922 16.2605 20.2657 17.2676 20.2657L17.2664 20.268ZM27.8738 21.9399V23.8461H28.3953C29.0898 23.8461 29.6453 23.6149 29.6453 22.8805C29.6453 22.1711 29.091 21.9395 28.3953 21.9395L27.8738 21.9399ZM22.7832 22.7075L22.0344 25.0723C22.2767 25.1617 22.5331 25.2065 22.7914 25.2047C23.0442 25.2054 23.2952 25.1629 23.5336 25.079L22.7965 22.7075H22.7832Z" fill="white"/>
</g>
<defs>
<clipPath id="clip0_2537_924">
<rect width="40" height="40" fill="white" transform="translate(4 4)"/>
</clipPath>
</defs>
</svg>
