<svg width="48" height="48" viewBox="0 0 48 48" fill="none" xmlns="http://www.w3.org/2000/svg">
<rect width="48" height="48" rx="4" fill="white"/>
<path d="M43.6514 17.1001H4V36.7079H24.0436" fill="url(#paint0_linear_2537_1086)"/>
<path d="M23.6079 21.0217V30.2592L20.2092 21.0217H16.8105L13.9347 28.6905C13.5861 26.7733 11.5818 26.0762 10.0131 25.5533C8.96739 25.2047 7.8345 24.769 7.8345 24.1589C7.8345 23.7232 8.44452 23.2875 9.57742 23.3746C10.3617 23.4618 11.0589 23.4618 12.4532 24.1589L13.8476 21.806C12.5404 21.1088 10.7975 20.7603 9.40312 20.7603C7.74735 20.7603 6.35301 21.2831 5.48155 22.1546C4.87153 22.7646 4.6101 23.5489 4.52295 24.4204C4.52295 25.6404 4.95868 26.5119 5.91728 27.2091C6.7016 27.7319 7.6602 28.0805 8.53166 28.342C9.66456 28.6905 10.536 29.0391 10.536 29.6491C10.4489 30.4335 9.57742 30.6077 8.96739 30.6077C7.92164 30.6949 7.05018 30.5206 5.74299 29.7363L4.52295 32.0892C5.83014 32.8735 7.22447 33.2221 8.88025 33.2221C10.0131 33.2221 11.7561 32.8735 12.7147 32.0021L12.5404 32.7864H15.8519L16.4619 31.3049C17.7691 31.6535 19.2506 31.7406 20.5578 31.3049L20.9935 32.7864H26.9195V29.3006H28.1395C31.1896 29.3006 33.0197 27.8191 33.0197 25.2047C33.0197 22.2417 31.2768 21.0217 27.5295 21.0217H23.6079ZM17.2463 28.6905L18.4663 24.769H18.5535L19.7735 28.6905C18.902 28.952 18.0306 28.952 17.2463 28.6905ZM26.9195 26.6862V23.5489H27.7909C28.9238 23.5489 29.7953 23.8975 29.7953 25.0304C29.7953 26.2505 28.9238 26.6862 27.7909 26.6862H26.9195Z" fill="white"/>
<path d="M36.8051 13.7262L36.2257 13.7619C36.2158 13.7124 36.1946 13.6678 36.1619 13.6282C36.1292 13.5876 36.0861 13.5554 36.0326 13.5316C35.9802 13.5069 35.9173 13.4945 35.844 13.4945C35.7459 13.4945 35.6633 13.5153 35.5959 13.5569C35.5286 13.5975 35.4949 13.652 35.4949 13.7203C35.4949 13.7748 35.5167 13.8208 35.5603 13.8584C35.6038 13.8961 35.6786 13.9263 35.7846 13.949L36.1975 14.0322C36.4193 14.0778 36.5847 14.1511 36.6937 14.2521C36.8026 14.3531 36.8571 14.4858 36.8571 14.6502C36.8571 14.7997 36.813 14.9309 36.7249 15.0438C36.6377 15.1567 36.5179 15.2448 36.3654 15.3082C36.2139 15.3706 36.0391 15.4018 35.841 15.4018C35.539 15.4018 35.2983 15.3389 35.1191 15.2132C34.9408 15.0864 34.8364 14.9141 34.8057 14.6962L35.4281 14.6635C35.4469 14.7556 35.4924 14.826 35.5647 14.8745C35.637 14.922 35.7296 14.9458 35.8425 14.9458C35.9534 14.9458 36.0425 14.9245 36.1099 14.8819C36.1782 14.8383 36.2129 14.7824 36.2139 14.7141C36.2129 14.6566 36.1886 14.6096 36.1411 14.5729C36.0935 14.5353 36.0203 14.5066 35.9212 14.4868L35.5261 14.408C35.3033 14.3635 35.1374 14.2862 35.0285 14.1763C34.9205 14.0664 34.8666 13.9263 34.8666 13.7559C34.8666 13.6094 34.9062 13.4831 34.9854 13.3772C35.0656 13.2712 35.178 13.1895 35.3226 13.1321C35.4682 13.0746 35.6385 13.0459 35.8336 13.0459C36.1218 13.0459 36.3485 13.1068 36.5139 13.2286C36.6803 13.3504 36.7773 13.5163 36.8051 13.7262Z" fill="#0083CA"/>
<path d="M33.1953 15.3573V13.0756H33.8088V13.4737H33.8326C33.8742 13.3321 33.944 13.2252 34.042 13.1529C34.1401 13.0796 34.2529 13.043 34.3807 13.043C34.4124 13.043 34.4466 13.0449 34.4832 13.0489C34.5198 13.0529 34.552 13.0583 34.5797 13.0653V13.6267C34.55 13.6178 34.5089 13.6099 34.4565 13.603C34.404 13.596 34.3559 13.5926 34.3124 13.5926C34.2193 13.5926 34.1361 13.6129 34.0628 13.6535C33.9905 13.6931 33.9331 13.7486 33.8905 13.8199C33.8489 13.8912 33.8281 13.9734 33.8281 14.0664V15.3573H33.1953Z" fill="#0083CA"/>
<path d="M31.6606 15.4018C31.4299 15.4018 31.2303 15.3528 31.062 15.2548C30.8946 15.1557 30.7654 15.0181 30.6743 14.8418C30.5832 14.6645 30.5376 14.459 30.5376 14.2253C30.5376 13.9896 30.5832 13.7837 30.6743 13.6074C30.7654 13.4301 30.8946 13.2925 31.062 13.1944C31.2303 13.0954 31.4299 13.0459 31.6606 13.0459C31.8913 13.0459 32.0904 13.0954 32.2577 13.1944C32.4261 13.2925 32.5558 13.4301 32.6469 13.6074C32.738 13.7837 32.7836 13.9896 32.7836 14.2253C32.7836 14.459 32.738 14.6645 32.6469 14.8418C32.5558 15.0181 32.4261 15.1557 32.2577 15.2548C32.0904 15.3528 31.8913 15.4018 31.6606 15.4018ZM31.6636 14.9116C31.7685 14.9116 31.8562 14.8819 31.9265 14.8225C31.9968 14.7621 32.0498 14.6799 32.0854 14.5759C32.1221 14.4719 32.1404 14.3536 32.1404 14.2209C32.1404 14.0882 32.1221 13.9698 32.0854 13.8659C32.0498 13.7619 31.9968 13.6797 31.9265 13.6193C31.8562 13.5589 31.7685 13.5287 31.6636 13.5287C31.5576 13.5287 31.4685 13.5589 31.3962 13.6193C31.3249 13.6797 31.2709 13.7619 31.2343 13.8659C31.1986 13.9698 31.1808 14.0882 31.1808 14.2209C31.1808 14.3536 31.1986 14.4719 31.2343 14.5759C31.2709 14.6799 31.3249 14.7621 31.3962 14.8225C31.4685 14.8819 31.5576 14.9116 31.6636 14.9116Z" fill="#0083CA"/>
<path d="M30.2422 13.0757V13.551H28.8682V13.0757H30.2422ZM29.1801 12.5291H29.8129V14.6562C29.8129 14.7146 29.8218 14.7602 29.8396 14.7929C29.8575 14.8246 29.8822 14.8468 29.9139 14.8597C29.9466 14.8726 29.9842 14.879 30.0268 14.879C30.0565 14.879 30.0862 14.8765 30.1159 14.8716C30.1456 14.8657 30.1684 14.8612 30.1843 14.8582L30.2838 15.3291C30.2521 15.339 30.2075 15.3504 30.1501 15.3633C30.0927 15.3771 30.0228 15.3856 29.9407 15.3885C29.7881 15.3945 29.6545 15.3742 29.5396 15.3276C29.4257 15.2811 29.3371 15.2088 29.2737 15.1108C29.2103 15.0127 29.1791 14.8889 29.1801 14.7394V12.5291Z" fill="#0083CA"/>
<path d="M27.6044 15.4018C27.3707 15.4018 27.1697 15.3523 27.0014 15.2533C26.834 15.1532 26.7053 15.0146 26.6151 14.8373C26.526 14.6601 26.4814 14.4561 26.4814 14.2253C26.4814 13.9916 26.5265 13.7866 26.6166 13.6104C26.7077 13.4331 26.837 13.295 27.0043 13.1959C27.1717 13.0959 27.3707 13.0459 27.6015 13.0459C27.8005 13.0459 27.9748 13.082 28.1243 13.1543C28.2739 13.2266 28.3922 13.3281 28.4794 13.4589C28.5665 13.5896 28.6145 13.7431 28.6235 13.9193H28.0263C28.0095 13.8055 27.9649 13.7139 27.8926 13.6445C27.8213 13.5742 27.7277 13.5391 27.6119 13.5391C27.5138 13.5391 27.4282 13.5658 27.3549 13.6193C27.2826 13.6718 27.2261 13.7485 27.1855 13.8495C27.1449 13.9505 27.1246 14.0728 27.1246 14.2164C27.1246 14.362 27.1444 14.4858 27.1841 14.5878C27.2247 14.6898 27.2816 14.7675 27.3549 14.821C27.4282 14.8745 27.5138 14.9012 27.6119 14.9012C27.6842 14.9012 27.749 14.8864 27.8065 14.8567C27.8649 14.8269 27.9129 14.7839 27.9505 14.7274C27.9892 14.67 28.0144 14.6012 28.0263 14.5209H28.6235C28.6135 14.6952 28.566 14.8487 28.4809 14.9814C28.3967 15.1131 28.2803 15.2161 28.1318 15.2904C27.9832 15.3647 27.8074 15.4018 27.6044 15.4018Z" fill="#0083CA"/>
<path d="M24.7976 15.4003C24.652 15.4003 24.5223 15.3751 24.4084 15.3246C24.2945 15.2731 24.2044 15.1973 24.1381 15.0973C24.0727 14.9963 24.04 14.8705 24.04 14.72C24.04 14.5932 24.0633 14.4868 24.1099 14.4006C24.1564 14.3145 24.2198 14.2451 24.3 14.1927C24.3802 14.1402 24.4713 14.1006 24.5733 14.0738C24.6763 14.0471 24.7842 14.0283 24.8971 14.0174C25.0298 14.0035 25.1368 13.9906 25.218 13.9788C25.2992 13.9659 25.3581 13.9471 25.3948 13.9223C25.4314 13.8976 25.4497 13.8609 25.4497 13.8124V13.8035C25.4497 13.7094 25.42 13.6366 25.3606 13.5851C25.3022 13.5336 25.219 13.5079 25.111 13.5079C24.9972 13.5079 24.9065 13.5331 24.8392 13.5836C24.7719 13.6331 24.7273 13.6955 24.7055 13.7708L24.1203 13.7233C24.15 13.5846 24.2084 13.4648 24.2955 13.3638C24.3827 13.2618 24.4951 13.1835 24.6327 13.1291C24.7714 13.0736 24.9318 13.0459 25.114 13.0459C25.2408 13.0459 25.3621 13.0608 25.4779 13.0905C25.5948 13.1202 25.6983 13.1662 25.7884 13.2286C25.8795 13.291 25.9513 13.3712 26.0038 13.4692C26.0563 13.5663 26.0825 13.6827 26.0825 13.8183V15.3572H25.4824V15.0408H25.4646C25.4279 15.1121 25.3789 15.175 25.3175 15.2295C25.2561 15.283 25.1823 15.3251 25.0962 15.3558C25.01 15.3855 24.9105 15.4003 24.7976 15.4003ZM24.9788 14.9636C25.0719 14.9636 25.1541 14.9453 25.2254 14.9086C25.2967 14.871 25.3527 14.8205 25.3933 14.7571C25.4339 14.6937 25.4542 14.622 25.4542 14.5417V14.2996C25.4344 14.3125 25.4071 14.3244 25.3725 14.3353C25.3388 14.3452 25.3007 14.3546 25.2581 14.3635C25.2155 14.3714 25.1729 14.3788 25.1304 14.3858C25.0878 14.3917 25.0492 14.3972 25.0145 14.4021C24.9402 14.413 24.8754 14.4303 24.8199 14.4541C24.7644 14.4779 24.7214 14.51 24.6907 14.5507C24.66 14.5903 24.6446 14.6398 24.6446 14.6992C24.6446 14.7854 24.6758 14.8512 24.7382 14.8968C24.8016 14.9413 24.8818 14.9636 24.9788 14.9636Z" fill="#0083CA"/>
<path d="M21.7407 15.3574V12.3152H23.755V12.8455H22.3839V13.5704H23.6213V14.1007H22.3839V15.3574H21.7407Z" fill="#0083CA"/>
<path d="M21.2782 13.7262L20.6989 13.7619C20.689 13.7124 20.6677 13.6678 20.635 13.6282C20.6023 13.5876 20.5593 13.5554 20.5058 13.5316C20.4533 13.5069 20.3904 13.4945 20.3171 13.4945C20.2191 13.4945 20.1364 13.5153 20.0691 13.5569C20.0017 13.5975 19.9681 13.652 19.9681 13.7203C19.9681 13.7748 19.9898 13.8208 20.0334 13.8584C20.077 13.8961 20.1518 13.9263 20.2577 13.949L20.6707 14.0322C20.8925 14.0778 21.0579 14.1511 21.1668 14.2521C21.2757 14.3531 21.3302 14.4858 21.3302 14.6502C21.3302 14.7997 21.2861 14.9309 21.198 15.0438C21.1109 15.1567 20.991 15.2448 20.8385 15.3082C20.687 15.3706 20.5122 15.4018 20.3142 15.4018C20.0121 15.4018 19.7715 15.3389 19.5922 15.2132C19.414 15.0864 19.3095 14.9141 19.2788 14.6962L19.9012 14.6635C19.92 14.7556 19.9656 14.826 20.0379 14.8745C20.1102 14.922 20.2028 14.9458 20.3156 14.9458C20.4266 14.9458 20.5157 14.9245 20.583 14.8819C20.6514 14.8383 20.686 14.7824 20.687 14.7141C20.686 14.6566 20.6618 14.6096 20.6142 14.5729C20.5667 14.5353 20.4934 14.5066 20.3944 14.4868L19.9992 14.408C19.7764 14.3635 19.6106 14.2862 19.5016 14.1763C19.3937 14.0664 19.3397 13.9263 19.3397 13.7559C19.3397 13.6094 19.3793 13.4831 19.4585 13.3772C19.5388 13.2712 19.6512 13.1895 19.7957 13.1321C19.9413 13.0746 20.1116 13.0459 20.3067 13.0459C20.5949 13.0459 20.8217 13.1068 20.9871 13.2286C21.1534 13.3504 21.2505 13.5163 21.2782 13.7262Z" fill="#0083CA"/>
<path d="M18.9296 13.7262L18.3503 13.7619C18.3404 13.7124 18.3191 13.6678 18.2864 13.6282C18.2537 13.5876 18.2106 13.5554 18.1572 13.5316C18.1047 13.5069 18.0418 13.4945 17.9685 13.4945C17.8705 13.4945 17.7878 13.5153 17.7204 13.5569C17.6531 13.5975 17.6194 13.652 17.6194 13.7203C17.6194 13.7748 17.6412 13.8208 17.6848 13.8584C17.7284 13.8961 17.8031 13.9263 17.9091 13.949L18.322 14.0322C18.5439 14.0778 18.7092 14.1511 18.8182 14.2521C18.9271 14.3531 18.9816 14.4858 18.9816 14.6502C18.9816 14.7997 18.9375 14.9309 18.8494 15.0438C18.7622 15.1567 18.6424 15.2448 18.4899 15.3082C18.3384 15.3706 18.1636 15.4018 17.9655 15.4018C17.6635 15.4018 17.4228 15.3389 17.2436 15.2132C17.0654 15.0864 16.9609 14.9141 16.9302 14.6962L17.5526 14.6635C17.5714 14.7556 17.6169 14.826 17.6892 14.8745C17.7615 14.922 17.8541 14.9458 17.967 14.9458C18.0779 14.9458 18.1671 14.9245 18.2344 14.8819C18.3027 14.8383 18.3374 14.7824 18.3384 14.7141C18.3374 14.6566 18.3131 14.6096 18.2656 14.5729C18.2181 14.5353 18.1448 14.5066 18.0457 14.4868L17.6506 14.408C17.4278 14.3635 17.2619 14.2862 17.153 14.1763C17.0451 14.0664 16.9911 13.9263 16.9911 13.7559C16.9911 13.6094 17.0307 13.4831 17.1099 13.3772C17.1901 13.2712 17.3025 13.1895 17.4471 13.1321C17.5927 13.0746 17.763 13.0459 17.9581 13.0459C18.2463 13.0459 18.4731 13.1068 18.6384 13.2286C18.8048 13.3504 18.9019 13.5163 18.9296 13.7262Z" fill="#0083CA"/>
<path d="M15.5709 15.4018C15.3362 15.4018 15.1342 15.3543 14.9648 15.2592C14.7965 15.1631 14.6667 15.0275 14.5756 14.8522C14.4845 14.6759 14.439 14.4675 14.439 14.2268C14.439 13.9921 14.4845 13.7861 14.5756 13.6089C14.6667 13.4316 14.795 13.2935 14.9604 13.1944C15.1267 13.0954 15.3218 13.0459 15.5456 13.0459C15.6961 13.0459 15.8363 13.0702 15.966 13.1187C16.0967 13.1662 16.2106 13.238 16.3077 13.3341C16.4057 13.4301 16.4819 13.5509 16.5364 13.6965C16.5909 13.8411 16.6181 14.0104 16.6181 14.2045V14.3783H14.6915V13.9862H16.0224C16.0224 13.8951 16.0026 13.8144 15.963 13.7441C15.9234 13.6737 15.8685 13.6188 15.7981 13.5792C15.7288 13.5386 15.6481 13.5183 15.556 13.5183C15.46 13.5183 15.3748 13.5406 15.3005 13.5851C15.2272 13.6287 15.1698 13.6876 15.1282 13.7619C15.0866 13.8352 15.0653 13.9169 15.0643 14.007V14.3798C15.0643 14.4927 15.0851 14.5903 15.1267 14.6725C15.1693 14.7547 15.2292 14.818 15.3065 14.8626C15.3837 14.9072 15.4753 14.9294 15.5813 14.9294C15.6516 14.9294 15.716 14.9195 15.7744 14.8997C15.8328 14.8799 15.8828 14.8502 15.9244 14.8106C15.966 14.771 15.9977 14.7225 16.0195 14.665L16.6047 14.7037C16.575 14.8443 16.5141 14.9671 16.422 15.072C16.3309 15.176 16.2131 15.2572 16.0685 15.3157C15.9249 15.3731 15.759 15.4018 15.5709 15.4018Z" fill="#0083CA"/>
<path d="M13.1069 15.4018C12.8732 15.4018 12.6721 15.3523 12.5038 15.2533C12.3364 15.1532 12.2077 15.0146 12.1176 14.8373C12.0284 14.6601 11.9839 14.4561 11.9839 14.2253C11.9839 13.9916 12.0289 13.7866 12.1191 13.6104C12.2102 13.4331 12.3394 13.295 12.5068 13.1959C12.6741 13.0959 12.8732 13.0459 13.1039 13.0459C13.303 13.0459 13.4773 13.082 13.6268 13.1543C13.7763 13.2266 13.8947 13.3281 13.9818 13.4589C14.069 13.5896 14.117 13.7431 14.1259 13.9193H13.5287C13.5119 13.8055 13.4673 13.7139 13.3951 13.6445C13.3238 13.5742 13.2302 13.5391 13.1143 13.5391C13.0163 13.5391 12.9306 13.5658 12.8573 13.6193C12.785 13.6718 12.7286 13.7485 12.688 13.8495C12.6474 13.9505 12.6271 14.0728 12.6271 14.2164C12.6271 14.362 12.6469 14.4858 12.6865 14.5878C12.7271 14.6898 12.784 14.7675 12.8573 14.821C12.9306 14.8745 13.0163 14.9012 13.1143 14.9012C13.1866 14.9012 13.2515 14.8864 13.3089 14.8567C13.3673 14.8269 13.4154 14.7839 13.453 14.7274C13.4916 14.67 13.5169 14.6012 13.5287 14.5209H14.1259C14.116 14.6952 14.0685 14.8487 13.9833 14.9814C13.8991 15.1131 13.7828 15.2161 13.6342 15.2904C13.4857 15.3647 13.3099 15.4018 13.1069 15.4018Z" fill="#0083CA"/>
<path d="M10.6518 15.4018C10.4181 15.4018 10.2171 15.3523 10.0487 15.2533C9.88135 15.1532 9.75262 15.0146 9.6625 14.8373C9.57337 14.6601 9.52881 14.4561 9.52881 14.2253C9.52881 13.9916 9.57387 13.7866 9.66398 13.6104C9.75509 13.4331 9.88432 13.295 10.0517 13.1959C10.219 13.0959 10.4181 13.0459 10.6488 13.0459C10.8479 13.0459 11.0222 13.082 11.1717 13.1543C11.3212 13.2266 11.4396 13.3281 11.5267 13.4589C11.6139 13.5896 11.6619 13.7431 11.6708 13.9193H11.0737C11.0568 13.8055 11.0123 13.7139 10.94 13.6445C10.8687 13.5742 10.7751 13.5391 10.6592 13.5391C10.5612 13.5391 10.4755 13.5658 10.4022 13.6193C10.33 13.6718 10.2735 13.7485 10.2329 13.8495C10.1923 13.9505 10.172 14.0728 10.172 14.2164C10.172 14.362 10.1918 14.4858 10.2314 14.5878C10.272 14.6898 10.329 14.7675 10.4022 14.821C10.4755 14.8745 10.5612 14.9012 10.6592 14.9012C10.7315 14.9012 10.7964 14.8864 10.8538 14.8567C10.9123 14.8269 10.9603 14.7839 10.9979 14.7274C11.0365 14.67 11.0618 14.6012 11.0737 14.5209H11.6708C11.6609 14.6952 11.6134 14.8487 11.5282 14.9814C11.444 15.1131 11.3277 15.2161 11.1791 15.2904C11.0306 15.3647 10.8548 15.4018 10.6518 15.4018Z" fill="#0083CA"/>
<path d="M8.48172 14.3858V13.0757H9.11451V15.3573H8.50697V14.9429H8.4832C8.43171 15.0766 8.34605 15.184 8.22622 15.2652C8.10738 15.3464 7.96231 15.387 7.79098 15.387C7.63848 15.387 7.50429 15.3524 7.38843 15.2831C7.27257 15.2137 7.18195 15.1152 7.11659 14.9874C7.05222 14.8597 7.01954 14.7067 7.01855 14.5284V13.0757H7.65135V14.4156C7.65234 14.5502 7.68849 14.6567 7.75979 14.7349C7.83109 14.8132 7.92666 14.8523 8.04648 14.8523C8.12273 14.8523 8.19404 14.8349 8.26038 14.8003C8.32673 14.7646 8.38021 14.7121 8.42081 14.6428C8.4624 14.5735 8.48271 14.4878 8.48172 14.3858Z" fill="#0083CA"/>
<path d="M5.93977 13.19C5.92789 13.0701 5.87689 12.977 5.78677 12.9107C5.69665 12.8443 5.57435 12.8112 5.41987 12.8112C5.3149 12.8112 5.22626 12.826 5.15397 12.8557C5.08168 12.8844 5.02623 12.9246 4.9876 12.9761C4.94997 13.0275 4.93116 13.086 4.93116 13.1513C4.92918 13.2058 4.94056 13.2533 4.96532 13.2939C4.99107 13.3345 5.02623 13.3697 5.07079 13.3994C5.11535 13.4281 5.16685 13.4534 5.22527 13.4752C5.2837 13.496 5.34609 13.5138 5.41244 13.5286L5.68576 13.594C5.81846 13.6237 5.94027 13.6633 6.05118 13.7128C6.16209 13.7623 6.25815 13.8232 6.33936 13.8955C6.42056 13.9678 6.48344 14.053 6.52801 14.151C6.57356 14.2491 6.59683 14.3615 6.59782 14.4882C6.59683 14.6744 6.5493 14.8358 6.45522 14.9725C6.36213 15.1082 6.22745 15.2136 6.05118 15.2889C5.8759 15.3632 5.66447 15.4003 5.4169 15.4003C5.1713 15.4003 4.9574 15.3627 4.77519 15.2874C4.59396 15.2121 4.45235 15.1007 4.35035 14.9532C4.24934 14.8046 4.19636 14.6209 4.19141 14.4021H4.81381C4.82074 14.5041 4.84995 14.5892 4.90145 14.6576C4.95393 14.7249 5.02375 14.7759 5.1109 14.8106C5.19903 14.8442 5.29856 14.8611 5.40947 14.8611C5.5184 14.8611 5.61298 14.8452 5.69319 14.8135C5.77439 14.7819 5.83728 14.7378 5.88184 14.6813C5.9264 14.6249 5.94868 14.56 5.94868 14.4867C5.94868 14.4184 5.92838 14.361 5.88778 14.3144C5.84817 14.2679 5.78974 14.2283 5.7125 14.1956C5.63625 14.1629 5.54266 14.1332 5.43175 14.1065L5.1005 14.0233C4.84401 13.9609 4.6415 13.8634 4.49295 13.7307C4.34441 13.598 4.27063 13.4192 4.27162 13.1944C4.27063 13.0102 4.31965 12.8493 4.41868 12.7116C4.5187 12.574 4.65585 12.4665 4.83015 12.3893C5.00444 12.3121 5.2025 12.2734 5.42432 12.2734C5.65011 12.2734 5.84718 12.3121 6.01553 12.3893C6.18487 12.4665 6.31658 12.574 6.41066 12.7116C6.50474 12.8493 6.55326 13.0087 6.55623 13.19H5.93977Z" fill="#0083CA"/>
<path fill-rule="evenodd" clip-rule="evenodd" d="M40.2329 11.7029C40.095 11.6881 39.9555 11.7021 39.8232 11.7442C39.6909 11.7862 39.5686 11.8553 39.464 11.9473C39.3595 12.0392 39.2749 12.152 39.2157 12.2786C39.1565 12.4051 39.124 12.5427 39.1204 12.6826C39.1167 12.8225 39.1419 12.9616 39.1944 13.0911C39.2469 13.2207 39.3254 13.3378 39.4251 13.4351L39.4272 13.4373L41.2138 15.2142L43.0003 13.4373C43.0065 13.4312 43.0128 13.4253 43.0193 13.4197C43.1097 13.326 43.1812 13.2154 43.2299 13.094C43.2818 12.9647 43.3066 12.826 43.3026 12.6865C43.2987 12.5471 43.2661 12.41 43.207 12.2839C43.1479 12.1577 43.0636 12.0453 42.9594 11.9536C42.8552 11.8619 42.7333 11.7929 42.6015 11.7508C42.4697 11.7086 42.3307 11.6943 42.1931 11.7086C42.0556 11.7229 41.9224 11.7656 41.8019 11.834C41.6814 11.9025 41.5762 11.9952 41.4928 12.1065C41.4268 12.1947 41.323 12.2465 41.2128 12.2462C41.1027 12.2459 40.9991 12.1935 40.9336 12.105C40.8506 11.9928 40.7455 11.8993 40.6249 11.8301C40.5043 11.7609 40.3709 11.7176 40.2329 11.7029ZM43.4709 13.9526L41.4596 15.953C41.3236 16.0883 41.1039 16.0883 40.968 15.953L38.9366 13.9326C38.7687 13.7682 38.6365 13.5708 38.5482 13.3529C38.4597 13.1344 38.4173 12.9 38.4234 12.6643C38.4296 12.4286 38.4843 12.1968 38.5842 11.9833C38.684 11.7698 38.8268 11.5792 39.0037 11.4237C39.1806 11.2682 39.3877 11.151 39.6121 11.0797C39.8365 11.0085 40.0731 10.9846 40.3072 11.0097C40.5412 11.0347 40.7675 11.1082 40.9718 11.2254C41.0579 11.2748 41.1393 11.3315 41.2152 11.3948C41.2908 11.3324 41.3719 11.2765 41.4576 11.2278C41.6617 11.1119 41.8876 11.0395 42.121 11.0152C42.3544 10.9909 42.5902 11.0153 42.8138 11.0867C43.0373 11.1582 43.2437 11.2751 43.4199 11.4303C43.5962 11.5854 43.7386 11.7753 43.8383 11.988C43.938 12.2008 43.9929 12.4319 43.9995 12.6668C44.0062 12.9017 43.9645 13.1355 43.877 13.3536C43.7895 13.5716 43.6581 13.7693 43.4909 13.9342C43.4844 13.9407 43.4777 13.9468 43.4709 13.9526Z" fill="#FEB811"/>
<defs>
<linearGradient id="paint0_linear_2537_1086" x1="4" y1="17.1001" x2="4" y2="36.7079" gradientUnits="userSpaceOnUse">
<stop stop-color="#00AAEE"/>
<stop offset="1" stop-color="#0055AA"/>
</linearGradient>
</defs>
</svg>
