<svg width="48" height="48" viewBox="0 0 48 48" fill="none" xmlns="http://www.w3.org/2000/svg">
<rect width="48" height="48" rx="4" fill="#1E9E9E"/>
<path d="M37.8161 25.6732L27.5085 35.961H23.3493V31.8098L33.6569 21.522L37.8161 25.6732ZM43.9645 24.2293C43.9645 24.7707 43.422 25.3122 42.8795 25.8537L38.3586 30.3659L36.7311 28.7415L41.4328 24.0488L40.3478 22.9659L39.082 24.2293L34.9228 20.078L38.9011 16.2878C39.2628 15.9268 39.9862 15.9268 40.5287 16.2878L43.0604 18.8146C43.422 19.1756 43.422 19.8976 43.0604 20.439C42.6987 20.8 42.337 21.161 42.337 21.522C42.337 21.8829 42.6987 22.2439 43.0604 22.6049C43.6029 23.1463 44.1454 23.6878 43.9645 24.2293ZM7.6167 38.4878V9.60976H20.2751V18.6341H29.3169V21.3415L32.9336 17.7317V16.8293L22.0835 6H7.6167C5.62751 6 4 7.62439 4 9.60976V38.4878C4 40.4732 5.62751 42.0976 7.6167 42.0976H29.3169C31.3061 42.0976 32.9336 40.4732 32.9336 38.4878H7.6167ZM22.0835 33.2537C21.7218 33.2537 21.3602 33.4341 21.1793 33.4341L20.2751 29.4634H17.5626L13.7651 32.5317L14.8501 27.6585H12.1376L10.3292 36.6829H13.0417L18.286 31.9902L19.371 36.1415H21.1793L22.0835 35.961V33.2537Z" fill="white"/>
</svg>
