<svg width="48" height="48" viewBox="0 0 48 48" fill="none" xmlns="http://www.w3.org/2000/svg">
<rect width="48" height="48" rx="4" fill="white"/>
<g clip-path="url(#clip0_2486_686)">
<path fill-rule="evenodd" clip-rule="evenodd" d="M18.6658 4C16.4547 4.00163 14.6651 5.79604 14.6668 8.00719C14.6651 10.2183 16.4563 12.0127 18.6674 12.0144H22.6681V8.00882C22.6697 5.79768 20.8786 4.00327 18.6658 4C18.6674 4 18.6674 4 18.6658 4ZM18.6658 14.688H8.00066C5.78951 14.6897 3.99837 16.4841 4 18.6952C3.99674 20.9064 5.78788 22.7008 7.99902 22.704H18.6658C20.8769 22.7024 22.6681 20.908 22.6665 18.6968C22.6681 16.4841 20.8769 14.6897 18.6658 14.688Z" fill="#36C5F0"/>
<path fill-rule="evenodd" clip-rule="evenodd" d="M43.9999 18.6952C44.0016 16.4841 42.2104 14.6897 39.9993 14.688C37.7881 14.6897 35.997 16.4841 35.9986 18.6952V22.704H39.9993C42.2104 22.7024 44.0016 20.908 43.9999 18.6952ZM33.3332 18.6952V8.00719C33.3348 5.79768 31.5453 4.00327 29.3342 4C27.123 4.00163 25.3319 5.79604 25.3335 8.00719V18.6952C25.3302 20.9064 27.1214 22.7008 29.3325 22.704C31.5437 22.7024 33.3348 20.908 33.3332 18.6952Z" fill="#2EB67D"/>
<path fill-rule="evenodd" clip-rule="evenodd" d="M29.3327 44.0802C31.5438 44.0785 33.335 42.2841 33.3333 40.073C33.335 37.8618 31.5438 36.0674 29.3327 36.0658H25.332V40.073C25.3304 42.2825 27.1215 44.0769 29.3327 44.0802ZM29.3327 33.3905H39.9995C42.2106 33.3889 44.0018 31.5945 44.0001 29.3833C44.0034 27.1722 42.2122 25.3778 40.0011 25.3745H29.3343C27.1232 25.3761 25.332 27.1706 25.3337 29.3817C25.332 31.5945 27.1215 33.3889 29.3327 33.3905Z" fill="#ECB22E"/>
<path fill-rule="evenodd" clip-rule="evenodd" d="M4 29.3832C3.99837 31.5943 5.78951 33.3887 8.00065 33.3904C10.2118 33.3887 12.0029 31.5943 12.0013 29.3832V25.376H8.00065C5.78951 25.3776 3.99837 27.172 4 29.3832ZM14.6668 29.3832V40.0712C14.6635 42.2823 16.4546 44.0767 18.6658 44.08C20.8769 44.0784 22.6681 42.284 22.6664 40.0728V29.3864C22.6697 27.1753 20.8786 25.3809 18.6674 25.3776C16.4546 25.3776 14.6651 27.172 14.6668 29.3832Z" fill="#E01E5A"/>
</g>
<defs>
<clipPath id="clip0_2486_686">
<rect width="40" height="40.0801" fill="white" transform="translate(4 4)"/>
</clipPath>
</defs>
</svg>
