<svg width="48" height="48" viewBox="0 0 48 48" fill="none" xmlns="http://www.w3.org/2000/svg">
<rect width="48" height="48" rx="4" fill="white"/>
<g clip-path="url(#clip0_2537_960)">
<path d="M38.6839 42.9776H36.4924C36.4924 25.3086 21.9148 10.9351 4 10.9351V8.7437C23.123 8.7437 38.6839 24.0963 38.6839 42.9776ZM40.2004 31.1914C37.5673 20.1092 28.5891 10.8601 17.3278 7.62299L17.8319 5.86484C29.7182 9.28115 39.1963 19.051 41.9752 30.7706L40.2004 31.1914ZM42.671 20.7883C39.9588 14.8722 35.3301 9.71027 29.6515 6.25646L30.4139 5.00659C36.3425 8.61455 41.1628 13.9973 44 20.18L42.671 20.7883Z" fill="#499CD2"/>
</g>
<defs>
<clipPath id="clip0_2537_960">
<rect width="40" height="37.984" fill="white" transform="translate(4 5)"/>
</clipPath>
</defs>
</svg>
