<svg width="48" height="48" viewBox="0 0 48 48" fill="none" xmlns="http://www.w3.org/2000/svg">
<rect width="48" height="48" rx="4" fill="white"/>
<g clip-path="url(#clip0_2537_1050)">
<path d="M22.9053 30.668H25.0943V24.6979H30.6001V22.5751H25.0943V16.605H22.9053V22.5751H17.4658V24.6979H22.9053V30.668Z" fill="#E8762D"/>
<path d="M12.7564 39.2914H14.6138V33.9846H19.5226V32.3263H14.6138V26.9531H12.7564V32.3263H7.84766V33.9846H12.7564V39.2914Z" fill="#C72037"/>
<path d="M33.3863 20.1209H35.2437V14.8141H40.2188V13.222H35.2437V7.84888H33.3863V13.222H28.4775V14.8141H33.3863V20.1209Z" fill="#5B879B"/>
<path d="M23.2372 43.4706H24.8292V39.6895H28.2123V38.2965H24.8292V34.5154H23.2372V38.2965H19.9204V39.6895H23.2372V43.4706Z" fill="#5C6692"/>
<path d="M12.8228 20.1209H14.5475V14.7477H19.5226V13.222H14.5475V7.84888H12.8228V13.222H7.84766V14.7477H12.8228V20.1209Z" fill="#EB9129"/>
<path d="M39.0248 28.081H40.6168V24.3663H43.9999V22.9069H40.6168V19.1921H39.0248V22.9069H35.708V24.3663H39.0248V28.081Z" fill="#5C6692"/>
<path fill-rule="evenodd" clip-rule="evenodd" d="M33.3863 39.2914H35.2437V33.9846H40.2188V32.3263H35.2437V26.9531H33.3863V32.3263H28.4775V33.9846H33.3863V39.2914Z" fill="#1F457E"/>
<path d="M27.9469 8.77734V7.64965H24.6302V4.00122H23.4362V7.64965H20.1194V8.77734H23.4362V12.4258H24.6302V8.77734H27.9469ZM7.31675 27.8155H8.51078V24.1671H11.8275V23.0394H8.51078V19.4573H7.31675V23.0394H4V24.2334L7.31675 24.1671V27.8155Z" fill="#7199A6"/>
</g>
<defs>
<clipPath id="clip0_2537_1050">
<rect width="40" height="39.472" fill="white" transform="translate(4 4)"/>
</clipPath>
</defs>
</svg>
