<svg width="48" height="48" viewBox="0 0 48 48" fill="none" xmlns="http://www.w3.org/2000/svg">
<rect width="48" height="48" rx="4" fill="white"/>
<path d="M28.2622 20.4263H43.9999V29.6066C43.9999 33.9525 40.4769 37.4755 36.1311 37.4755C31.7852 37.4755 28.2622 33.9524 28.2622 29.6066V20.4263Z" fill="#4F58CA"/>
<path d="M15.8032 20.4263H35.4754V32.2296C35.4754 37.6619 31.0716 42.0656 25.6393 42.0656C20.207 42.0656 15.8032 37.6619 15.8032 32.2296V20.4263Z" fill="#7C84EC"/>
<circle cx="25.9673" cy="12.2295" r="6.22951" fill="#7C84EC"/>
<circle cx="38.7542" cy="14.5245" r="3.93443" fill="#4F58CA"/>
<rect x="4" y="14.5247" width="20.9836" height="20.9836" rx="4" fill="#565FC3"/>
<path d="M9.75186 20.3445V20.4945H9.90186H13.351V30.5606V30.7106H13.501H14.887H15.037V30.5606V20.4945H18.4861H18.6361V20.3445V19.115V18.965H18.4861H9.90186H9.75186V19.115V20.3445Z" fill="white" stroke="white" stroke-width="0.3"/>
</svg>
