<svg width="48" height="48" viewBox="0 0 48 48" fill="none" xmlns="http://www.w3.org/2000/svg">
<rect width="48" height="48" rx="4" fill="#F07167"/>
<mask id="path-2-inside-1_2486_570" fill="white">
<path fill-rule="evenodd" clip-rule="evenodd" d="M6 7C4.89543 7 4 7.89543 4 9V29.8182C4 30.9228 4.89543 31.8182 6 31.8182H26.0218C26.3731 26.337 30.9301 22 36.5 22C38.5936 22 40.544 22.6127 42.1818 23.6686V9C42.1818 7.89543 41.2864 7 40.1818 7H6Z"/>
</mask>
<path fill-rule="evenodd" clip-rule="evenodd" d="M6 7C4.89543 7 4 7.89543 4 9V29.8182C4 30.9228 4.89543 31.8182 6 31.8182H26.0218C26.3731 26.337 30.9301 22 36.5 22C38.5936 22 40.544 22.6127 42.1818 23.6686V9C42.1818 7.89543 41.2864 7 40.1818 7H6Z" fill="white"/>
<path d="M26.0218 31.8182V32.8182H26.9597L27.0197 31.8821L26.0218 31.8182ZM42.1818 23.6686L41.64 24.5091L43.1818 25.5031V23.6686H42.1818ZM5 9C5 8.44772 5.44772 8 6 8V6C4.34315 6 3 7.34315 3 9H5ZM5 29.8182V9H3V29.8182H5ZM6 30.8182C5.44772 30.8182 5 30.3705 5 29.8182H3C3 31.475 4.34315 32.8182 6 32.8182V30.8182ZM26.0218 30.8182H6V32.8182H26.0218V30.8182ZM27.0197 31.8821C27.3375 26.9239 31.4609 23 36.5 23V21C30.3992 21 25.4087 25.75 25.0238 31.7542L27.0197 31.8821ZM36.5 23C38.3957 23 40.1588 23.5542 41.64 24.5091L42.7237 22.8281C40.9292 21.6712 38.7915 21 36.5 21V23ZM41.1818 9V23.6686H43.1818V9H41.1818ZM40.1818 8C40.7341 8 41.1818 8.44772 41.1818 9H43.1818C43.1818 7.34314 41.8387 6 40.1818 6V8ZM6 8H40.1818V6H6V8Z" fill="white" mask="url(#path-2-inside-1_2486_570)"/>
<path d="M20 23.7364V15.809C20 15.4373 20.3912 15.1956 20.7236 15.3618L28.651 19.3255C29.0196 19.5098 29.0196 20.0357 28.651 20.2199L20.7236 24.1837C20.3912 24.3499 20 24.1081 20 23.7364Z" fill="#F07167"/>
<ellipse cx="36.2734" cy="32.6367" rx="8.36328" ry="8.36328" fill="white"/>
<path d="M32.1094 31.7833L35.9203 27.9724C36.1155 27.7772 36.4321 27.7772 36.6274 27.9724L40.4382 31.7833C40.7532 32.0983 40.5301 32.6369 40.0847 32.6369H32.463C32.0175 32.6369 31.7944 32.0983 32.1094 31.7833Z" fill="#F07167"/>
<rect x="35.27" y="30.9633" width="2.00697" height="6.68989" rx="0.5" fill="#F07167"/>
</svg>
