<svg width="48" height="48" viewBox="0 0 48 48" fill="none" xmlns="http://www.w3.org/2000/svg">
<rect width="48" height="48" rx="4" fill="#F48C06"/>
<mask id="path-2-inside-1_2486_581" fill="white">
<path d="M4 8C4 6.89543 4.89543 6 6 6H42C43.1046 6 44 6.89543 44 8V32.4211C44 33.5256 43.1046 34.4211 42 34.4211H6C4.89543 34.4211 4 33.5256 4 32.4211V8Z"/>
</mask>
<path d="M4 8C4 6.89543 4.89543 6 6 6H42C43.1046 6 44 6.89543 44 8V32.4211C44 33.5256 43.1046 34.4211 42 34.4211H6C4.89543 34.4211 4 33.5256 4 32.4211V8Z" fill="white"/>
<path d="M6 7H42V5H6V7ZM43 8V32.4211H45V8H43ZM42 33.4211H6V35.4211H42V33.4211ZM5 32.4211V8H3V32.4211H5ZM6 33.4211C5.44772 33.4211 5 32.9733 5 32.4211H3C3 34.0779 4.34315 35.4211 6 35.4211V33.4211ZM43 32.4211C43 32.9733 42.5523 33.4211 42 33.4211V35.4211C43.6569 35.4211 45 34.0779 45 32.4211H43ZM42 7C42.5523 7 43 7.44772 43 8H45C45 6.34315 43.6569 5 42 5V7ZM6 5C4.34315 5 3 6.34314 3 8H5C5 7.44771 5.44771 7 6 7V5Z" fill="white" mask="url(#path-2-inside-1_2486_581)"/>
<path d="M20.8423 24.7125V16.2826C20.8423 15.911 21.2334 15.6692 21.5659 15.8354L29.9957 20.0503C30.3642 20.2346 30.3642 20.7605 29.9957 20.9448L21.5659 25.1597C21.2334 25.3259 20.8423 25.0842 20.8423 24.7125Z" fill="#F07167"/>
<path d="M5.05273 39.6842H42.9475" stroke="white" stroke-width="2" stroke-linecap="round"/>
<circle cx="35.5788" cy="39.6843" r="3.15789" fill="white"/>
</svg>
