<svg width="48" height="48" viewBox="0 0 48 48" fill="none" xmlns="http://www.w3.org/2000/svg">
<rect width="48" height="48" rx="4" fill="#E63946"/>
<path d="M16 28H28C28.5667 28 29.042 27.808 29.426 27.424C29.81 27.04 30.0013 26.5653 30 26V22L34 26V14L30 18V14C30 13.4333 29.808 12.9587 29.424 12.576C29.04 12.1933 28.5653 12.0013 28 12H16C15.4333 12 14.9587 12.192 14.576 12.576C14.1933 12.96 14.0013 13.4347 14 14V26C14 26.5667 14.192 27.042 14.576 27.426C14.96 27.81 15.4347 28.0013 16 28ZM4 44V8C4 6.9 4.392 5.95867 5.176 5.176C5.96 4.39333 6.90133 4.00133 8 4H40C41.1 4 42.042 4.392 42.826 5.176C43.61 5.96 44.0013 6.90133 44 8V32C44 33.1 43.6087 34.042 42.826 34.826C42.0433 35.61 41.1013 36.0013 40 36H12L4 44Z" fill="white"/>
</svg>
