<svg width="48" height="48" viewBox="0 0 48 48" fill="none" xmlns="http://www.w3.org/2000/svg">
<rect width="48" height="48" rx="4" fill="white"/>
<g clip-path="url(#clip0_2537_1080)">
<path d="M24.511 15.01C26.0846 14.9546 27.6684 15.1965 29.1525 15.7347C31.3852 16.5357 33.3807 18.0036 34.8407 19.905C35.483 20.7391 36.021 21.656 36.4426 22.6261C36.5174 22.7876 36.575 22.969 36.5349 23.1489C36.4859 23.4508 36.2269 23.7004 35.929 23.7306C35.6197 23.7768 35.3 23.5796 35.1897 23.2817C34.3512 21.2654 32.9204 19.514 31.1355 18.3016C30.032 17.5481 28.7945 16.9994 27.5017 16.6922C25.8345 16.2936 24.0791 16.2936 22.4116 16.6909C20.0306 17.2513 17.8505 18.647 16.313 20.5863C15.661 21.4035 15.1227 22.3143 14.7169 23.2834C14.6291 23.5086 14.4273 23.6851 14.1919 23.7247C13.9648 23.7694 13.7177 23.6893 13.5594 23.5165C13.3727 23.3254 13.3117 23.0199 13.4079 22.7691C14.5248 20.0706 16.5928 17.8037 19.1353 16.4543C20.7913 15.5685 22.6438 15.0745 24.511 15.01Z" fill="#F49813"/>
<path d="M22.4316 23.3187C22.4222 23.1785 22.5519 23.0737 22.6805 23.0703C22.8476 23.0657 23.0151 23.0672 23.1825 23.0696C23.2989 23.0737 23.4347 23.1529 23.4342 23.2864C23.4402 24.8544 23.4306 26.4229 23.4393 27.9918C24.061 27.2854 24.688 26.5828 25.3119 25.8784C25.4348 25.7546 25.5319 25.567 25.723 25.5508C25.9805 25.54 26.2386 25.5464 26.4964 25.5468C26.5958 25.5377 26.7067 25.6308 26.6718 25.7391C26.631 25.8228 26.5563 25.8802 26.4953 25.9466C25.8206 26.6355 25.1434 27.3219 24.4723 28.0138C25.1206 28.7701 25.76 29.5342 26.4054 30.2934C26.4884 30.4014 26.5924 30.4931 26.662 30.6122C26.713 30.7053 26.6284 30.8186 26.5308 30.823C26.3165 30.8353 26.1017 30.823 25.8868 30.8282C25.7751 30.8256 25.6543 30.8423 25.5529 30.7834C25.4459 30.7207 25.381 30.6087 25.3045 30.5143C24.682 29.7132 24.0636 28.9089 23.4388 28.1092C23.4324 28.8978 23.4369 29.6862 23.4364 30.4743C23.434 30.5653 23.4522 30.6749 23.3747 30.7413C23.2513 30.863 23.0676 30.8203 22.9136 30.8282C22.7769 30.8235 22.6171 30.8541 22.506 30.7509C22.4442 30.7018 22.428 30.6178 22.4304 30.5432C22.4321 28.1347 22.4297 25.7265 22.4316 23.3187Z" fill="#3069B5"/>
<path d="M19.596 25.5335C19.9081 25.431 20.26 25.4114 20.5657 25.5467C20.673 25.5982 20.7976 25.708 20.7491 25.8432C20.7001 26.013 20.6584 26.1848 20.5999 26.3517C20.5568 26.4715 20.4208 26.516 20.3064 26.4926C20.0489 26.4474 19.7961 26.3605 19.5321 26.3693C19.3478 26.3649 19.1778 26.4659 19.0519 26.5968C18.8485 26.8 18.7433 27.0841 18.6961 27.3661C18.6586 27.5698 18.6693 27.778 18.6676 27.9838C18.6676 28.8489 18.6679 29.7145 18.6674 30.5796C18.6794 30.7219 18.5354 30.8185 18.4097 30.8234C18.2371 30.8259 18.0649 30.8281 17.8925 30.822C17.7679 30.8153 17.6277 30.7224 17.6439 30.5791C17.6431 28.9771 17.6421 27.3758 17.6442 25.7738C17.6336 25.6145 17.8063 25.5279 17.9417 25.5428C18.1117 25.5543 18.3437 25.4889 18.4542 25.6637C18.5381 25.8664 18.578 26.0853 18.6567 26.2897C18.8937 25.9574 19.2079 25.6644 19.596 25.5335Z" fill="#3069B5"/>
<path d="M2 25.6558C2.04795 25.5996 2.10398 25.5388 2.18391 25.5446C2.418 25.5423 2.65278 25.537 2.8867 25.5481C3.00547 25.5516 3.08728 25.6582 3.10464 25.7712C3.33478 26.7276 3.5608 27.6854 3.78991 28.6422C3.85711 28.9376 3.93892 29.2301 3.98275 29.5306C4.02795 29.8006 4.03689 30.0746 4.07986 30.3451C4.13898 29.959 4.19192 29.5705 4.29384 29.1933C4.59342 28.0514 4.89283 26.9097 5.19275 25.7682C5.21613 25.638 5.33592 25.5455 5.46328 25.5455C5.72384 25.5388 5.98492 25.5434 6.24548 25.5434C6.38522 25.5367 6.53477 25.6201 6.56843 25.7664C6.79222 26.5988 7.01327 27.4328 7.23618 28.2659C7.37143 28.8055 7.54862 29.336 7.62514 29.8896C7.64626 30.0421 7.66689 30.1949 7.69765 30.3463C7.78169 29.4765 8.00068 28.6302 8.18081 27.7785C8.32949 27.1008 8.47486 26.4225 8.62526 25.7448C8.64743 25.6087 8.78836 25.5402 8.91249 25.544C9.1232 25.5428 9.33427 25.5367 9.54464 25.5476C9.6696 25.5513 9.7414 25.6925 9.6974 25.8063C9.27461 27.4007 8.85335 28.9961 8.43038 30.5905C8.40768 30.7183 8.29869 30.8181 8.171 30.8202C7.84443 30.8311 7.5172 30.8228 7.19064 30.8246C7.0736 30.832 6.94982 30.7679 6.92919 30.6419C6.63685 29.5455 6.35033 28.4472 6.06072 27.3499C5.95588 26.9682 5.91342 26.5725 5.86942 26.1799C5.81563 26.5295 5.78898 26.8848 5.69789 27.2282C5.40141 28.358 5.1032 29.4883 4.80603 30.6182C4.77251 30.8012 4.56781 30.8378 4.41553 30.8258C4.11183 30.8202 3.80813 30.833 3.50476 30.8202C3.39666 30.8206 3.3133 30.7345 3.29388 30.6302C2.86763 29.0421 2.44275 27.4533 2.01616 25.8657C2.00137 25.7963 2.00327 25.7255 2 25.6558Z" fill="#3069B5"/>
<path d="M40.3001 25.5477C40.5219 25.5438 40.7445 25.5429 40.9662 25.5477C41.1011 25.5496 41.2279 25.6439 41.2704 25.7756C41.6533 26.7983 42.0335 27.8228 42.4159 28.846C42.4958 29.0536 42.5517 29.2702 42.5875 29.4901C42.7456 28.8832 42.9561 28.2927 43.1409 27.6937C43.3466 27.0461 43.5525 26.3983 43.7591 25.7505C43.7897 25.6378 43.8949 25.5608 44.0066 25.5513C44.1876 25.5376 44.3698 25.5496 44.5511 25.5446C44.6572 25.5459 44.7835 25.5332 44.8643 25.6202C44.9167 25.6655 44.9055 25.7408 44.8837 25.7997C44.2718 27.5834 43.6617 29.368 43.0507 31.1523C42.9445 31.4495 42.8628 31.7605 42.6918 32.0279C42.4465 32.435 42.049 32.7282 41.6121 32.8868C41.4595 32.9351 41.3018 33.0423 41.1377 32.9822C41.0212 32.9518 40.9765 32.828 40.9143 32.737C40.8696 32.6544 40.7871 32.578 40.8043 32.4753C40.8123 32.3734 40.8923 32.2905 40.9865 32.2633C41.1707 32.1983 41.358 32.1266 41.5072 31.9936C41.8699 31.6801 42.0942 31.2164 42.1796 30.7444C42.1217 30.5349 42.0146 30.3422 41.9369 30.1393C41.3534 28.7534 40.7699 27.367 40.185 25.9817C40.1498 25.891 40.0978 25.8046 40.0879 25.7063C40.0893 25.5982 40.2104 25.5508 40.3001 25.5477Z" fill="#3069B5"/>
<path d="M13.0932 26.218C12.7749 26.2784 12.4846 26.4809 12.323 26.7694C12.053 27.2371 12.0219 27.8015 12.0341 28.3319C12.0533 28.8121 12.1288 29.3243 12.4286 29.7125C12.6522 30.0045 13.0196 30.1511 13.3768 30.1455C13.7204 30.1567 14.0803 30.0378 14.3132 29.7708C14.6107 29.4383 14.7062 28.9769 14.7471 28.5418C14.7652 28.1145 14.7736 27.6794 14.6652 27.2621C14.5789 26.9095 14.3967 26.557 14.0815 26.3671C13.7881 26.1832 13.4256 26.166 13.0932 26.218ZM13.2276 25.4574C13.8036 25.4212 14.407 25.5435 14.8824 25.8922C15.3076 26.2013 15.5964 26.6777 15.7313 27.1884C15.8917 27.7983 15.891 28.4491 15.7455 29.0621C15.6086 29.6272 15.2882 30.1599 14.8049 30.481C14.2884 30.8312 13.6396 30.9222 13.0334 30.8476C12.5169 30.7826 12.0136 30.5511 11.6541 30.1622C11.2315 29.7097 11.0216 29.0863 10.9779 28.4702C10.9248 27.7869 11.0272 27.0636 11.3992 26.48C11.6744 26.0409 12.1118 25.7183 12.5997 25.5711C12.8032 25.5061 13.0155 25.4759 13.2276 25.4574Z" fill="#3069B5"/>
<path d="M30.2168 26.1901C29.9011 26.2108 29.5963 26.3965 29.4554 26.691C29.1801 27.2357 29.1744 27.8696 29.1882 28.4686C29.2102 28.8599 29.2517 29.2639 29.4302 29.6173C29.5508 29.8553 29.77 30.0433 30.0291 30.1009C30.4257 30.1984 30.8923 30.1158 31.1742 29.7956C31.4458 29.4796 31.5351 29.05 31.5769 28.6433C31.6056 28.1798 31.6073 27.7068 31.4947 27.2531C31.4174 26.9497 31.2864 26.6467 31.0513 26.4359C30.8258 26.2331 30.5116 26.1549 30.2168 26.1901ZM31.5755 23.2514C31.5683 23.1285 31.6912 23.05 31.7981 23.0405C31.9691 23.031 32.1406 23.0355 32.312 23.0375C32.4426 23.0363 32.5887 23.1355 32.5698 23.2838C32.5698 25.7032 32.5703 28.1222 32.5695 30.5412C32.5784 30.6661 32.4581 30.7631 32.3452 30.7706C32.2088 30.778 32.0722 30.778 31.9364 30.7684C31.8407 30.7622 31.7479 30.6995 31.7153 30.6059C31.664 30.4487 31.6374 30.2853 31.5983 30.1255C31.4093 30.3875 31.1656 30.6194 30.8628 30.7345C30.4308 30.8969 29.9501 30.8996 29.5061 30.7889C29.0601 30.6793 28.6717 30.3661 28.4565 29.9539C28.1187 29.3245 28.0787 28.5842 28.0999 27.8821C28.1119 27.2823 28.2239 26.6494 28.6063 26.1734C28.8948 25.7699 29.3674 25.5384 29.8447 25.4778C30.289 25.4114 30.7708 25.4878 31.1386 25.7629C31.3125 25.8879 31.4517 26.0557 31.576 26.231C31.5726 25.238 31.5734 24.2447 31.5755 23.2514Z" fill="#3069B5"/>
<path d="M36.3563 26.2204C36.1978 26.2534 36.0443 26.3183 35.9163 26.4197C35.6602 26.6234 35.533 26.9472 35.4651 27.2616C35.3663 27.7605 35.3676 28.2756 35.4187 28.7801C35.4665 29.1507 35.5576 29.5463 35.8235 29.8203C36.0401 30.0527 36.3666 30.1378 36.6722 30.1226C37.0008 30.1347 37.3429 30.0096 37.5548 29.7458C37.8198 29.4182 37.8946 28.9824 37.9332 28.5719C37.9578 28.0892 37.9582 27.595 37.8255 27.1263C37.7416 26.8344 37.5883 26.5441 37.3296 26.3777C37.0447 26.1866 36.6842 26.169 36.3563 26.2204ZM35.9163 25.5578C36.3723 25.4287 36.8604 25.4211 37.321 25.5288C37.749 25.6302 38.1498 25.8757 38.4128 26.2393C38.6909 26.612 38.8313 27.0742 38.8897 27.5347C38.9404 27.8899 38.9258 28.2496 38.9263 28.6074C38.9263 29.2531 38.9263 29.899 38.9246 30.5445C38.9315 30.6232 38.8829 30.6929 38.8201 30.7338C38.7141 30.8006 38.5826 30.7711 38.4643 30.7786C38.3317 30.7776 38.1572 30.7895 38.085 30.6485C38.0146 30.4826 37.9999 30.2977 37.9547 30.1233C37.7768 30.3442 37.5926 30.5722 37.3351 30.6999C36.9429 30.8981 36.4843 30.8865 36.0646 30.8027C35.551 30.699 35.078 30.3887 34.7876 29.9415C34.4416 29.4207 34.3161 28.7778 34.3209 28.1565C34.3167 27.5509 34.4326 26.9247 34.7622 26.4123C35.0256 25.9934 35.4484 25.6901 35.9163 25.5578Z" fill="#3069B5"/>
<path d="M45.1011 29.5249C44.8404 29.6228 44.6762 29.9301 44.7428 30.2077C44.8107 30.5335 45.1815 30.7559 45.491 30.6354C45.7762 30.5463 45.9562 30.2138 45.8677 29.9207C45.79 29.5908 45.407 29.3958 45.1011 29.5249ZM45.1372 29.3856C45.2919 29.3607 45.46 29.3589 45.6035 29.4322C45.8479 29.5457 46.0236 29.8139 45.9971 30.0928C46.0175 30.4255 45.7436 30.7229 45.4311 30.7764C45.0793 30.8528 44.7007 30.5923 44.629 30.2337C44.5365 29.8727 44.7819 29.4664 45.1372 29.3856Z" fill="#3069B5"/>
<path d="M45.2101 29.7909C45.2096 29.8664 45.2093 29.942 45.2101 30.018C45.2749 30.014 45.3416 30.018 45.4055 29.9999C45.4657 29.9745 45.4597 29.8963 45.4434 29.844C45.3812 29.7818 45.2887 29.7979 45.2101 29.7909ZM45.0146 29.668C45.2016 29.6789 45.4112 29.6249 45.5796 29.7316C45.7154 29.8357 45.6496 30.0623 45.4963 30.1106C45.5405 30.23 45.602 30.3411 45.6582 30.4549C45.5874 30.4563 45.5178 30.4575 45.4482 30.4587C45.3978 30.3533 45.3485 30.2467 45.3004 30.1405C45.2698 30.1396 45.2397 30.1392 45.2101 30.1387C45.2096 30.245 45.2096 30.3512 45.2096 30.4575C45.1434 30.4566 45.0787 30.4558 45.0137 30.4552C45.0142 30.1926 45.0133 29.93 45.0146 29.668Z" fill="#3069B5"/>
</g>
<defs>
<clipPath id="clip0_2537_1080">
<rect width="44" height="18" fill="white" transform="translate(2 15)"/>
</clipPath>
</defs>
</svg>
