<svg xmlns="http://www.w3.org/2000/svg" width="48" height="48" viewBox="0 0 48 48" fill="none">
  <path d="M3 17.4C3 12.3595 3 9.8393 3.98094 7.91409C4.8438 6.22062 6.22062 4.8438 7.91409 3.98094C9.8393 3 12.3595 3 17.4 3H30.6C35.6404 3 38.1608 3 40.0858 3.98094C41.7794 4.8438 43.1562 6.22062 44.019 7.91409C45 9.8393 45 12.3595 45 17.4V30.6C45 35.6404 45 38.1608 44.019 40.0858C43.1562 41.7794 41.7794 43.1562 40.0858 44.019C38.1608 45 35.6404 45 30.6 45H17.4C12.3595 45 9.8393 45 7.91409 44.019C6.22062 43.1562 4.8438 41.7794 3.98094 40.0858C3 38.1608 3 35.6404 3 30.6V17.4Z" fill="#4087FC"/>
  <path d="M12.4 15C11.3507 15 10.5 15.9594 10.5 17.1429V27.5356C10.5 30.5535 12.6692 33 15.345 33L26.5999 32.8929C27.6493 32.8929 28.5 31.9335 28.5 30.75V20.25C28.5 17.2322 25.9258 15 23.25 15H12.4Z" fill="white"/>
  <path d="M31.0683 19.0914C30.3894 19.7628 30 20.7317 30 21.75V26.099C30 27.1173 30.3894 28.0863 31.0683 28.7576L35.2932 32.4788C36.1528 33.3287 37.5 32.6402 37.5 31.3508V16.7028C37.5 15.4133 36.1528 14.7248 35.2932 15.5748L31.0683 19.0914Z" fill="white"/>
</svg>